<svg width="566px" height="94px" viewBox="232 123 566 94" version="1.1" xmlns="http://www.w3.org/2000/svg" xmlns:xlink="http://www.w3.org/1999/xlink">
    <!-- Generator: Sketch 40.1 (33804) - http://www.bohemiancoding.com/sketch -->
    <desc>Created with Sketch.</desc>
    <defs></defs>
    <g id="Group" stroke="none" stroke-width="1" fill="none" fill-rule="evenodd" transform="translate(232.000000, 123.000000)">
        <path d="M81,72.4 C76.08,67.24 58.92,49.24 54.6,44.44 C61.08,37.6 75.48,23.08 80.04,18.28 L60.12,0.76 C57.6,3.76 36.96,29.56 27.84,41.32 L27.84,37.84 C27.84,27.4 28.32,3.52 28.44,1.6 L0.48,1.6 C0.48,4.36 0.96,28.6 0.96,39.04 L0.96,51.76 C0.96,65.44 0.6,85.72 0.48,89.2 L28.44,89.2 C28.2,86.92 27.84,60.04 27.84,50.8 L27.84,48.52 C37.8,62.68 57.96,88.6 59.88,90.88 L81,72.4 Z M119.501538,46.12 C119.501538,33.88 119.861538,17.44 119.981538,15.52 L93.3415384,15.52 C93.3415384,18.04 93.5815384,44.2 93.5815384,46 L93.5815384,57.04 C93.5815384,59.68 93.4615384,83.56 93.3415384,88 L119.981538,88 C119.861538,85.6 119.501538,67.36 119.501538,57.16 L119.501538,46.12 Z M179.363077,88 C179.123077,85.96 179.003077,71.92 179.003077,61.36 L179.003077,34 C180.083077,34 200.243077,34.48 202.283077,34.6 L202.283077,15.76 C197.003077,16.24 173.123077,16.6 171.083077,16.6 L161.603077,16.6 C160.403077,16.6 134.483077,16.24 129.563077,15.76 L129.563077,34.6 C132.923077,34.48 148.523077,34 152.963077,34 L152.963077,59.8 C152.963077,70.84 152.843077,85.36 152.723077,88 L179.363077,88 Z M272.344615,67 C269.464615,67.24 265.624615,67.6 260.824615,67.6 C244.864615,67.6 234.784615,60.04 234.784615,50.8 C234.784615,39.52 244.984615,28.48 270.304615,23.92 L265.024615,0.88 C223.624615,9.76 205.504615,33.88 205.504615,53.8 C205.504615,69.88 220.024615,89.92 259.384615,89.92 C265.024615,89.92 269.344615,89.44 273.544615,88.96 L272.344615,67 Z M315.886154,88 C315.766154,85.6 315.406154,68.56 315.406154,63.88 L315.406154,60.88 L341.686154,58.96 L341.686154,66.04 C341.686154,67.96 341.326154,84.52 341.206154,88 L368.086154,88 C367.846154,86.08 367.606154,60.52 367.606154,59.2 L367.606154,49 C367.606154,46.6 367.966154,18.04 368.086154,15.52 L341.206154,15.52 C341.446154,17.8 341.686154,35.08 341.686154,36.76 L341.686154,40.6 L315.406154,42.52 L315.406154,38.92 C315.406154,37.12 315.766154,17.44 316.006154,15.52 L289.006154,15.52 C289.246154,18.04 289.486154,44.2 289.486154,46 L289.486154,57.04 C289.486154,59.68 289.366154,83.56 289.246154,88 L315.886154,88 Z M439.227692,70.72 C434.067692,71.2 417.507692,70.96 414.747692,70.96 L414.747692,59.92 C417.147692,59.92 431.667692,60.28 434.547692,60.28 L434.307692,43.24 C429.507692,43.72 416.907692,44.2 414.747692,44.2 L414.747692,31.84 C416.667692,31.84 433.827692,31.24 437.907692,31.24 L437.427692,13.72 C432.867692,14.08 396.267692,15.52 389.427692,15.52 C389.427692,18.52 389.667692,43.12 389.667692,44.8 L389.667692,58.36 C389.667692,60.76 389.667692,82.6 389.427692,88 C395.787692,88 435.147692,89.08 439.587692,89.08 L439.227692,70.72 Z M468.849231,91.12 C470.889231,86.32 478.689231,60.88 480.249231,55.6 C481.929231,58.6 493.209231,75.16 501.609231,86.92 L503.289231,86.92 C511.449231,76.24 525.129231,56.92 526.449231,55 C527.289231,57.76 537.489231,82.96 540.969231,91.12 L563.529231,82 C560.649231,76.36 539.049231,30.04 531.489231,14.92 L529.809231,14.92 C523.929231,23.68 508.809231,46.84 504.609231,52.96 C501.129231,47.68 485.289231,23.44 478.569231,13.36 L476.889231,13.36 C470.529231,26.32 448.929231,79.6 447.009231,83.68 L468.849231,91.12 Z" id="KitChem" fill="#0EA6C5"></path>
        <polygon id="Path-7" fill="#45D0E2" points="524.600388 55.7213381 530.575604 13.8439018 565.72112 81.6203923 540.431076 93"></polygon>
    </g>
</svg>