
<svg width="112px" height="112px" viewBox="45 0 112 112" version="1.1" xmlns="http://www.w3.org/2000/svg" xmlns:xlink="http://www.w3.org/1999/xlink">
    <!-- Generator: Sketch 40.3 (33839) - http://www.bohemiancoding.com/sketch -->
    <desc>Created with Sketch.</desc>
    <defs>
        <ellipse id="path-1" cx="55.591133" cy="54.7555556" rx="41.9211823" ry="41.9111111"></ellipse>
        <mask id="mask-2" maskContentUnits="userSpaceOnUse" maskUnits="objectBoundingBox" x="0" y="0" width="83.8423645" height="83.8222222" fill="white">
            <use xlink:href="#path-1"></use>
        </mask>
    </defs>
    <g id="rectant-2" stroke="none" stroke-width="1" fill="none" fill-rule="evenodd" transform="translate(101.248768, 56.477778) rotate(-180.000000) translate(-101.248768, -56.477778) translate(45.748768, 0.977778)">
        <ellipse id="Oval-7" fill="#DFDEDE" cx="55.2561576" cy="55.2428829" rx="55.2561576" ry="55.2428829"></ellipse>
        <use id="Oval-7" stroke="#FFFFFF" mask="url(#mask-2)" stroke-width="2" fill="#CCCBCB" xlink:href="#path-1"></use>
    </g>
    <g id="Bacon" stroke="none" stroke-width="1" fill="none" fill-rule="evenodd" transform="translate(75.000000, 36.000000)">
        <path d="M0.0829542376,33.7383793 C-0.471364061,33.1718441 1.92752906,32.1046385 2.0985781,32.049574 C2.0985781,32.049574 1.92394783,32.5736211 3.2677154,30.8892935 C4.98054664,28.7423678 5.47386231,25.2767784 5.47386231,25.2767784 C5.47386231,25.2767784 6.18588121,21.5318539 7.86028027,19.4310528 C9.54295787,17.3198649 12.1880156,16.8528005 12.1880156,16.8528005 C12.1880156,16.8528005 14.9738961,16.1493283 16.6485348,14.040513 C18.3303782,11.9226251 18.9009797,8.39939419 18.9009797,8.39939419 C18.9009797,8.39939419 19.6164789,4.69263184 21.3036779,2.58969381 C22.9859194,0.492934741 25.6398609,0 25.6398609,0 C25.6398609,0 28.1571402,1.02751587 29.81193,3.1119824 C31.4967885,5.23432524 32.3191574,8.41361875 32.3191574,8.41361875 C32.3191574,8.41361875 29.3843172,9.23330624 27.7270847,11.330065 C26.0527475,13.4484648 25.656018,16.8439359 25.656018,16.8439359 C25.656018,16.8439359 25.7893369,20.2307363 24.102472,22.3389437 C22.420901,24.4405349 19.2226053,24.811955 19.2226053,24.811955 C19.2226053,24.811955 16.2007194,25.7165904 14.5282586,27.8275608 C12.8463083,29.9505089 13.0165407,35.0049832 13.0165407,35.0049832 C13.0165407,35.0049832 9.68381546,37.9662313 6.63373181,37.9603924 C2.95329995,37.9533468 1.43804916,35.1233398 0.0829542376,33.7383793 Z" id="Path-3" fill="#F65656"></path>
        <path d="M2.01562387,35.8871118 C2.01562387,35.8871118 4.37392828,35.1206126 5.54296564,33.1428033 C6.5575208,31.4263511 6.88671488,28.9207901 6.88671488,28.9207901 C6.88671488,28.9207901 6.94814703,24.7724596 7.89452681,23.2210724 C8.87978657,21.6059497 10.749994,21.1100658 10.749994,21.1100658 C10.749994,21.1100658 12.2368091,20.6357544 13.6054611,19.6323612 C15.2602449,18.4191975 15.9097369,18.9225764 17.6367088,17.3102539 C18.8491884,16.1782679 18.6069546,15.2474201 19.4843641,13.9326434 C20.7905471,11.9753599 19.7410701,10.6655634 20.6601446,9.07732829 C21.6719582,7.32883265 20.7524108,6.56116729 21.6679566,5.4886171 C21.7446302,5.39879494 22.2571079,3.91209453 22.3398312,3.79981184 C23.3689325,2.40298296 23.1773545,3.48695125 24.0195178,2.11100658 C24.8570411,0.742642694 26.8749849,0.844402631 26.8749849,0.844402631 C26.8749849,0.844402631 28.7226401,2.11100658 29.5624834,3.16650987 C29.6192682,3.49955307 29.7431952,3.30411869 30.0663894,3.79981184 C28.5546715,5.06641579 27.2109222,5.06641579 27.2109222,5.06641579 C27.2109222,5.06641579 26.7577249,5.33814573 25.867173,6.33301974 C25.246007,7.02695099 25.1952983,7.59962368 25.1952983,7.59962368 C25.1952983,7.59962368 24.5949387,8.68646957 24.3554551,9.28842895 C24.0910327,9.95307352 24.3772481,10.9048859 24.0195178,11.3994355 C23.5374049,12.0659395 23.9177512,13.0740773 23.6835804,13.7215428 C23.4978295,14.2351309 22.3398312,15.410348 22.3398312,15.410348 L21.4999879,17.0991533 L19.98827,19.8434618 L16.2089753,22.1655691 C16.2089753,22.1655691 14.5065661,22.5035197 13.2695238,23.2210724 C11.7770754,24.0867746 11.4666915,23.6572832 10.749994,25.1209783 C10.1229423,26.4015917 10.9362185,26.8797042 10.4140566,28.0763875 C9.5084849,30.1517644 9.33181176,30.1676904 8.73437009,32.720602 C8.49196848,33.7564016 9.13868447,34.0264359 8.73437009,35.0427092 C8.29884119,36.1374425 6.88671488,37.9981184 6.88671488,37.9981184 C6.88671488,37.9981184 6.0265363,37.7475748 5.20702832,37.5759171 C3.50700646,37.2198231 2.01562387,35.8871118 2.01562387,35.8871118 Z" id="Path-2" fill="#EEBF77"></path>
    </g>
    <g id="Bacon" stroke="none" stroke-width="1" fill="none" fill-rule="evenodd" transform="translate(110.136750, 56.863866) rotate(5.000000) translate(-110.136750, -56.863866) translate(93.636750, 37.363866)">
        <path d="M0.0829542376,33.7383793 C-0.471364061,33.1718441 1.92752906,32.1046385 2.0985781,32.049574 C2.0985781,32.049574 1.92394783,32.5736211 3.2677154,30.8892935 C4.98054664,28.7423678 5.47386231,25.2767784 5.47386231,25.2767784 C5.47386231,25.2767784 6.18588121,21.5318539 7.86028027,19.4310528 C9.54295787,17.3198649 12.1880156,16.8528005 12.1880156,16.8528005 C12.1880156,16.8528005 14.9738961,16.1493283 16.6485348,14.040513 C18.3303782,11.9226251 18.9009797,8.39939419 18.9009797,8.39939419 C18.9009797,8.39939419 19.6164789,4.69263184 21.3036779,2.58969381 C22.9859194,0.492934741 25.6398609,-5.68434189e-14 25.6398609,-5.68434189e-14 C25.6398609,-5.68434189e-14 28.1571402,1.02751587 29.81193,3.1119824 C31.4967885,5.23432524 32.3191574,8.41361875 32.3191574,8.41361875 C32.3191574,8.41361875 29.3843172,9.23330624 27.7270847,11.330065 C26.0527475,13.4484648 25.656018,16.8439359 25.656018,16.8439359 C25.656018,16.8439359 25.7893369,20.2307363 24.102472,22.3389437 C22.420901,24.4405349 19.2226053,24.811955 19.2226053,24.811955 C19.2226053,24.811955 16.2007194,25.7165904 14.5282586,27.8275608 C12.8463083,29.9505089 13.0165407,35.0049832 13.0165407,35.0049832 C13.0165407,35.0049832 9.68381546,37.9662313 6.63373181,37.9603924 C2.95329995,37.9533468 1.43804916,35.1233398 0.0829542376,33.7383793 Z" id="Path-3" fill="#F65656"></path>
        <path d="M2.73399015,35.9555262 C2.73399015,35.9555262 5.09229456,35.189027 6.26133192,33.2112176 C7.27588708,31.4947655 7.60508116,28.9892045 7.60508116,28.9892045 C7.60508116,28.9892045 7.66651331,24.840874 8.61289309,23.2894867 C9.59815285,21.6743641 11.4683602,21.1784802 11.4683602,21.1784802 C11.4683602,21.1784802 12.9551754,20.7041688 14.3238274,19.7007755 C15.9786112,18.4876119 16.6281032,18.9909908 18.3550751,17.3786683 C19.5675547,16.2466823 19.3253209,15.3158345 20.2027303,14.0010578 C21.5089134,12.0437743 20.4594364,10.7339777 21.3785109,9.14574265 C22.3903245,7.39724701 21.4707771,6.62958166 22.3863229,5.55703147 C22.4629965,5.46720931 22.9754742,3.9805089 23.0581975,3.86822621 C24.0872987,2.47139733 23.8957208,3.55536561 24.737884,2.17942094 C25.5754074,0.811057059 27.5933512,0.912816996 27.5933512,0.912816996 C27.5933512,0.912816996 29.4410064,2.17942094 30.2808497,3.23492423 C30.3376345,3.56796743 30.4615615,3.37253305 30.7847556,3.86822621 C29.2730377,5.13483015 27.9292885,5.13483015 27.9292885,5.13483015 C27.9292885,5.13483015 27.4760912,5.4065601 26.5855392,6.4014341 C25.9643733,7.09536536 25.9136646,7.66803805 25.9136646,7.66803805 C25.9136646,7.66803805 25.313305,8.75488394 25.0738213,9.35684331 C24.809399,10.0214879 25.0956144,10.9733003 24.737884,11.4678499 C24.2557711,12.1343539 24.6361174,13.1424916 24.4019467,13.7899571 C24.2161958,14.3035453 23.0581975,15.4787624 23.0581975,15.4787624 L22.2183542,17.1675677 L20.7066363,19.9118762 L16.9273415,22.2339834 C16.9273415,22.2339834 15.2249324,22.5719341 13.9878901,23.2894867 C12.4954417,24.155189 12.1850578,23.7256975 11.4683602,25.1893926 C10.8413085,26.4700061 11.6545848,26.9481186 11.1324229,28.1448019 C10.2268512,30.2201787 10.050178,30.2361048 9.45273637,32.7890163 C9.21033476,33.824816 9.85705075,34.0948502 9.45273637,35.1111236 C9.01720747,36.2058568 7.60508116,38.0665328 7.60508116,38.0665328 C7.60508116,38.0665328 6.74490258,37.8159892 5.9253946,37.6443315 C4.22537274,37.2882375 2.73399015,35.9555262 2.73399015,35.9555262 Z" id="Path-2" fill="#EEBF77"></path>
    </g>
</svg>