
<svg width="151px" height="151px" viewBox="62 -1 151 151" version="1.1" xmlns="http://www.w3.org/2000/svg" xmlns:xlink="http://www.w3.org/1999/xlink">
    <!-- Generator: Sketch 40.3 (33839) - http://www.bohemiancoding.com/sketch -->
    <desc>Created with Sketch.</desc>
    <defs>
        <rect id="path-1" x="4.48170732" y="6.11650485" width="96.0365854" height="92.7669903" rx="15"></rect>
        <mask id="mask-2" maskContentUnits="userSpaceOnUse" maskUnits="objectBoundingBox" x="0" y="0" width="96.0365854" height="92.7669903" fill="white">
            <use xlink:href="#path-1"></use>
        </mask>
        <linearGradient x1="50%" y1="0%" x2="50%" y2="100%" id="linearGradient-3">
            <stop stop-color="#B28E60" offset="0%"></stop>
            <stop stop-color="#D2B48C" offset="100%"></stop>
        </linearGradient>
        <path d="M53.5410273,62.550843 L53.5410273,95.3387032 L96.5410273,95.3387032 L96.5410273,62.550843 C96.5406891,62.5236082 96.5410273,62.4963423 96.5410273,62.4690457 C96.5410273,57.8637222 86.9151494,54.1303699 75.0410273,54.1303699 C63.1669052,54.1303699 53.5410273,57.8637222 53.5410273,62.4690457 C53.5410273,62.4963423 53.5413655,62.5236082 53.5420403,62.550843 Z" id="path-4"></path>
        <mask id="mask-5" maskContentUnits="userSpaceOnUse" maskUnits="objectBoundingBox" x="0" y="0" width="43" height="41.2083333" fill="white">
            <use xlink:href="#path-4"></use>
        </mask>
    </defs>
    <g id="Group-5" stroke="none" stroke-width="1" fill="none" fill-rule="evenodd" transform="translate(62.000000, 0.000000)">
        <g id="reactant2" transform="translate(75.179756, 74.500000) rotate(-45.000000) translate(-75.179756, -74.500000) translate(22.679756, 22.000000)">
            <g id="Group-8" transform="translate(0.000000, 0.000000)">
                <rect id="Rectangle-9" fill="#4A6278" x="0" y="0" width="105" height="105" rx="17"></rect>
                <use id="Rectangle-9" stroke="#1E3951" mask="url(#mask-2)" stroke-width="6" fill="#2C4154" xlink:href="#path-1"></use>
            </g>
        </g>
        <use id="Combined-Shape" stroke-opacity="0.472203351" stroke="#8B572A" mask="url(#mask-5)" stroke-width="10" fill="url(#linearGradient-3)" transform="translate(75.041027, 74.734537) rotate(31.000000) translate(-75.041027, -74.734537) " xlink:href="#path-4"></use>
    </g>
</svg>