
<svg width="55px" height="104px" viewBox="55 9 55 104" version="1.1" xmlns="http://www.w3.org/2000/svg" xmlns:xlink="http://www.w3.org/1999/xlink">
    <!-- Generator: Sketch 40.3 (33839) - http://www.bohemiancoding.com/sketch -->
    <desc>Created with Sketch.</desc>
    <defs></defs>
    <g id="Alien" stroke="none" stroke-width="1" fill="none" fill-rule="evenodd" transform="translate(56.000000, 10.000000)">
        <g id="Alien-Head" transform="translate(0.000000, 28.038685)" stroke="#4A4A4A">
            <path d="M26.5,73.4170818 C36.9616904,73.4170818 44.8984066,65.8496768 48.3080743,57.0897573 C51.7177419,48.3298378 53,44.2659873 53,36.893006 C53,27.5139512 49.437186,19.1080328 43.8079404,13.4251784 C42.9530005,12.5620967 44.7529665,6.63421249 43.8079404,5.90288095 C42.6528176,5.008961 38.7317435,9.34565443 37.4594312,8.66893146 C34.1193801,6.89241058 30.4085054,5.90288095 26.5,5.90288095 C22.6977797,5.90288095 19.0825878,6.83932519 15.8138688,8.52575311 C14.5222845,9.19211932 8.86710549,5.01382597 7.69354839,5.90288095 C6.68631332,6.66593488 10.1438628,12.4685279 9.23703592,13.3798759 C3.58179806,19.0633092 1.8189894e-12,27.4889967 1.8189894e-12,36.893006 C1.8189894e-12,44.840773 0.676869235,47.4391587 5.46746688,58.399005 C10.2580645,69.3588512 16.6555327,73.4170818 26.5,73.4170818 Z" id="Oval-6" fill="#DF827F"></path>
            <ellipse id="Oval-2" fill="#FFFFFF" cx="14.9596774" cy="29.8833348" rx="5.55645161" ry="4.79609077"></ellipse>
            <ellipse id="Oval-2" fill="#FFFFFF" cx="37.1854839" cy="29.8833348" rx="5.55645161" ry="4.79609077"></ellipse>
            <path d="M38.0403226,48.6987679 C38.0403226,54.8114012 32.9692253,59.7666696 26.7137097,59.7666696 C20.4581941,59.7666696 15.3870968,54.8114012 15.3870968,48.6987679 L38.0403226,48.6987679 Z" id="Combined-Shape" fill="#FFFFFF"></path>
            <ellipse id="Oval" fill="#A77671" cx="5.98387097" cy="2.95144048" rx="3.41935484" ry="2.95144048"></ellipse>
            <ellipse id="Oval" fill="#A77671" cx="44.4516129" cy="2.95144048" rx="3.41935484" ry="2.95144048"></ellipse>
            <path d="M14.9596774,32.4658452 C16.6120778,32.4658452 17.9516129,31.3096159 17.9516129,29.8833348 C17.9516129,29.2441028 17.6825456,28.659115 17.2368363,28.2081491 C16.6880605,27.6529011 15.8715034,27.3008244 14.9596774,27.3008244 C13.3072771,27.3008244 11.9677419,28.4570537 11.9677419,29.8833348 C11.9677419,31.3096159 13.3072771,32.4658452 14.9596774,32.4658452 Z" id="Oval-9" fill="#000000"></path>
            <path d="M37.1854839,32.4658452 C38.8378842,32.4658452 40.1774194,31.3096159 40.1774194,29.8833348 C40.1774194,29.2441028 39.908352,28.659115 39.4626428,28.2081491 C38.913867,27.6529011 38.0973098,27.3008244 37.1854839,27.3008244 C35.5330835,27.3008244 34.1935484,28.4570537 34.1935484,29.8833348 C34.1935484,31.3096159 35.5330835,32.4658452 37.1854839,32.4658452 Z" id="Oval-9" fill="#000000"></path>
        </g>
        <g id="Chef" transform="translate(6.838710, 0.000000)" stroke="#979797">
            <path d="M30.7741935,20.6505413 L30.7741935,36.893006 L9.40322581,36.893006 L9.40322581,20.573199 C8.98555318,20.6303838 8.55727868,20.6600833 8.12096774,20.6600833 C3.6358811,20.6600833 0,17.5217467 0,13.6504122 C0,9.77907774 3.6358811,6.64074107 8.12096774,6.64074107 C9.1780142,6.64074107 10.1878914,6.81506059 11.1141192,7.13221155 C11.1133096,7.09144857 11.1129032,7.05060082 11.1129032,7.00967113 C11.1129032,3.13833666 14.7487843,0 19.233871,0 C23.7189576,0 27.3548387,3.13833666 27.3548387,7.00967113 C27.3548387,7.16908821 27.3486734,7.32726236 27.3365372,7.4840256 C28.4858399,6.94617992 29.8024019,6.64074107 31.2016129,6.64074107 C35.6866995,6.64074107 39.3225806,9.77907774 39.3225806,13.6504122 C39.3225806,17.5217467 35.6866995,20.6600833 31.2016129,20.6600833 C31.0582417,20.6600833 30.9157382,20.6568765 30.7741935,20.6505413 Z" id="Combined-Shape" fill="#FFFFFF"></path>
            <path d="M9.83064516,32.0969152 L30.3467742,32.0969152" id="Line" stroke-linecap="square"></path>
            <path d="M12.3951613,15.8639926 L12.3951613,32.0969152" id="Line" stroke-linecap="round"></path>
            <path d="M19.233871,15.8639926 L19.233871,32.0969152" id="Line" stroke-linecap="round"></path>
            <path d="M26.9274194,15.8639926 L26.9274194,32.0969152" id="Line" stroke-linecap="round"></path>
            <path d="M15.8145161,19.5532932 L15.8145161,32.0969152" id="Line" stroke-linecap="round"></path>
            <path d="M22.6532258,19.5532932 L22.6532258,32.0969152" id="Line" stroke-linecap="round"></path>
        </g>
    </g>
</svg>