
<svg width="104px" height="98px" viewBox="471 218 98 97" version="1.1" xmlns="http://www.w3.org/2000/svg" xmlns:xlink="http://www.w3.org/1999/xlink">
    <!-- Generator: Sketch 40.1 (33804) - http://www.bohemiancoding.com/sketch -->
    <desc>Created with Sketch.</desc>
    <defs></defs>
    <g id="Group" stroke="none" stroke-width="1" fill="none" fill-rule="evenodd" transform="translate(471.000000, 218.000000)">
        <rect id="Rectangle-8" fill="#001A31" transform="translate(76.419592, 75.489132) rotate(45.000000) translate(-76.419592, -75.489132) " x="51.4971787" y="70.0154477" width="49.8448276" height="10.9473684" rx="5.47368421"></rect>
        <path d="M21.3635536,21.3090605 L27.5557493,21.3090605 L27.5557493,14.993271 C27.5557493,11.5122544 24.7255986,8.67748156 21.2344309,8.67748156 L6.8425849,8.67748156 C3.35061684,8.67748156 0.521266526,11.5051568 0.521266526,14.993271 L0.521266526,21.3090605 L6.71264575,21.3090605 C6.53348689,20.8550498 6.43505963,20.3600311 6.43505963,19.8415087 L6.43505963,17.7239807 C6.43505963,15.5182286 8.22420126,13.7301131 10.4304927,13.7301131 L17.6465231,13.7301131 C19.8531399,13.7301131 21.6419562,15.5134699 21.6419562,17.7239807 L21.6419562,19.8415087 C21.6419562,20.3596606 21.543227,20.8547664 21.3635536,21.3090605 Z" id="Combined-Shape" fill="#001A31" transform="translate(14.038508, 14.993271) rotate(-45.000000) translate(-14.038508, -14.993271) "></path>
        <ellipse id="Oval-3" fill="#001930" cx="44.3534483" cy="50.2631579" rx="43.5086207" ry="43.3684211"></ellipse>
        <ellipse id="Oval-4" fill="#062A49" cx="44.3534483" cy="50.2631579" rx="21.5431034" ry="21.4736842"></ellipse>
    </g>
</svg>