
<svg width="104px" height="98px" viewBox="676 289 116 115" version="1.1" xmlns="http://www.w3.org/2000/svg" xmlns:xlink="http://www.w3.org/1999/xlink">
    <!-- Generator: Sketch 40.1 (33804) - http://www.bohemiancoding.com/sketch -->
    <desc>Created with Sketch.</desc>
    <defs></defs>
    <g id="Group" stroke="none" stroke-width="1" fill="none" fill-rule="evenodd" transform="translate(676.000000, 290.000000)">
        <rect id="Rectangle-8" fill="#656565" transform="translate(90.455844, 88.455844) rotate(45.000000) translate(-90.455844, -88.455844) " x="60.9558441" y="81.9558441" width="59" height="13" rx="6.5"></rect>
        <path d="M25.4917642,24.1170094 L32.6170094,24.1170094 L32.6170094,16.6170094 C32.6170094,12.4833021 29.2579907,9.11700936 25.1144311,9.11700936 L8.11958762,9.11700936 C3.98108836,9.11700936 0.617009358,12.4748737 0.617009358,16.6170094 L0.617009358,24.1170094 L7.74270345,24.1170094 C7.66064891,23.7984364 7.61700936,23.4647237 7.61700936,23.1211831 L7.61700936,19.1128356 C7.61700936,16.9060017 9.40872498,15.1170094 11.6117928,15.1170094 L21.622226,15.1170094 C23.8284839,15.1170094 25.6170094,16.9135306 25.6170094,19.1128356 L25.6170094,23.1211831 C25.6170094,23.4649953 25.5735211,23.7986657 25.4917642,24.1170094 Z" id="Combined-Shape" fill="#656565" transform="translate(16.617009, 16.617009) rotate(-45.000000) translate(-16.617009, -16.617009) "></path>
        <ellipse id="Oval-3" fill="#656565" cx="52.5" cy="58.5" rx="51.5" ry="51.5"></ellipse>
        <ellipse id="Oval-4" fill="#7A7A7A" cx="52.5" cy="58.5" rx="25.5" ry="25.5"></ellipse>
    </g>
</svg>