
<svg width="98px" height="97px" viewBox="14273 622 98 97" version="1.1" xmlns="http://www.w3.org/2000/svg" xmlns:xlink="http://www.w3.org/1999/xlink">
    <!-- Generator: Sketch 41.2 (35397) - http://www.bohemiancoding.com/sketch -->
    <desc>Created with Sketch.</desc>
    <defs></defs>
    <g id="Group-37" stroke="none" stroke-width="1" fill="none" fill-rule="evenodd" transform="translate(14273.000000, 622.000000)">
        <g id="pot1">
            <g id="Created-with-Sketch.">
                <g id="Group">
                    <rect id="Rectangle-8" fill="#656565" transform="translate(76.419592, 75.489132) rotate(45.000000) translate(-76.419592, -75.489132) " x="51.4971786" y="70.0154481" width="49.8448276" height="10.9473684" rx="5.4736842"></rect>
                    <path d="M21.3635536,21.3090606 L27.5557493,21.3090606 L27.5557493,14.9932711 C27.5557493,11.5122545 24.7255986,8.67748161 21.2344309,8.67748161 L6.84258495,8.67748161 C3.35061689,8.67748161 0.521266573,11.5051569 0.521266573,14.9932711 L0.521266573,21.3090606 L6.7126458,21.3090606 C6.53348694,20.8550499 6.43505968,20.3600312 6.43505968,19.8415088 L6.43505968,17.7239808 C6.43505968,15.5182287 8.22420131,13.7301132 10.4304927,13.7301132 L17.6465231,13.7301132 C19.8531399,13.7301132 21.6419562,15.51347 21.6419562,17.7239808 L21.6419562,19.8415088 C21.6419562,20.3596607 21.543227,20.8547665 21.3635536,21.3090606 Z" id="Combined-Shape" fill="#656565" transform="translate(14.038508, 14.993271) rotate(-45.000000) translate(-14.038508, -14.993271) "></path>
                    <ellipse id="Oval-3" fill="#656565" cx="44.3534483" cy="50.2631579" rx="43.5086207" ry="43.3684211"></ellipse>
                    <ellipse id="Oval-4" fill="#7A7A7A" cx="44.3534483" cy="50.2631579" rx="21.5431034" ry="21.4736842"></ellipse>
                </g>
            </g>
        </g>
        <g id="ui-color-1_lock" transform="translate(30.000000, 28.000000)">
            <g id="Group">
                <path d="M8.82352941,14.2608696 L8.82352941,9.80434783 C8.82352941,6.36403783 11.5942412,3.56521739 15,3.56521739 C18.4057588,3.56521739 21.1764706,6.36403783 21.1764706,9.80434783 L21.1764706,14.2608696 L24.7058824,14.2608696 L24.7058824,9.80434783 C24.7058824,4.3982037 20.35185,0 15,0 C9.64815,0 5.29411765,4.3982037 5.29411765,9.80434783 L5.29411765,14.2608696 L8.82352941,14.2608696 Z" id="Shape" fill="#B3B3B3"></path>
                <path d="M28.2352941,41 L1.76470588,41 C0.790085294,41 0,40.2018993 0,39.2173913 L0,16.0434783 C0,15.0589702 0.790085294,14.2608696 1.76470588,14.2608696 L28.2352941,14.2608696 C29.2099147,14.2608696 30,15.0589702 30,16.0434783 L30,39.2173913 C30,40.2018993 29.2099147,41 28.2352941,41 Z" id="Shape" fill="#EFD358"></path>
                <path d="M18.5294118,24.9565217 C18.5294118,22.9874789 16.9492676,21.3913043 15,21.3913043 C13.0507853,21.3913043 11.4705882,22.9874789 11.4705882,24.9565217 C11.4705882,26.2728089 12.1848088,27.4096765 13.2352941,28.0272346 L13.2352941,33.8695652 L16.7647059,33.8695652 L16.7647059,28.0272346 C17.8152441,27.409623 18.5294118,26.2728089 18.5294118,24.9565217 Z" id="Shape" fill="#A58C21"></path>
            </g>
        </g>
    </g>
</svg>