
<svg width="116px" height="115px" viewBox="14107 641 116 115" version="1.1" xmlns="http://www.w3.org/2000/svg" xmlns:xlink="http://www.w3.org/1999/xlink">
    <!-- Generator: Sketch 41.2 (35397) - http://www.bohemiancoding.com/sketch -->
    <desc>Created with Sketch.</desc>
    <defs></defs>
    <g id="Group-36" stroke="none" stroke-width="1" fill="none" fill-rule="evenodd" transform="translate(14107.000000, 642.000000)">
        <g id="pot2">
            <g id="Created-with-Sketch.">
                <g id="Group">
                    <rect id="Rectangle-8" fill="#656565" transform="translate(90.455844, 88.455844) rotate(45.000000) translate(-90.455844, -88.455844) " x="60.955844" y="81.9558441" width="59" height="13" rx="6.5"></rect>
                    <path d="M25.4917644,24.117009 L32.6170096,24.117009 L32.6170096,16.617009 C32.6170096,12.4833017 29.2579909,9.11700898 25.1144313,9.11700898 L8.11958778,9.11700898 C3.98108852,9.11700898 0.617009516,12.4748733 0.617009516,16.617009 L0.617009516,24.117009 L7.74270361,24.117009 C7.66064907,23.798436 7.61700952,23.4647233 7.61700952,23.1211827 L7.61700952,19.1128352 C7.61700952,16.9060013 9.40872514,15.117009 11.611793,15.117009 L21.6222262,15.117009 C23.8284841,15.117009 25.6170096,16.9135302 25.6170096,19.1128352 L25.6170096,23.1211827 C25.6170096,23.4649949 25.5735213,23.7986653 25.4917644,24.117009 Z" id="Combined-Shape" fill="#656565" transform="translate(16.617010, 16.617009) rotate(-45.000000) translate(-16.617010, -16.617009) "></path>
                    <circle id="Oval-3" fill="#656565" cx="52.5" cy="58.5" r="51.5"></circle>
                    <circle id="Oval-4" fill="#7A7A7A" cx="52.5" cy="58.5" r="25.5"></circle>
                </g>
            </g>
        </g>
        <g id="ui-color-1_lock" transform="translate(36.000000, 32.000000)">
            <g id="Group">
                <path d="M10,16 L10,11 C10,7.14014 13.14014,4 17,4 C20.85986,4 24,7.14014 24,11 L24,16 L28,16 L28,11 C28,4.93457 23.06543,0 17,0 C10.93457,0 6,4.93457 6,11 L6,16 L10,16 Z" id="Shape" fill="#B3B3B3"></path>
                <path d="M32,46 L2,46 C0.89543,46 0,45.10457 0,44 L0,18 C0,16.89543 0.89543,16 2,16 L32,16 C33.10457,16 34,16.89543 34,18 L34,44 C34,45.10457 33.10457,46 32,46 Z" id="Shape" fill="#EFD358"></path>
                <path d="M21,28 C21,25.79083 19.20917,24 17,24 C14.79089,24 13,25.79083 13,28 C13,29.47681 13.80945,30.75232 15,31.44519 L15,38 L19,38 L19,31.44519 C20.19061,30.75226 21,29.47681 21,28 Z" id="Shape" fill="#A58C21"></path>
            </g>
        </g>
    </g>
</svg>