
<svg width="105px" height="97px" viewBox="-1 0 105 97" version="1.1" xmlns="http://www.w3.org/2000/svg" xmlns:xlink="http://www.w3.org/1999/xlink">
    <!-- Generator: Sketch 41.2 (35397) - http://www.bohemiancoding.com/sketch -->
    <desc>Created with Sketch.</desc>
    <defs></defs>
    <g id="Group-36" stroke="none" stroke-width="1" fill="none" fill-rule="evenodd">
        <g id="Page-1">
            <g id="Group-36">
                <g id="pot2">
                    <g id="Created-with-Sketch.">
                        <g id="Group">
                            <path d="M82.8639024,73.1502071 L95.6731423,85.9594471 C97.9313756,88.2176803 97.926198,91.8841776 95.6718443,94.1385312 C93.4128942,96.3974813 89.7501651,96.397234 87.4927602,94.1398292 L75.7001357,82.3472046 C67.6643399,90.3168111 56.7220749,95.2201835 44.6637168,95.2201835 C19.9966271,95.2201835 0,74.7012703 0,49.3899083 C0,40.4367375 2.50195476,32.0831923 6.82757097,25.0252823 L3.73206649,21.9297778 C1.12558551,19.3232968 1.07561332,15.1473285 3.61351923,12.6094226 L14.0354889,2.18745297 C16.576498,-0.353556157 20.7546668,-0.295177121 23.3558441,2.30600021 L27.9332244,6.88338049 C33.1004653,4.73986391 38.7477705,3.55963303 44.6637168,3.55963303 C69.3308065,3.55963303 89.3274336,24.0785462 89.3274336,49.3899083 C89.3274336,58.0888617 86.9655433,66.2217577 82.8639024,73.1502071 Z M10.3897465,20.0020552 L9.59529184,19.2076005 C8.20661918,17.8189278 8.17963474,15.5944291 9.5306508,14.243413 L15.6694794,8.10458446 C17.0224517,6.75161214 19.2497318,6.78529053 20.6336668,8.16922555 L22.2212319,9.75679064 C17.7176733,12.4477117 13.7144826,15.9237126 10.3897465,20.0020552 Z" id="Combined-Shape" fill="#656565"></path>
                            <ellipse id="Oval-4" fill="#7A7A7A" cx="44.6637168" cy="49.3899083" rx="22.1150442" ry="22.6926606"></ellipse>
                            <path d="M82.8639024,73.1502071 L95.6731423,85.9594471 C97.9313756,88.2176803 97.926198,91.8841776 95.6718443,94.1385312 C93.4128942,96.3974813 89.7501651,96.397234 87.4927602,94.1398292 L75.7001357,82.3472046 C67.6643399,90.3168111 56.7220749,95.2201835 44.6637168,95.2201835 C19.9966271,95.2201835 0,74.7012703 0,49.3899083 C0,40.4367375 2.50195476,32.0831923 6.82757097,25.0252823 L3.73206649,21.9297778 C1.12558551,19.3232968 1.07561332,15.1473285 3.61351923,12.6094226 L14.0354889,2.18745297 C16.576498,-0.353556157 20.7546668,-0.295177121 23.3558441,2.30600021 L27.9332244,6.88338049 C33.1004653,4.73986391 38.7477705,3.55963303 44.6637168,3.55963303 C69.3308065,3.55963303 89.3274336,24.0785462 89.3274336,49.3899083 C89.3274336,58.0888617 86.9655433,66.2217577 82.8639024,73.1502071 Z M10.3897465,20.0020552 L9.59529184,19.2076005 C8.20661918,17.8189278 8.17963474,15.5944291 9.5306508,14.243413 L15.6694794,8.10458446 C17.0224517,6.75161214 19.2497318,6.78529053 20.6336668,8.16922555 L22.2212319,9.75679064 C17.7176733,12.4477117 13.7144826,15.9237126 10.3897465,20.0020552 Z" id="Combined-Shape" fill-opacity="0.699501812" fill="#FFFFFF"></path>
                        </g>
                    </g>
                </g>
                <g id="ui-color-1_lock" transform="translate(30.353982, 25.807339)">
                    <g id="Group">
                        <path d="M8.67256637,14.2385321 L8.67256637,9.78899083 C8.67256637,6.35406954 11.3958736,3.55963303 14.7433628,3.55963303 C18.090852,3.55963303 20.8141593,6.35406954 20.8141593,9.78899083 L20.8141593,14.2385321 L24.2831858,14.2385321 L24.2831858,9.78899083 C24.2831858,4.39131459 20.0036473,0 14.7433628,0 C9.48307841,0 5.20353982,4.39131459 5.20353982,9.78899083 L5.20353982,14.2385321 L8.67256637,14.2385321 Z" id="Shape" fill="#B3B3B3"></path>
                        <path d="M27.7522124,40.9357798 L1.73451327,40.9357798 C0.776567611,40.9357798 0,40.1389293 0,39.1559633 L0,16.0183486 C0,15.0353827 0.776567611,14.2385321 1.73451327,14.2385321 L27.7522124,14.2385321 C28.7101581,14.2385321 29.4867257,15.0353827 29.4867257,16.0183486 L29.4867257,39.1559633 C29.4867257,40.1389293 28.7101581,40.9357798 27.7522124,40.9357798 Z" id="Shape" fill="#EFD358"></path>
                        <path d="M18.2123894,24.9174312 C18.2123894,22.9514726 16.6592802,21.3577982 14.7433628,21.3577982 C12.8274975,21.3577982 11.2743363,22.9514726 11.2743363,24.9174312 C11.2743363,26.2316566 11.9763372,27.3667435 13.0088496,27.9833342 L13.0088496,33.8165138 L16.4778761,33.8165138 L16.4778761,27.9833342 C17.5104405,27.3666901 18.2123894,26.2316566 18.2123894,24.9174312 Z" id="Shape" fill="#A58C21"></path>
                    </g>
                </g>
            </g>
        </g>
    </g>
</svg>