
<svg width="31px" height="31px" viewBox="130 0 31 31" version="1.1" xmlns="http://www.w3.org/2000/svg" xmlns:xlink="http://www.w3.org/1999/xlink">
    <!-- Generator: Sketch 40.1 (33804) - http://www.bohemiancoding.com/sketch -->
    <desc>Created with Sketch.</desc>
    <defs></defs>
    <g id="emoticons-color_quite-happy" stroke="none" stroke-width="1" fill="none" fill-rule="evenodd" transform="translate(130.000000, 0.000000)">
        <g id="Group">
            <path d="M15.5,31 C6.95301696,31 0,24.0466528 0,15.5 C0,6.95334717 6.95301696,0 15.5,0 C24.046983,0 31,6.95334717 31,15.5 C31,24.0466528 24.046983,31 15.5,31 L15.5,31 Z" id="Shape" fill="#DADADA"></path>
            <path d="M9.02173913,14.0434783 C7.90688478,14.0434783 7,13.1365935 7,12.0217391 C7,10.9068848 7.90688478,10 9.02173913,10 C10.1365935,10 11.0434783,10.9068848 11.0434783,12.0217391 C11.0434783,13.1365935 10.1365935,14.0434783 9.02173913,14.0434783 L9.02173913,14.0434783 Z" id="Shape" fill="#444444"></path>
            <path d="M23.0217391,14.0434783 C21.9068848,14.0434783 21,13.1365935 21,12.0217391 C21,10.9068848 21.9068848,10 23.0217391,10 C24.1365935,10 25.0434783,10.9068848 25.0434783,12.0217391 C25.0434783,13.1365935 24.1365935,14.0434783 23.0217391,14.0434783 L23.0217391,14.0434783 Z" id="Shape" fill="#444444"></path>
            <path d="M22.1304348,19.673913 C22.1304348,19.3017446 21.8286902,19 21.4565217,19 L10.673913,19 C10.3017446,19 10,19.3017446 10,19.673913 L10,20.3478261 L22.1304348,20.3478261 L22.1304348,19.673913 L22.1304348,19.673913 Z" id="Shape" fill="#FFFFFF"></path>
            <path d="M10,21 C10.3366263,24.0278778 12.9092557,26.3913043 16.025443,26.3913043 C19.1416304,26.3913043 21.7142598,24.0278778 22.0508861,21 L10,21 L10,21 Z" id="Shape" fill="#595858"></path>
            <path d="M13,24.7165778 C13.9494154,25.3334374 15.0789139,25.6956522 16.2930154,25.6956522 C17.507117,25.6956522 18.6366154,25.3334374 19.5860309,24.7165778 C18.8548622,23.6812317 17.6571704,23 16.2930154,23 C14.9288604,23 13.7311687,23.6812317 13,24.7165778 L13,24.7165778 Z" id="Shape" fill="#B9B6B6"></path>
        </g>
    </g>
</svg>