
<svg width="31px" height="31px" viewBox="0 0 31 31" version="1.1" xmlns="http://www.w3.org/2000/svg" xmlns:xlink="http://www.w3.org/1999/xlink">
    <!-- Generator: Sketch 40.1 (33804) - http://www.bohemiancoding.com/sketch -->
    <desc>Created with Sketch.</desc>
    <defs></defs>
    <g id="emoticons-color_quite-happy" stroke="none" stroke-width="1" fill="none" fill-rule="evenodd">
        <g id="Group">
            <path d="M15.5,31 C6.95301696,31 0,24.0466528 0,15.5 C0,6.95334717 6.95301696,0 15.5,0 C24.046983,0 31,6.95334717 31,15.5 C31,24.0466528 24.046983,31 15.5,31 L15.5,31 Z" id="Shape" fill="#FFD764"></path>
            <path d="M8.76086957,13.4782609 C7.64601522,13.4782609 6.73913043,12.5713761 6.73913043,11.4565217 C6.73913043,10.3416674 7.64601522,9.43478261 8.76086957,9.43478261 C9.87572391,9.43478261 10.7826087,10.3416674 10.7826087,11.4565217 C10.7826087,12.5713761 9.87572391,13.4782609 8.76086957,13.4782609 L8.76086957,13.4782609 Z" id="Shape" fill="#444444"></path>
            <path d="M22.2391304,13.4782609 C21.1242761,13.4782609 20.2173913,12.5713761 20.2173913,11.4565217 C20.2173913,10.3416674 21.1242761,9.43478261 22.2391304,9.43478261 C23.3539848,9.43478261 24.2608696,10.3416674 24.2608696,11.4565217 C24.2608696,12.5713761 23.3539848,13.4782609 22.2391304,13.4782609 L22.2391304,13.4782609 Z" id="Shape" fill="#444444"></path>
            <path d="M21.5652174,19.5434783 C21.5652174,19.1713098 21.2634728,18.8695652 20.8913043,18.8695652 L10.1086957,18.8695652 C9.73652717,18.8695652 9.43478261,19.1713098 9.43478261,19.5434783 L9.43478261,20.2173913 L21.5652174,20.2173913 L21.5652174,19.5434783 L21.5652174,19.5434783 Z" id="Shape" fill="#FFFFFF"></path>
            <path d="M9.47455696,20.2173913 C9.81118326,23.2452691 12.3838126,25.6086957 15.5,25.6086957 C18.6161874,25.6086957 21.1888167,23.2452691 21.525443,20.2173913 L9.47455696,20.2173913 L9.47455696,20.2173913 Z" id="Shape" fill="#AE453E"></path>
            <path d="M12.2069846,24.6296213 C13.1564,25.2464809 14.2858985,25.6086957 15.5,25.6086957 C16.7141015,25.6086957 17.8436,25.2464809 18.7930154,24.6296213 C18.0618467,23.5942752 16.864155,22.9130435 15.5,22.9130435 C14.135845,22.9130435 12.9381533,23.5942752 12.2069846,24.6296213 L12.2069846,24.6296213 Z" id="Shape" fill="#FA645A"></path>
        </g>
    </g>
</svg>