<svg width="151px" height="151px" viewBox="12472 540 151 151" version="1.1" xmlns="http://www.w3.org/2000/svg" xmlns:xlink="http://www.w3.org/1999/xlink">
    <!-- Generator: Sketch 40.1 (33804) - http://www.bohemiancoding.com/sketch -->
    <desc>Created with Sketch.</desc>
    <defs>
        <rect id="path-1" x="0.48170732" y="0.11650485" width="96.0365854" height="92.7669903" rx="15"></rect>
    </defs>
    <g id="reactant2" stroke="none" stroke-width="1" fill="none" fill-rule="evenodd" transform="translate(12547.246212, 615.246212) rotate(-45.000000) translate(-12547.246212, -615.246212) translate(12494.746212, 562.746212)">
        <g id="Group-8" transform="translate(-0.000000, 0.000000)">
            <rect id="Rectangle-9" fill="#4A6278" x="0" y="0" width="105" height="105" rx="17"></rect>
            <g id="Rectangle-9-Clipped" transform="translate(4.000000, 6.000000)">
                <g>
                    <mask id="mask-2" fill="white">
                        <use xlink:href="#path-1"></use>
                    </mask>
                    <g id="path-1"></g>
                    <g id="Rectangle-9" mask="url(#mask-2)" stroke="#1E3951" stroke-width="6" fill="#2C4154">
                        <rect id="path-1" x="0.48170732" y="0.11650485" width="96.0365854" height="92.7669903" rx="15"></rect>
                    </g>
                </g>
            </g>
        </g>
        <g id="svg-o-atom" transform="translate(71.257359, 35.553824) rotate(-315.000000) translate(-71.257359, -35.553824) translate(48.257359, 12.553824)">
            <g id="Created-with-Sketch.">
                <g id="Atom" transform="translate(0.748768, 0.977778)">
                    <circle id="Oval-4" fill="#FACC39" cx="22.5" cy="22.5" r="22.5"></circle>
                    <path d="M40.0087533,31.7061902 C39.9416017,36.4143659 33.5303719,36.2118964 24.9426451,31.2418014 C15.4568561,26.2582743 5.84075734,18.3768558 4.2045165,13.6503211" id="Oval-5" stroke-opacity="0.8" stroke="#9B9B9B" transform="translate(22.106635, 24.378988) scale(-1, 1) translate(-22.106635, -24.378988) "></path>
                    <path d="M4.38406952,13.1917468 C2.67443855,8.46521208 10.9792937,8.69828657 22.2163505,13.7001727 C32.5805407,18.6886268 40.4111325,26.5394402 40.429969,31.2476159" id="Oval-5" stroke-opacity="0.8" stroke="#9B9B9B"></path>
                    <g id="O" transform="translate(9.000000, 0.000000)" font-size="36" font-family=".SFNSText-Bold, .SF NS Text" fill="#4A4A4A" font-weight="bold">
                        <g id="Group">
                            <text id="O">
                                <tspan x="0.24701604" y="35.7469115">O</tspan>
                            </text>
                        </g>
                    </g>
                    <path d="M40.4488231,31.7061902 C40.3816715,36.4143659 33.9704417,36.2118964 25.3827149,31.2418014 C15.8969259,26.2582743 6.28082714,18.3768558 4.64458631,13.6503211" id="Oval-5" stroke-opacity="0.8" stroke="#9B9B9B"></path>
                    <path d="M4.38406951,13.1917468 C2.67443854,8.46521208 10.9792937,8.69828657 22.2163505,13.7001727 C32.5805407,18.6886268 40.4111325,26.5394402 40.429969,31.2476159" id="Oval-5" stroke-opacity="0.8" stroke="#9B9B9B" transform="translate(22.295263, 20.520060) scale(-1, 1) translate(-22.295263, -20.520060) "></path>
                </g>
            </g>
        </g>
        <g id="svg-o-atom" transform="translate(34.648232, 70.202056) rotate(-315.000000) translate(-34.648232, -70.202056) translate(11.648232, 47.202056)">
            <g id="Created-with-Sketch.">
                <g id="Atom" transform="translate(0.748768, 0.977778)">
                    <circle id="Oval-4" fill="#FACC39" cx="22.5" cy="22.5" r="22.5"></circle>
                    <path d="M40.0087533,31.7061902 C39.9416017,36.4143659 33.5303719,36.2118964 24.9426451,31.2418014 C15.4568561,26.2582743 5.84075734,18.3768558 4.2045165,13.6503211" id="Oval-5" stroke-opacity="0.8" stroke="#9B9B9B" transform="translate(22.106635, 24.378988) scale(-1, 1) translate(-22.106635, -24.378988) "></path>
                    <path d="M4.38406952,13.1917468 C2.67443855,8.46521208 10.9792937,8.69828657 22.2163505,13.7001727 C32.5805407,18.6886268 40.4111325,26.5394402 40.429969,31.2476159" id="Oval-5" stroke-opacity="0.8" stroke="#9B9B9B"></path>
                    <g id="O" transform="translate(9.000000, 0.000000)" font-size="36" font-family=".SFNSText-Bold, .SF NS Text" fill="#4A4A4A" font-weight="bold">
                        <g id="Group">
                            <text id="O">
                                <tspan x="0.24701604" y="35.7469115">O</tspan>
                            </text>
                        </g>
                    </g>
                    <path d="M40.4488231,31.7061902 C40.3816715,36.4143659 33.9704417,36.2118964 25.3827149,31.2418014 C15.8969259,26.2582743 6.28082714,18.3768558 4.64458631,13.6503211" id="Oval-5" stroke-opacity="0.8" stroke="#9B9B9B"></path>
                    <path d="M4.38406951,13.1917468 C2.67443854,8.46521208 10.9792937,8.69828657 22.2163505,13.7001727 C32.5805407,18.6886268 40.4111325,26.5394402 40.429969,31.2476159" id="Oval-5" stroke-opacity="0.8" stroke="#9B9B9B" transform="translate(22.295263, 20.520060) scale(-1, 1) translate(-22.295263, -20.520060) "></path>
                </g>
            </g>
        </g>
    </g>
</svg>