<svg width="60px" height="60px" viewBox="19 26 60 60" version="1.1" xmlns="http://www.w3.org/2000/svg" xmlns:xlink="http://www.w3.org/1999/xlink">
    <!-- Generator: Sketch 40.1 (33804) - http://www.bohemiancoding.com/sketch -->
    <desc>Created with Sketch.</desc>
    <defs></defs>
    <g id="Atom" stroke="none" stroke-width="1" fill="none" fill-rule="evenodd" transform="translate(19.000000, 26.000000)">
        <circle id="Oval-4" fill="#999999" cx="30" cy="30" r="30"></circle>
        <path d="M53.345004,42.2749203 C53.2554685,48.5524878 44.7071621,48.2825285 33.2568597,41.6557352 C20.6091411,35.0110324 7.78767604,24.5024744 5.6060216,18.2004281" id="Oval-5" stroke-opacity="0.515228714" stroke="#FFFFFF" transform="translate(29.475513, 32.505317) scale(-1, 1) translate(-29.475513, -32.505317) "></path>
        <path d="M5.84542603,17.5889957 C3.56591806,11.2869494 14.6390582,11.5977154 29.6218007,18.266897 C43.4407209,24.918169 53.88151,35.3859203 53.9066254,41.6634878" id="Oval-5" stroke-opacity="0.515228714" stroke="#FFFFFF"></path>
        <g id="C" transform="translate(14.000000, 4.000000)" font-size="40" font-family=".SFNSText-Bold, .SF NS Text" fill="#FACC39" font-weight="bold">
            <text>
                <tspan x="0.9960214" y="39.995882">C</tspan>
            </text>
        </g>
        <path d="M53.9317642,42.2749203 C53.8422287,48.5524878 45.2939223,48.2825285 33.8436199,41.6557352 C21.1959012,35.0110324 8.37443619,24.5024744 6.19278175,18.2004281" id="Oval-5" stroke-opacity="0.515228714" stroke="#FFFFFF"></path>
        <path d="M5.84542555,17.5865024 C3.56591758,11.2838035 14.6390577,11.5946017 29.6218002,18.2644739 C43.4407204,24.9164348 53.8815095,35.3852701 53.9066249,41.6634878" id="Oval-5" stroke-opacity="0.515228714" stroke="#FFFFFF" transform="translate(29.727017, 27.358599) scale(-1, 1) translate(-29.727017, -27.358599) "></path>
    </g>
</svg>