
<svg width="111px" height="113px" viewBox="259 2 111 113" version="1.1" xmlns="http://www.w3.org/2000/svg" xmlns:xlink="http://www.w3.org/1999/xlink">
    <!-- Generator: Sketch 40.3 (33839) - http://www.bohemiancoding.com/sketch -->
    <desc>Created with Sketch.</desc>
    <defs>
        <ellipse id="path-1" cx="55.135468" cy="55.1222222" rx="55.135468" ry="55.1222222"></ellipse>
        <ellipse id="path-3" cx="55.591133" cy="54.6666667" rx="42.8325123" ry="42.8222222"></ellipse>
        <mask id="mask-4" maskContentUnits="userSpaceOnUse" maskUnits="objectBoundingBox" x="0" y="0" width="85.6650246" height="85.6444444" fill="white">
            <use xlink:href="#path-3"></use>
        </mask>
    </defs>
    <g id="rectant-2" stroke="none" stroke-width="1" fill="none" fill-rule="evenodd" transform="translate(314.500000, 58.477778) rotate(-180.000000) translate(-314.500000, -58.477778) translate(259.000000, 2.977778)">
        <g id="the-party-icons-50" transform="translate(0.000000, -0.000000)">
            <mask id="mask-2" fill="white">
                <use xlink:href="#path-1"></use>
            </mask>
            <use id="Mask" fill="#F4D9D3" xlink:href="#path-1"></use>
            <g id="Oval-7" mask="url(#mask-2)" stroke-width="2" stroke="#FFFFFF" fill="#EEC0B7">
                <use mask="url(#mask-4)" xlink:href="#path-3"></use>
            </g>
        </g>
        <g id="Chicken" transform="translate(68.317695, 57.748395) rotate(-11.000000) translate(-68.317695, -57.748395) translate(49.817695, 29.248395)">
            <path d="M17.99699,18.3854063 L5.16558502,47.3082612 C5.16558502,47.3082612 4.14396986,46.6765717 3.18539662,46.6706468 C2.62808038,46.667202 2.64534053,46.6177319 2.20449157,46.6706468 C1.62532855,46.7401634 0.750153454,47.0828947 0.579163022,47.7313433 C0.425065451,48.3157289 -0.0941798232,50.1704968 0.289581511,50.7754996 C1.0991738,52.0518284 0.579163022,51.6205638 2.20449157,53.333856 C4.30883884,55.5520915 6.15261617,53.333856 6.15261617,53.333856 C6.15261617,53.333856 6.94157441,54.913686 8.10828231,55.8633499 C8.85446318,56.4707179 9.91464928,56.5950111 10.4249344,56.5704809 C11.1417623,56.5360219 11.9359161,56.5333791 12.7415865,55.1562189 C13.829965,53.2958158 11.6700069,50.7754996 11.6700069,50.7754996 L23.9191769,23.2058821 L22.9321457,18.3854063 L17.99699,18.3854063 Z" id="Path-6" fill="#FBECCC"></path>
            <path d="M5.99216911,24.2598896 C7.26547768,15.4502045 6.39653702,18.1684388 9.43715129,10.6707496 C11.5379907,5.49040126 12.8821335,5.49393429 15.2671211,3.22907761 C17.9171074,1.28777188 18.3365656,1.05951155 21.5895975,0.31711902 C23.2856436,-0.0699451208 25.0260693,-0.094816775 26.7010955,0.199547713 C28.8200712,0.571930683 29.4796302,1.92189426 31.1670388,3.22907761 C33.4114392,4.96774529 35.6372592,8.93098728 36.2020128,11.9649534 C36.2020128,19.0830744 37.4028121,18.3438852 34.8770196,24.2598896 C30.9103457,33.55078 31.6780802,31.2239759 25.6020676,39.4667845 C23.3306234,42.5482593 18.6892335,43.3014395 16.8571129,44.6435998 C16.0392472,45.2427452 16.4169794,41.9992158 15.2671211,41.4080902 C13.8994924,40.705012 13.0504469,42.8491545 11.8221389,42.0551921 C10.7979586,41.3931752 11.5987455,39.1074961 10.4971458,38.4961316 C8.68376054,37.4897413 7.19070409,40.1795314 6.787165,38.4961316 C5.60071231,33.5467369 5.67548591,26.450937 5.99216911,24.2598896 Z" id="Path-5" fill="#8B572A"></path>
        </g>
        <g id="Chicken" transform="translate(42.732653, 44.243239) rotate(-156.000000) translate(-42.732653, -44.243239) translate(24.232653, 15.743239)">
            <path d="M17.99699,18.3854063 L5.16558502,47.3082612 C5.16558502,47.3082612 4.14396986,46.6765717 3.18539662,46.6706468 C2.62808038,46.667202 2.64534053,46.6177319 2.20449157,46.6706468 C1.62532855,46.7401634 0.750153454,47.0828947 0.579163022,47.7313433 C0.425065451,48.3157289 -0.0941798233,50.1704968 0.289581511,50.7754996 C1.0991738,52.0518284 0.579163022,51.6205638 2.20449157,53.333856 C4.30883884,55.5520915 6.15261617,53.333856 6.15261617,53.333856 C6.15261617,53.333856 6.94157441,54.913686 8.10828231,55.8633499 C8.85446318,56.4707179 9.91464928,56.5950111 10.4249344,56.5704809 C11.1417623,56.5360219 11.9359161,56.5333791 12.7415865,55.1562189 C13.829965,53.2958158 11.6700069,50.7754996 11.6700069,50.7754996 L23.9191769,23.2058821 L22.9321457,18.3854063 L17.99699,18.3854063 Z" id="Path-6" fill="#FBECCC"></path>
            <path d="M5.99216911,24.2598896 C7.26547768,15.4502045 6.39653702,18.1684388 9.43715129,10.6707496 C11.5379907,5.49040126 12.8821335,5.49393429 15.2671211,3.22907761 C17.9171074,1.28777188 18.3365656,1.05951155 21.5895975,0.31711902 C23.2856436,-0.0699451208 25.0260693,-0.094816775 26.7010955,0.199547713 C28.8200712,0.571930683 29.4796302,1.92189426 31.1670388,3.22907761 C33.4114392,4.96774529 35.6372592,8.93098728 36.2020128,11.9649534 C36.2020128,19.0830744 37.4028121,18.3438852 34.8770196,24.2598896 C30.9103457,33.55078 31.6780802,31.2239759 25.6020676,39.4667845 C23.3306234,42.5482593 18.6892335,43.3014395 16.8571129,44.6435998 C16.0392472,45.2427452 16.4169794,41.9992158 15.2671211,41.4080902 C13.8994924,40.705012 13.0504469,42.8491545 11.8221389,42.0551921 C10.7979586,41.3931752 11.5987455,39.1074961 10.4971458,38.4961316 C8.68376054,37.4897413 7.19070409,40.1795314 6.787165,38.4961316 C5.60071231,33.5467369 5.67548591,26.450937 5.99216911,24.2598896 Z" id="Path-5" fill="#8B572A"></path>
        </g>
    </g>
</svg>