<svg width="112px" height="112px" viewBox="0 0 112 112" version="1.1" xmlns="http://www.w3.org/2000/svg" xmlns:xlink="http://www.w3.org/1999/xlink">
    <!-- Generator: Sketch 40.1 (33804) - http://www.bohemiancoding.com/sketch -->
    <desc>Created with Sketch.</desc>
    <defs>
        <ellipse id="path-1" cx="42.591133" cy="42.7555556" rx="41.9211823" ry="41.9111111"></ellipse>
        <rect id="path-3" x="0.64" y="0.1190903" width="6.17142857" height="8.48498123"></rect>
        <rect id="path-5" x="0.8971429" y="0.0538173" width="6.17142857" height="8.48498123"></rect>
        <polygon id="path-7" points="18.4514286 9.3633009 18.4514286 28.9998477 4.25714286 28.9998477 4.25714286 9.5118307 0.69283833 1.5062717 4.07556666 0.000184 7.2894465 7.2186763 9.5028571 7.2186763 9.5028571 0.0538173 13.2057143 0.0538173 13.2057143 7.2186763 15.3529952 7.2186763 18.566875 0.000184 21.9496034 1.5062717"></polygon>
    </defs>
    <g id="Group-12" stroke="none" stroke-width="1" fill="none" fill-rule="evenodd">
        <g id="Created-with-Sketch.">
            <g id="rectant-2" transform="translate(56.248768, 56.477778) rotate(180.000000) translate(-56.248768, -56.477778) translate(0.748768, 0.977778)">
                <ellipse id="Oval-7" fill="#DFDEDE" cx="55.2561576" cy="55.2428829" rx="55.2561576" ry="55.2428829"></ellipse>
                <g id="Oval-7-Clipped" transform="translate(13.000000, 12.000000)">
                    <mask id="mask-2" fill="white">
                        <use xlink:href="#path-1"></use>
                    </mask>
                    <g id="path-1"></g>
                    <g id="Oval-7" mask="url(#mask-2)" stroke="#FFFFFF" stroke-width="2" fill="#CCCBCB">
                        <ellipse id="path-1" cx="42.591133" cy="42.7555556" rx="41.9211823" ry="41.9111111"></ellipse>
                    </g>
                </g>
            </g>
        </g>
        <g id="svg-broccoli" transform="translate(12.000000, 20.000000)">
            <g id="Created-with-Sketch.">
                <g id="Broccoli" transform="translate(21.894404, 24.818563) rotate(16.000000) translate(-21.894404, -24.818563) translate(5.394404, 3.818563)">
                    <g id="Rectangle-3-Clipped" transform="translate(8.000000, 13.000000)">
                        <g>
                            <mask id="mask-4" fill="white">
                                <use xlink:href="#path-3"></use>
                            </mask>
                            <g id="path-1"></g>
                            <g id="Rectangle-3" mask="url(#mask-4)" stroke="#979797" stroke-width="2" fill="#294904">
                                <rect id="path-3" x="0.64" y="0.1190903" width="6.17142857" height="8.48498123"></rect>
                            </g>
                        </g>
                    </g>
                    <g id="Rectangle-3-Clipped" transform="translate(17.000000, 13.000000)">
                        <g>
                            <mask id="mask-6" fill="white">
                                <use xlink:href="#path-5"></use>
                            </mask>
                            <g id="path-3"></g>
                            <g id="Rectangle-3" mask="url(#mask-6)" stroke="#979797" stroke-width="2" fill="#294904">
                                <rect id="path-5" x="0.8971429" y="0.0538173" width="6.17142857" height="8.48498123"></rect>
                            </g>
                        </g>
                    </g>
                    <g id="Combined-Shape-Clipped" transform="translate(5.000000, 13.000000)">
                        <g>
                            <mask id="mask-8" fill="white">
                                <use xlink:href="#path-7"></use>
                            </mask>
                            <g id="path-5"></g>
                            <g id="Combined-Shape" mask="url(#mask-8)" stroke-width="2" stroke="#1D3303" fill="#67893B">
                                <polygon id="path-7" points="18.4514286 9.3633009 18.4514286 28.9998477 4.25714286 28.9998477 4.25714286 9.5118307 0.69283833 1.5062717 4.07556666 0.000184 7.2894465 7.2186763 9.5028571 7.2186763 9.5028571 0.0538173 13.2057143 0.0538173 13.2057143 7.2186763 15.3529952 7.2186763 18.566875 0.000184 21.9496034 1.5062717"></polygon>
                            </g>
                        </g>
                    </g>
                    <g id="Group" transform="translate(9.982857, 19.764706)" stroke="#538020">
                        <path d="M2.20571429,5.09558824 L2.20571429,15.9044118" id="Line"></path>
                        <path d="M1.38098968,5.19674739 C1.38098968,5.19674739 1.65428348,4.56859802 1.68237277,4.32075224 C1.70772169,4.09708607 1.6871843,3.83248311 1.6871843,3.83248311 C1.6871843,3.61196894 1.22115187,0.163241439 0.991465016,0.163241439" id="Oval-23" transform="translate(1.491465, 2.679994) rotate(-19.000000) translate(-1.491465, -2.679994) "></path>
                    </g>
                    <path d="M18.0514286,31.0367647 L18.0514286,37.8308824" id="Line" stroke="#527A25"></path>
                    <path d="M14.9657143,22.3897059 L14.9657143,29.1838235" id="Line" stroke="#527A25"></path>
                    <path d="M22.3714286,18.9926471 L19.9028571,23.9338235" id="Line" stroke="#527A25"></path>
                    <path d="M20.52,27.6397059 L20.52,37.8308824" id="Line" stroke="#4F8115"></path>
                    <path d="M25.0198335,16.3650324 C24.4072793,17.1557687 23.6517148,17.6226533 22.8342857,17.6226533 C21.5278707,17.6226533 20.3794729,16.4301167 19.7203446,14.6289315 C19.0827549,16.1977234 17.6083984,17.2963079 15.8914286,17.2963079 C14.2844206,17.2963079 12.8899452,16.3339332 12.1951545,14.9243963 C11.5247913,15.3930127 10.7284913,15.6645807 9.87428571,15.6645807 C9.54447438,15.6645807 9.22329534,15.6240966 8.91466438,15.5474175 C8.93702283,15.6924424 8.94857143,15.8404957 8.94857143,15.9909262 C8.94857143,17.7932822 7.29074582,19.2543805 5.24571429,19.2543805 C3.20068276,19.2543805 1.54285714,17.7932822 1.54285714,15.9909262 C1.54285714,15.8714365 1.55014363,15.7534468 1.56434636,15.6372832 C0.678159582,15.4670661 0,14.5213322 0,13.3801627 C0,12.1185135 0.828912806,11.0957447 1.85142857,11.0957447 C2.10311643,11.0957447 2.34307433,11.1577119 2.56182764,11.2699559 C2.76571295,10.2349412 3.28872582,9.37579582 3.97979095,8.89667974 C3.05124646,8.26999085 2.46857143,7.36723889 2.46857143,6.36373592 C2.46857143,4.47126207 4.54085344,2.93710889 7.09714286,2.93710889 C7.83252462,2.93710889 8.5278513,3.06407107 9.1453105,3.29000215 C9.52158695,2.12325186 10.3971169,1.30538173 11.4171429,1.30538173 C12.2205766,1.30538173 12.9343639,1.81279532 13.3851449,2.59844069 C14.2774133,1.04087979 15.8952003,0 17.7428571,0 C19.7394115,0 21.4675541,1.2154028 22.3018911,2.98479133 C22.8938407,2.54268842 23.6081141,2.28441802 24.3771429,2.28441802 C26.4221744,2.28441802 28.08,4.11079086 28.08,6.36373592 C28.08,6.6434164 28.0544517,6.9165231 28.0057859,7.18037807 C28.0304741,7.17985971 28.0552127,7.1795995 28.08,7.1795995 C30.4658701,7.1795995 32.4,9.59041164 32.4,12.5642991 C32.4,15.5381866 30.4658701,17.9489987 28.08,17.9489987 C26.8842826,17.9489987 25.8020276,17.343481 25.0198335,16.3650324 L25.0198335,16.3650324 L25.0198335,16.3650324 Z" id="Combined-Shape" stroke="#223C05" fill="#576A38"></path>
                </g>
            </g>
        </g>
        <g id="egg" transform="translate(42.000000, 45.000000)">
            <path d="M21.0318263,1.84946136 C16.2279019,3.61928428 11.5868126,6.7161123 11.5868126,6.7161123 C11.5868126,6.7161123 3.82741827,12.9642669 2.14179893,17.4227444 C-0.680429178,24.8875617 -0.440033202,23.79799 1.28316133,28.1293764 C4.49713305,36.2079499 7.15891361,36.810008 15.0213631,43.2159944 C20.8971154,48.0033052 21.8124953,50.3948166 28.7595648,50.5159708 C35.7653564,50.6381491 37.0456886,49.009051 42.9270853,43.7026595 C47.5639993,39.5190817 45.9370235,36.3481478 49.7961862,31.5360321 C51.0792742,29.9361079 51.5682608,28.923706 52.2356095,28.1293764 C52.9104703,27.3261054 53.7559467,26.736153 53.6600555,24.2360557 C53.4214517,18.0151236 52.3007831,15.1185302 51.5134614,9.63610287 C50.7981672,4.65523066 44.1924395,3.61443791 39.9218537,1.36279626 C34.9620852,-1.25221303 24.814278,0.455961167 21.0318263,1.84946136 Z" id="Path-4" stroke-opacity="0.684669384" stroke="#F9D010" stroke-width="4" fill="#FFFCC1"></path>
            <ellipse id="Oval-2" fill="#FFD200" cx="31.1433319" cy="17.2551173" rx="11.5916077" ry="8.7599717"></ellipse>
        </g>
    </g>
</svg>