<svg width="112px" height="112px" viewBox="12166 770 112 112" version="1.1" xmlns="http://www.w3.org/2000/svg" xmlns:xlink="http://www.w3.org/1999/xlink">
    <!-- Generator: Sketch 40.1 (33804) - http://www.bohemiancoding.com/sketch -->
    <desc>Created with Sketch.</desc>
    <defs>
        <ellipse id="path-1" cx="42.591133" cy="42.7555556" rx="41.9211823" ry="41.9111111"></ellipse>
    </defs>
    <g id="svg-product1-alien" stroke="none" stroke-width="1" fill="none" fill-rule="evenodd" transform="translate(12166.000000, 770.000000)">
        <g id="Created-with-Sketch.">
            <g id="rectant-2" transform="translate(56.248768, 56.477778) rotate(180.000000) translate(-56.248768, -56.477778) translate(0.748768, 0.977778)">
                <ellipse id="Oval-7" fill="#DFDEDE" cx="55.2561576" cy="55.2428829" rx="55.2561576" ry="55.2428829"></ellipse>
                <g id="Oval-7-Clipped" transform="translate(13.000000, 12.000000)">
                    <mask id="mask-2" fill="white">
                        <use xlink:href="#path-1"></use>
                    </mask>
                    <g id="path-1"></g>
                    <g id="Oval-7" mask="url(#mask-2)" stroke="#FFFFFF" stroke-width="2" fill="#CCCBCB">
                        <ellipse id="path-1" cx="42.591133" cy="42.7555556" rx="41.9211823" ry="41.9111111"></ellipse>
                    </g>
                </g>
                <g id="Group-11" transform="translate(52.146440, 76.656553) rotate(51.000000) translate(-52.146440, -76.656553) translate(24.146440, 60.656553)">
                    <path d="M41.0836948,16.0619914 C41.0836948,16.0619914 43.0192551,1.73355827 25.0729527,7.37769651 C7.12665022,13.0218348 3.54558916,19.2927805 3.54558916,19.2927805 C-1.42152674,23.9483255 -0.0559192878,28.906694 6.68007395,29.9543135 C6.68007395,29.9543135 11.894045,32.4473357 29.4044247,30.084863 C46.9148044,27.7223903 41.0836948,16.0619914 41.0836948,16.0619914 Z" id="Path-9" fill="#F46C2F"></path>
                    <path d="M11.4811422,13.8577455 C11.4811422,13.8577455 15.5510961,16.2912813 14.2767975,23.5127117" id="Path-10" stroke="#C44815" stroke-width="3"></path>
                    <path d="M22.232946,8.81136062 C22.232946,8.81136062 29.3600623,12.0704357 27.3061115,20.797398" id="Path-11" stroke="#C44815" stroke-width="3"></path>
                    <path d="M43.5310673,16.601013 C43.5310673,16.601013 37.8885244,7.91596804 43.9828434,0.370842519 C50.9900294,7.91596804 43.5310673,16.601013 43.5310673,16.601013 Z" id="Path-12" fill="#6FA942" transform="translate(44.068071, 8.485928) rotate(30.000000) translate(-44.068071, -8.485928) "></path>
                    <path d="M46.6822629,25.3286011 C46.6822629,25.3286011 41.0397199,16.6435562 47.1340389,9.09843066 C54.1412249,16.6435562 46.6822629,25.3286011 46.6822629,25.3286011 Z" id="Path-12" fill="#6FA942" transform="translate(47.219267, 17.213516) rotate(102.000000) translate(-47.219267, -17.213516) "></path>
                </g>
                <g id="Group-11" transform="translate(78.201746, 52.187028) rotate(105.000000) translate(-78.201746, -52.187028) translate(50.201746, 36.187028)">
                    <path d="M41.0836948,16.0619914 C41.0836948,16.0619914 43.0192551,1.73355827 25.0729527,7.37769651 C7.12665022,13.0218348 3.54558916,19.2927805 3.54558916,19.2927805 C-1.42152674,23.9483255 -0.0559192878,28.906694 6.68007395,29.9543135 C6.68007395,29.9543135 11.894045,32.4473357 29.4044247,30.084863 C46.9148044,27.7223903 41.0836948,16.0619914 41.0836948,16.0619914 Z" id="Path-9" fill="#F46C2F"></path>
                    <path d="M11.4811422,13.8577455 C11.4811422,13.8577455 15.5510961,16.2912813 14.2767975,23.5127117" id="Path-10" stroke="#C44815" stroke-width="3"></path>
                    <path d="M22.232946,8.81136062 C22.232946,8.81136062 29.3600623,12.0704357 27.3061115,20.797398" id="Path-11" stroke="#C44815" stroke-width="3"></path>
                    <path d="M43.5310673,16.601013 C43.5310673,16.601013 37.8885244,7.91596804 43.9828434,0.370842519 C50.9900294,7.91596804 43.5310673,16.601013 43.5310673,16.601013 Z" id="Path-12" fill="#6FA942" transform="translate(44.068071, 8.485928) rotate(30.000000) translate(-44.068071, -8.485928) "></path>
                    <path d="M46.6822629,25.3286011 C46.6822629,25.3286011 41.0397199,16.6435562 47.1340389,9.09843066 C54.1412249,16.6435562 46.6822629,25.3286011 46.6822629,25.3286011 Z" id="Path-12" fill="#6FA942" transform="translate(47.219267, 17.213516) rotate(102.000000) translate(-47.219267, -17.213516) "></path>
                </g>
                <g id="Group-11" transform="translate(41.867342, 34.870889) rotate(323.000000) translate(-41.867342, -34.870889) translate(13.867342, 18.870889)">
                    <path d="M41.0836948,16.0619914 C41.0836948,16.0619914 43.0192551,1.73355827 25.0729527,7.37769651 C7.12665022,13.0218348 3.54558916,19.2927805 3.54558916,19.2927805 C-1.42152674,23.9483255 -0.0559192878,28.906694 6.68007395,29.9543135 C6.68007395,29.9543135 11.894045,32.4473357 29.4044247,30.084863 C46.9148044,27.7223903 41.0836948,16.0619914 41.0836948,16.0619914 Z" id="Path-9" fill="#F46C2F"></path>
                    <path d="M11.4811422,13.8577455 C11.4811422,13.8577455 15.5510961,16.2912813 14.2767975,23.5127117" id="Path-10" stroke="#C44815" stroke-width="3"></path>
                    <path d="M22.232946,8.81136062 C22.232946,8.81136062 29.3600623,12.0704357 27.3061115,20.797398" id="Path-11" stroke="#C44815" stroke-width="3"></path>
                    <path d="M43.5310673,16.601013 C43.5310673,16.601013 37.8885244,7.91596804 43.9828434,0.370842519 C50.9900294,7.91596804 43.5310673,16.601013 43.5310673,16.601013 Z" id="Path-12" fill="#6FA942" transform="translate(44.068071, 8.485928) rotate(30.000000) translate(-44.068071, -8.485928) "></path>
                    <path d="M46.6822629,25.3286011 C46.6822629,25.3286011 41.0397199,16.6435562 47.1340389,9.09843066 C54.1412249,16.6435562 46.6822629,25.3286011 46.6822629,25.3286011 Z" id="Path-12" fill="#6FA942" transform="translate(47.219267, 17.213516) rotate(102.000000) translate(-47.219267, -17.213516) "></path>
                </g>
            </g>
        </g>
    </g>
</svg>