
<svg width="112px" height="111px" viewBox="434 220 112 111" version="1.1" xmlns="http://www.w3.org/2000/svg" xmlns:xlink="http://www.w3.org/1999/xlink">
    <!-- Generator: Sketch 40.1 (33804) - http://www.bohemiancoding.com/sketch -->
    <desc>Created with Sketch.</desc>
    <defs>
        <ellipse id="path-1" cx="55.4774226" cy="55.2428829" rx="55.2561576" ry="55.2428829"></ellipse>
        <mask id="mask-2" maskContentUnits="userSpaceOnUse" maskUnits="objectBoundingBox" x="0" y="0" width="110.512315" height="110.485766" fill="white">
            <use xlink:href="#path-1"></use>
        </mask>
        <ellipse id="path-3" cx="54.9211823" cy="54.9111111" rx="41.9211823" ry="41.9111111"></ellipse>
        <mask id="mask-4" maskContentUnits="userSpaceOnUse" maskUnits="objectBoundingBox" x="0" y="0" width="83.8423645" height="83.8222222" fill="white">
            <use xlink:href="#path-3"></use>
        </mask>
    </defs>
    <g id="Group-9" stroke="none" stroke-width="1" fill="none" fill-rule="evenodd" transform="translate(434.500000, 220.000000)">
        <use id="Oval-7" stroke="#000000" mask="url(#mask-2)" stroke-width="10" fill="#FFFFFF" xlink:href="#path-1"></use>
        <use id="Oval-7" stroke="#000000" mask="url(#mask-4)" stroke-width="10" fill="#FFFFFF" xlink:href="#path-3"></use>
        <g id="Chicken" transform="translate(18.000000, 25.000000)">
            <path d="M19.9615165,19.5998923 L5.88165051,51.3444891 C5.88165051,51.3444891 4.76063496,50.6511714 3.70879513,50.6446684 C3.09725353,50.6408876 3.11619305,50.5865912 2.63245067,50.6446684 C1.99693665,50.7209671 1.03660939,51.0971356 0.848982049,51.8088475 C0.679891202,52.4502464 0.110124765,54.4859672 0.53122504,55.1499947 C1.41958848,56.5508433 0.848982049,56.0775042 2.63245067,57.9579468 C4.94154525,60.3925956 6.96471712,57.9579468 6.96471712,57.9579468 C6.96471712,57.9579468 7.83043887,59.6919066 9.11066429,60.7342207 C9.92944654,61.4008441 11.0927859,61.5372635 11.6527204,61.5103401 C12.4392937,61.4725191 13.3107165,61.4696186 14.1947764,59.9581013 C15.3890512,57.9161954 13.0189351,55.1499947 13.0189351,55.1499947 L26.4599161,24.8906584 L25.3768495,19.5998923 L19.9615165,19.5998923 Z" id="Path-6" fill="#FBECCC"></path>
            <path d="M5.82458853,27.237259 C7.22178658,17.5680925 6.26830035,20.5515203 9.60475816,12.3223492 C11.9100036,6.63660106 13.3849278,6.64047877 16.0019683,4.15466047 C18.9097911,2.02395906 19.3700614,1.77342942 22.9396045,0.958608357 C24.8006713,0.533781861 26.7104358,0.506483704 28.5484374,0.829566678 C30.8735838,1.23827969 31.5973162,2.71994704 33.448905,4.15466047 C35.9116795,6.06295426 38.3540658,10.412854 38.9737684,13.7428168 C38.9737684,21.5553886 40.2914022,20.7440834 37.519857,27.237259 C33.1672363,37.4345778 34.0096694,34.8807684 27.3424772,43.9277534 C24.8500276,47.3098599 19.757043,48.1365211 17.746662,49.6096238 C16.8492202,50.2672225 17.2637047,46.7072512 16.0019683,46.0584548 C14.5012731,45.2867836 13.5696177,47.6401107 12.2217987,46.7686886 C11.0979683,46.0420846 11.9766696,43.5334124 10.7678873,42.8624027 C8.77806454,41.7578279 7.13973772,44.7100366 6.69693537,42.8624027 C5.39504405,37.4301402 5.47709291,29.6420671 5.82458853,27.237259 Z" id="Path-5" fill="#8B572A"></path>
        </g>
        <g id="Chicken" transform="translate(75.586846, 56.196251) rotate(-182.000000) translate(-75.586846, -56.196251) translate(55.086846, 24.696251)">
            <path d="M20.4599084,20.7276046 L6.38004242,52.4722014 C6.38004242,52.4722014 5.25902687,51.7788836 4.20718705,51.7723807 C3.59564544,51.7685999 3.61458496,51.7143034 3.13084258,51.7723807 C2.49532857,51.8486794 1.5350013,52.2248479 1.34737396,52.9365598 C1.17828311,53.5779587 0.608516677,55.6136795 1.02961695,56.277707 C1.91798039,57.6785556 1.34737396,57.2052165 3.13084258,59.0856591 C5.43993716,61.5203079 7.46310903,59.0856591 7.46310903,59.0856591 C7.46310903,59.0856591 8.32883079,60.8196189 9.6090562,61.8619329 C10.4278385,62.5285564 11.5911778,62.6649758 12.1511123,62.6380523 C12.9376856,62.6002314 13.8091085,62.5973309 14.6931684,61.0858135 C15.8874431,59.0439077 13.517327,56.277707 13.517327,56.277707 L26.9583081,26.0183707 L25.8752414,20.7276046 L20.4599084,20.7276046 Z" id="Path-6" fill="#FBECCC"></path>
            <path d="M7.09769954,26.6267081 C8.49489758,16.9575416 7.54141135,19.9409694 10.8778692,11.7117983 C13.1831146,6.02605016 14.6580388,6.02992788 17.2750793,3.54410957 C20.1829021,1.41340816 20.6431724,1.16287853 24.2127155,0.348057461 C26.0737823,-0.076769035 27.9835468,-0.104067192 29.8215484,0.219015782 C32.1466948,0.627728799 32.8704272,2.10939614 34.7220161,3.54410957 C37.1847905,5.45240337 39.6271768,9.80230311 40.2468794,13.1322659 C40.2468794,20.9448377 41.5645132,20.1335325 38.792968,26.6267081 C34.4403473,36.8240269 35.2827804,34.2702175 28.6155882,43.3172025 C26.1231386,46.699309 21.030154,47.5259702 19.019773,48.9990729 C18.1223312,49.6566716 18.5368157,46.0967003 17.2750793,45.4479039 C15.7743841,44.6762327 14.8427287,47.0295598 13.4949097,46.1581377 C12.3710793,45.4315337 13.2497806,42.9228615 12.0409983,42.2518518 C10.0511755,41.147277 8.41284872,44.0994857 7.97004638,42.2518518 C6.66815505,36.8195893 6.75020391,29.0315162 7.09769954,26.6267081 Z" id="Path-5" fill="#8B572A"></path>
        </g>
    </g>
</svg>