<svg width="57px" height="54px" viewBox="11637 811 172 162" version="1.1" xmlns="http://www.w3.org/2000/svg" xmlns:xlink="http://www.w3.org/1999/xlink">
    <!-- Generator: Sketch 40.1 (33804) - http://www.bohemiancoding.com/sketch -->
    <desc>Created with Sketch.</desc>
    <defs></defs>
    <g id="Group-11" stroke="none" stroke-width="1" fill="none" fill-rule="evenodd" transform="translate(11727.860834, 888.969233) rotate(-40.000000) translate(-11727.860834, -888.969233) translate(11655.360834, 849.469233)">
        <path d="M107.563606,40.9115731 C107.563606,40.9115731 112.493681,4.41555433 66.7825707,18.7917651 C21.0714603,33.1679758 5.4690812,54.5492953 5.4690812,54.5492953 C-3.60330221,63.4203879 -0.925685321,72.905191 11.5927044,75.1354819 C11.5927044,75.1354819 33.2145137,82.6467595 77.8152832,76.6292944 C122.416053,70.6118293 107.563606,40.9115731 107.563606,40.9115731 Z" id="Path-9" fill="#F46C2F"></path>
        <path d="M32.162807,35.2971279 C32.162807,35.2971279 42.5294057,41.4955984 39.2836336,59.8893371" id="Path-10" stroke="#C44815" stroke-width="5"></path>
        <path d="M59.5487766,22.4434576 C59.5487766,22.4434576 77.7022875,30.7446628 72.4706598,52.973149" id="Path-11" stroke="#C44815" stroke-width="5"></path>
        <path d="M113.79732,42.2845173 C113.79732,42.2845173 99.425173,20.162799 114.948041,0.944574704 C132.796077,20.162799 113.79732,42.2845173 113.79732,42.2845173 Z" id="Path-12" fill="#6FA942" transform="translate(115.165126, 21.614546) rotate(30.000000) translate(-115.165126, -21.614546) "></path>
        <path d="M121.823745,64.5145976 C121.823745,64.5145976 107.451598,42.3928793 122.974466,23.174655 C140.822502,42.3928793 121.823745,64.5145976 121.823745,64.5145976 Z" id="Path-12" fill="#6FA942" transform="translate(123.191551, 43.844626) rotate(102.000000) translate(-123.191551, -43.844626) "></path>
    </g>
</svg>