<svg width="112px" height="112px" viewBox="12260 655 112 112" version="1.1" xmlns="http://www.w3.org/2000/svg" xmlns:xlink="http://www.w3.org/1999/xlink">
    <!-- Generator: Sketch 40.1 (33804) - http://www.bohemiancoding.com/sketch -->
    <desc>Created with Sketch.</desc>
    <defs>
        <ellipse id="path-1" cx="55.135468" cy="55.1222222" rx="55.135468" ry="55.1222222"></ellipse>
        <ellipse id="path-3" cx="43.591133" cy="43.6666667" rx="42.8325123" ry="42.8222222"></ellipse>
    </defs>
    <g id="Group-14" stroke="none" stroke-width="1" fill="none" fill-rule="evenodd" transform="translate(12261.000000, 655.000000)">
        <g id="svg-product2">
            <g id="Created-with-Sketch.">
                <g id="rectant-2" transform="translate(55.500000, 56.477778) rotate(180.000000) translate(-55.500000, -56.477778) translate(0.000000, 0.977778)">
                    <g id="the-party-icons-50">
                        <g id="Mask" fill="#F4D9D3">
                            <ellipse id="path-1" cx="55.135468" cy="55.1222222" rx="55.135468" ry="55.1222222"></ellipse>
                        </g>
                        <g id="Oval-7-Clipped">
                            <mask id="mask-2" fill="white">
                                <use xlink:href="#path-1"></use>
                            </mask>
                            <g id="path-1"></g>
                            <g id="Oval-7" mask="url(#mask-2)">
                                <g transform="translate(12.000000, 11.000000)" id="Clipped">
                                    <g>
                                        <mask id="mask-4" fill="white">
                                            <use xlink:href="#path-3"></use>
                                        </mask>
                                        <g id="path-3"></g>
                                        <ellipse id="path-3" stroke="#FFFFFF" stroke-width="2" fill="#EEC0B7" mask="url(#mask-4)" cx="43.591133" cy="43.6666667" rx="42.8325123" ry="42.8222222"></ellipse>
                                    </g>
                                </g>
                            </g>
                        </g>
                    </g>
                </g>
            </g>
        </g>
        <g id="Group-11" transform="translate(43.055306, 42.829213) rotate(51.000000) translate(-43.055306, -42.829213) translate(15.055306, 26.829213)">
            <path d="M41.0836948,16.0619914 C41.0836948,16.0619914 43.0192551,1.73355827 25.0729527,7.37769651 C7.12665022,13.0218348 3.54558916,19.2927805 3.54558916,19.2927805 C-1.42152674,23.9483255 -0.0559192878,28.906694 6.68007395,29.9543135 C6.68007395,29.9543135 11.894045,32.4473357 29.4044247,30.084863 C46.9148044,27.7223903 41.0836948,16.0619914 41.0836948,16.0619914 Z" id="Path-9" fill="#F46C2F"></path>
            <path d="M11.4811422,13.8577455 C11.4811422,13.8577455 15.5510961,16.2912813 14.2767975,23.5127117" id="Path-10" stroke="#C44815" stroke-width="3"></path>
            <path d="M22.232946,8.81136062 C22.232946,8.81136062 29.3600623,12.0704357 27.3061115,20.797398" id="Path-11" stroke="#C44815" stroke-width="3"></path>
            <path d="M43.5310673,16.601013 C43.5310673,16.601013 37.8885244,7.91596804 43.9828434,0.370842519 C50.9900294,7.91596804 43.5310673,16.601013 43.5310673,16.601013 Z" id="Path-12" fill="#6FA942" transform="translate(44.068071, 8.485928) rotate(30.000000) translate(-44.068071, -8.485928) "></path>
            <path d="M46.6822629,25.3286011 C46.6822629,25.3286011 41.0397199,16.6435562 47.1340389,9.09843066 C54.1412249,16.6435562 46.6822629,25.3286011 46.6822629,25.3286011 Z" id="Path-12" fill="#6FA942" transform="translate(47.219267, 17.213516) rotate(102.000000) translate(-47.219267, -17.213516) "></path>
        </g>
        <g id="Group-11" transform="translate(72.990835, 72.628989) rotate(323.000000) translate(-72.990835, -72.628989) translate(44.990835, 56.628989)">
            <path d="M41.0836948,16.0619914 C41.0836948,16.0619914 43.0192551,1.73355827 25.0729527,7.37769651 C7.12665022,13.0218348 3.54558916,19.2927805 3.54558916,19.2927805 C-1.42152674,23.9483255 -0.0559192878,28.906694 6.68007395,29.9543135 C6.68007395,29.9543135 11.894045,32.4473357 29.4044247,30.084863 C46.9148044,27.7223903 41.0836948,16.0619914 41.0836948,16.0619914 Z" id="Path-9" fill="#F46C2F"></path>
            <path d="M11.4811422,13.8577455 C11.4811422,13.8577455 15.5510961,16.2912813 14.2767975,23.5127117" id="Path-10" stroke="#C44815" stroke-width="3"></path>
            <path d="M22.232946,8.81136062 C22.232946,8.81136062 29.3600623,12.0704357 27.3061115,20.797398" id="Path-11" stroke="#C44815" stroke-width="3"></path>
            <path d="M43.5310673,16.601013 C43.5310673,16.601013 37.8885244,7.91596804 43.9828434,0.370842519 C50.9900294,7.91596804 43.5310673,16.601013 43.5310673,16.601013 Z" id="Path-12" fill="#6FA942" transform="translate(44.068071, 8.485928) rotate(30.000000) translate(-44.068071, -8.485928) "></path>
            <path d="M46.6822629,25.3286011 C46.6822629,25.3286011 41.0397199,16.6435562 47.1340389,9.09843066 C54.1412249,16.6435562 46.6822629,25.3286011 46.6822629,25.3286011 Z" id="Path-12" fill="#6FA942" transform="translate(47.219267, 17.213516) rotate(102.000000) translate(-47.219267, -17.213516) "></path>
        </g>
    </g>
</svg>