
<svg width="53px" height="70px" viewBox="762 158 53 70" version="1.1" xmlns="http://www.w3.org/2000/svg" xmlns:xlink="http://www.w3.org/1999/xlink">
    <!-- Generator: Sketch 40.1 (33804) - http://www.bohemiancoding.com/sketch -->
    <desc>Created with Sketch.</desc>
    <defs></defs>
    <g id="Chicken" stroke="none" stroke-width="1" fill="none" fill-rule="evenodd" transform="translate(788.133841, 192.832841) rotate(-11.000000) translate(-788.133841, -192.832841) translate(767.633841, 161.332841)">
        <path d="M19.7480484,20.1791045 L5.66818248,51.9237013 C5.66818248,51.9237013 4.54716692,51.2303835 3.4953271,51.2238806 C2.8837855,51.2200998 2.90272502,51.1658033 2.41898264,51.2238806 C1.78346862,51.3001793 0.823141358,51.6763478 0.635514019,52.3880597 C0.466423171,53.0294586 -0.103343266,55.0651794 0.317757009,55.7292069 C1.20612045,57.1300555 0.635514019,56.6567164 2.41898264,58.537159 C4.72807722,60.9718078 6.75124909,58.537159 6.75124909,58.537159 C6.75124909,58.537159 7.61697084,60.2711188 8.89719626,61.3134328 C9.71597851,61.9800563 10.8793179,62.1164757 11.4392523,62.0895522 C12.2258256,62.0517313 13.0972485,62.0488308 13.9813084,60.5373134 C15.1755832,58.4954076 12.805467,55.7292069 12.805467,55.7292069 L26.2464481,25.4698706 L25.1633815,20.1791045 L19.7480484,20.1791045 Z" id="Path-6" fill="#FBECCC"></path>
        <path d="M6.57519097,26.6267081 C7.97238902,16.9575416 7.01890279,19.9409694 10.3553606,11.7117983 C12.660606,6.02605016 14.1355302,6.02992788 16.7525707,3.54410957 C19.6603935,1.41340816 20.1206639,1.16287853 23.6902069,0.348057461 C25.5512738,-0.076769035 27.4610382,-0.104067192 29.2990399,0.219015782 C31.6241862,0.627728799 32.3479186,2.10939614 34.1995075,3.54410957 C36.662282,5.45240337 39.1046682,9.80230311 39.7243708,13.1322659 C39.7243708,20.9448377 41.0420046,20.1335325 38.2704594,26.6267081 C33.9178388,36.8240269 34.7602718,34.2702175 28.0930796,43.3172025 C25.60063,46.699309 20.5076454,47.5259702 18.4972644,48.9990729 C17.5998226,49.6566716 18.0143072,46.0967003 16.7525707,45.4479039 C15.2518755,44.6762327 14.3202201,47.0295598 12.9724011,46.1581377 C11.8485708,45.4315337 12.727272,42.9228615 11.5184897,42.2518518 C9.52866698,41.147277 7.89034016,44.0994857 7.44753781,42.2518518 C6.14564649,36.8195893 6.22769535,29.0315162 6.57519097,26.6267081 Z" id="Path-5" fill="#8B572A"></path>
    </g>
</svg>