<svg width="151px" height="151px" viewBox="11913 761 151 151" version="1.1" xmlns="http://www.w3.org/2000/svg" xmlns:xlink="http://www.w3.org/1999/xlink">
    <!-- Generator: Sketch 40.1 (33804) - http://www.bohemiancoding.com/sketch -->
    <desc>Created with Sketch.</desc>
    <defs>
        <rect id="path-1" x="0.48170732" y="0.11650485" width="96.0365854" height="92.7669903" rx="15"></rect>
    </defs>
    <g id="svg-reactant2" stroke="none" stroke-width="1" fill="none" fill-rule="evenodd" transform="translate(11914.000000, 762.000000)">
        <g id="Created-with-Sketch.">
            <g id="reactant2" transform="translate(75.179756, 74.500000) rotate(-45.000000) translate(-75.179756, -74.500000) translate(22.679756, 22.000000)">
                <g id="Group-8" transform="translate(-0.000000, -0.000000)">
                    <rect id="Rectangle-9" fill="#4A6278" x="0" y="0" width="105" height="105" rx="17"></rect>
                    <g id="Rectangle-9-Clipped" transform="translate(4.000000, 6.000000)">
                        <mask id="mask-2" fill="white">
                            <use xlink:href="#path-1"></use>
                        </mask>
                        <g id="path-1"></g>
                        <g id="Rectangle-9" mask="url(#mask-2)" stroke="#1E3951" stroke-width="6" fill="#2C4154">
                            <rect id="path-1" x="0.48170732" y="0.11650485" width="96.0365854" height="92.7669903" rx="15"></rect>
                        </g>
                    </g>
                </g>
                <g id="Group-11" transform="translate(56.557944, 54.964917) rotate(75.000000) translate(-56.557944, -54.964917) translate(14.557944, 31.464917)">
                    <path d="M61.809223,24.1647986 C61.809223,24.1647986 64.7212171,2.60808796 37.7215275,11.0995297 C10.7218378,19.5909714 5.32208771,29.035163 5.32208771,29.035163 C-2.14408444,36.0339177 -0.0841289409,43.4892797 10.0499768,45.0653928 C10.0499768,45.0653928 17.8942445,48.8160721 44.238101,45.2618007 C70.5819576,41.7075294 61.809223,24.1647986 61.809223,24.1647986 Z" id="Path-9" fill="#F46C2F"></path>
                    <path d="M17.2730442,20.8485747 C17.2730442,20.8485747 23.3961715,24.5097586 21.4790263,35.3741903" id="Path-10" stroke="#C44815" stroke-width="5"></path>
                    <path d="M33.4488202,13.2564356 C33.4488202,13.2564356 44.1713591,18.1596191 41.0812499,31.2890799" id="Path-11" stroke="#C44815" stroke-width="5"></path>
                    <path d="M65.4912237,24.9757408 C65.4912237,24.9757408 57.0021821,11.9093435 66.1709076,0.557921776 C76.713015,11.9093435 65.4912237,24.9757408 65.4912237,24.9757408 Z" id="Path-12" fill="#6FA942" transform="translate(66.299131, 12.766831) rotate(30.000000) translate(-66.299131, -12.766831) "></path>
                    <path d="M70.2321057,38.1061431 C70.2321057,38.1061431 61.7430641,25.0397458 70.9117896,13.6883241 C81.453897,25.0397458 70.2321057,38.1061431 70.2321057,38.1061431 Z" id="Path-12" fill="#6FA942" transform="translate(71.040013, 25.897234) rotate(102.000000) translate(-71.040013, -25.897234) "></path>
                </g>
            </g>
        </g>
    </g>
</svg>