
<svg width="112px" height="112px" viewBox="12509 1395 112 112" version="1.1" xmlns="http://www.w3.org/2000/svg" xmlns:xlink="http://www.w3.org/1999/xlink">
    <!-- Generator: Sketch 40.1 (33804) - http://www.bohemiancoding.com/sketch -->
    <desc>Created with Sketch.</desc>
    <defs>
        <ellipse id="path-1" cx="55.135468" cy="55.1222222" rx="55.135468" ry="55.1222222"></ellipse>
        <ellipse id="path-3" cx="43.591133" cy="43.6666667" rx="42.8325123" ry="42.8222222"></ellipse>
    </defs>
    <g id="Group-30" stroke="none" stroke-width="1" fill="none" fill-rule="evenodd" transform="translate(12510.000000, 1395.000000)">
        <g id="rectant-2" transform="translate(55.500000, 55.500000) rotate(180.000000) translate(-55.500000, -55.500000) ">
            <g id="the-party-icons-50">
                <g id="Mask" fill="#F4D9D3">
                    <ellipse id="path-1" cx="55.135468" cy="55.1222222" rx="55.135468" ry="55.1222222"></ellipse>
                </g>
                <g id="Oval-7-Clipped">
                    <mask id="mask-2" fill="white">
                        <use xlink:href="#path-1"></use>
                    </mask>
                    <g id="path-1"></g>
                    <g id="Oval-7" mask="url(#mask-2)">
                        <g transform="translate(12.000000, 11.000000)" id="Clipped">
                            <g>
                                <mask id="mask-4" fill="white">
                                    <use xlink:href="#path-3"></use>
                                </mask>
                                <g id="path-3"></g>
                                <ellipse id="path-3" stroke="#FFFFFF" stroke-width="2" fill="#EEC0B7" mask="url(#mask-4)" cx="43.591133" cy="43.6666667" rx="42.8325123" ry="42.8222222"></ellipse>
                            </g>
                        </g>
                    </g>
                </g>
            </g>
        </g>
        <g id="Created-with-Sketch." transform="translate(37.000000, 11.000000)">
            <g id="Atom" transform="translate(0.463636, 0.000000)">
                <ellipse id="Oval-4" fill="#A054E2" cx="22.5327273" cy="22.5" rx="22.5327273" ry="22.5"></ellipse>
                <path d="M40.0669479,31.7061902 C39.9996986,36.4143659 33.5791434,36.2118964 24.9789253,31.2418014 C15.4793388,26.2582742 5.84925298,18.3768558 4.21063216,13.6503211" id="Oval-5" stroke-opacity="0.416808197" stroke="#FFFFFF" transform="translate(22.138790, 24.378988) scale(-1, 1) translate(-22.138790, -24.378988) "></path>
                <path d="M4.39044635,13.1917467 C2.67832863,8.46521208 10.9952635,8.69828658 22.2486652,13.7001727 C32.6279305,18.6886267 40.4699123,26.5394402 40.4887762,31.2476159" id="Oval-5" stroke-opacity="0.416808197" stroke="#FFFFFF"></path>
                <g id="Fe" transform="translate(11.352727, 5.500000)" font-size="28" font-family=".SFNSText-Bold, .SF NS Text" fill="#FFFFFF" font-weight="bold">
                    <g id="Group">
                        <text id="N">
                            <tspan x="0.0804662051" y="27.0802448">N</tspan>
                        </text>
                    </g>
                </g>
                <path d="M40.5076578,31.7061902 C40.4404085,36.4143659 34.0198533,36.2118964 25.4196352,31.2418014 C15.9200487,26.2582742 6.28996289,18.3768558 4.65134208,13.6503211" id="Oval-5" stroke-opacity="0.416808197" stroke="#FFFFFF"></path>
                <path d="M4.39044637,13.1917467 C2.67832866,8.46521208 10.9952636,8.69828658 22.2486652,13.7001727 C32.6279305,18.6886267 40.4699123,26.5394402 40.4887762,31.2476159" id="Oval-5" stroke-opacity="0.416808197" stroke="#FFFFFF" transform="translate(22.327692, 20.520060) scale(-1, 1) translate(-22.327692, -20.520060) "></path>
            </g>
        </g>
        <g id="Created-with-Sketch." transform="translate(6.000000, 39.000000)">
            <g id="Atom" transform="translate(0.335397, 0.000000)">
                <ellipse id="Oval-4" fill="#46ECC7" cx="16.3002708" cy="16.5" rx="16.3002708" ry="16.5"></ellipse>
                <path d="M28.9846006,23.2512061 C28.9359522,26.7038683 24.2912952,26.5553907 18.0698609,22.9106544 C11.1978195,19.2560678 4.2313745,13.4763609 3.04598922,10.0102355" id="Oval-5" stroke-opacity="0.416808197" stroke="#FFFFFF" transform="translate(16.015295, 17.877924) scale(-1, 1) translate(-16.015295, -17.877924) "></path>
                <path d="M3.17606757,9.67394762 C1.93751433,6.20782219 7.95402044,6.37874349 16.0947791,10.0467933 C23.6031838,13.7049929 29.2761068,19.4622561 29.289753,22.9149183" id="Oval-5" stroke-opacity="0.416808197" stroke="#FFFFFF"></path>
                <g id="Fe" transform="translate(11.106228, 4.033333)" font-size="20" font-family=".SFNSText-Bold, .SF NS Text" fill="#4B4B4B" font-weight="bold">
                    <g id="Group">
                        <text id="F">
                            <tspan x="0.0582095952" y="19.0588462">F</tspan>
                        </text>
                    </g>
                </g>
                <path d="M29.303412,23.2512061 C29.2547636,26.7038683 24.6101066,26.5553907 18.3886723,22.9106544 C11.516631,19.2560678 4.55018592,13.4763609 3.36480065,10.0102355" id="Oval-5" stroke-opacity="0.416808197" stroke="#FFFFFF"></path>
                <path d="M3.17606759,9.67394762 C1.93751435,6.20782219 7.95402044,6.37874349 16.0947791,10.0467933 C23.6031838,13.7049929 29.2761068,19.4622561 29.289753,22.9149183" id="Oval-5" stroke-opacity="0.416808197" stroke="#FFFFFF" transform="translate(16.151948, 15.048044) scale(-1, 1) translate(-16.151948, -15.048044) "></path>
            </g>
        </g>
        <g id="Created-with-Sketch." transform="translate(37.000000, 66.000000)">
            <g id="Atom" transform="translate(0.335397, 0.000000)">
                <ellipse id="Oval-4" fill="#46ECC7" cx="16.3002708" cy="16.5" rx="16.3002708" ry="16.5"></ellipse>
                <path d="M28.9846006,23.2512061 C28.9359522,26.7038683 24.2912952,26.5553907 18.0698609,22.9106544 C11.1978195,19.2560678 4.2313745,13.4763609 3.04598922,10.0102355" id="Oval-5" stroke-opacity="0.416808197" stroke="#FFFFFF" transform="translate(16.015295, 17.877924) scale(-1, 1) translate(-16.015295, -17.877924) "></path>
                <path d="M3.17606757,9.67394762 C1.93751433,6.20782219 7.95402044,6.37874349 16.0947791,10.0467933 C23.6031838,13.7049929 29.2761068,19.4622561 29.289753,22.9149183" id="Oval-5" stroke-opacity="0.416808197" stroke="#FFFFFF"></path>
                <g id="Fe" transform="translate(11.106228, 4.033333)" font-size="20" font-family=".SFNSText-Bold, .SF NS Text" fill="#4B4B4B" font-weight="bold">
                    <g id="Group">
                        <text id="F">
                            <tspan x="0.0582095952" y="19.0588462">F</tspan>
                        </text>
                    </g>
                </g>
                <path d="M29.303412,23.2512061 C29.2547636,26.7038683 24.6101066,26.5553907 18.3886723,22.9106544 C11.516631,19.2560678 4.55018592,13.4763609 3.36480065,10.0102355" id="Oval-5" stroke-opacity="0.416808197" stroke="#FFFFFF"></path>
                <path d="M3.17606759,9.67394762 C1.93751435,6.20782219 7.95402044,6.37874349 16.0947791,10.0467933 C23.6031838,13.7049929 29.2761068,19.4622561 29.289753,22.9149183" id="Oval-5" stroke-opacity="0.416808197" stroke="#FFFFFF" transform="translate(16.151948, 15.048044) scale(-1, 1) translate(-16.151948, -15.048044) "></path>
            </g>
        </g>
        <g id="Created-with-Sketch." transform="translate(74.000000, 45.000000)">
            <g id="Atom" transform="translate(0.335397, 0.000000)">
                <ellipse id="Oval-4" fill="#46ECC7" cx="16.3002708" cy="16.5" rx="16.3002708" ry="16.5"></ellipse>
                <path d="M28.9846006,23.2512061 C28.9359522,26.7038683 24.2912952,26.5553907 18.0698609,22.9106544 C11.1978195,19.2560678 4.2313745,13.4763609 3.04598922,10.0102355" id="Oval-5" stroke-opacity="0.416808197" stroke="#FFFFFF" transform="translate(16.015295, 17.877924) scale(-1, 1) translate(-16.015295, -17.877924) "></path>
                <path d="M3.17606757,9.67394762 C1.93751433,6.20782219 7.95402044,6.37874349 16.0947791,10.0467933 C23.6031838,13.7049929 29.2761068,19.4622561 29.289753,22.9149183" id="Oval-5" stroke-opacity="0.416808197" stroke="#FFFFFF"></path>
                <g id="Fe" transform="translate(11.106228, 4.033333)" font-size="20" font-family=".SFNSText-Bold, .SF NS Text" fill="#4B4B4B" font-weight="bold">
                    <g id="Group">
                        <text id="F">
                            <tspan x="0.0582095952" y="19.0588462">F</tspan>
                        </text>
                    </g>
                </g>
                <path d="M29.303412,23.2512061 C29.2547636,26.7038683 24.6101066,26.5553907 18.3886723,22.9106544 C11.516631,19.2560678 4.55018592,13.4763609 3.36480065,10.0102355" id="Oval-5" stroke-opacity="0.416808197" stroke="#FFFFFF"></path>
                <path d="M3.17606759,9.67394762 C1.93751435,6.20782219 7.95402044,6.37874349 16.0947791,10.0467933 C23.6031838,13.7049929 29.2761068,19.4622561 29.289753,22.9149183" id="Oval-5" stroke-opacity="0.416808197" stroke="#FFFFFF" transform="translate(16.151948, 15.048044) scale(-1, 1) translate(-16.151948, -15.048044) "></path>
            </g>
        </g>
    </g>
</svg>