
<svg width="151px" height="150px" viewBox="12017 1395 151 150" version="1.1" xmlns="http://www.w3.org/2000/svg" xmlns:xlink="http://www.w3.org/1999/xlink">
    <!-- Generator: Sketch 40.1 (33804) - http://www.bohemiancoding.com/sketch -->
    <desc>Created with Sketch.</desc>
    <defs>
        <rect id="path-1" x="0.48170732" y="0.11650485" width="96.0365854" height="92.7669903" rx="15"></rect>
    </defs>
    <g id="Group-32" stroke="none" stroke-width="1" fill="none" fill-rule="evenodd" transform="translate(12018.000000, 1395.000000)">
        <g id="Group-8" transform="translate(74.246212, 74.246212) rotate(-45.000000) translate(-74.246212, -74.246212) translate(21.746212, 21.746212)">
            <rect id="Rectangle-9" fill="#4A6278" x="-7.09832193e-12" y="7.3754336e-12" width="105" height="105" rx="17"></rect>
            <g id="Rectangle-9-Clipped" transform="translate(4.000000, 6.000000)">
                <g>
                    <mask id="mask-2" fill="white">
                        <use xlink:href="#path-1"></use>
                    </mask>
                    <g id="path-1"></g>
                    <g id="Rectangle-9" mask="url(#mask-2)" stroke="#1E3951" stroke-width="6" fill="#2C4154">
                        <rect id="path-1" x="0.48170732" y="0.11650485" width="96.0365854" height="92.7669903" rx="15"></rect>
                    </g>
                </g>
            </g>
        </g>
        <g id="svg-c-atom" transform="translate(49.000000, 48.000000)">
            <g id="Created-with-Sketch.">
                <g id="Atom">
                    <circle id="Oval-4" fill="#999999" cx="25.5" cy="26.5" r="25.5"></circle>
                    <path d="M45.3432537,36.9336823 C45.2671486,42.2696146 38.0010881,42.0401492 28.2683311,36.4073749 C17.5177703,30.7593775 6.61952497,21.8271032 4.7651187,16.4703639" id="Oval-5" stroke-opacity="0.515228714" stroke="#FFFFFF" transform="translate(25.054186, 28.629519) scale(-1, 1) translate(-25.054186, -28.629519) "></path>
                    <path d="M4.96861213,15.9506463 C3.03103035,10.593907 12.4431995,10.8580581 25.1785306,16.5268625 C36.9246128,22.1804437 45.7992835,31.0780323 45.8206316,36.4139646" id="Oval-5" stroke-opacity="0.515228714" stroke="#FFFFFF"></path>
                    <g id="C" transform="translate(10.900000, 0.400000)" font-size="40" font-family=".SFNSText-Bold, .SF NS Text" fill="#FACC39" font-weight="bold">
                        <g id="Group">
                            <text id="C">
                                <tspan x="0.84661819" y="39.8464997">C</tspan>
                            </text>
                        </g>
                    </g>
                    <path d="M45.8419996,36.9336823 C45.7658944,42.2696146 38.499834,42.0401492 28.7670769,36.4073749 C18.016516,30.7593775 7.11827076,21.8271032 5.26386449,16.4703639" id="Oval-5" stroke-opacity="0.515228714" stroke="#FFFFFF"></path>
                    <path d="M4.96861214,15.948527 C3.03103037,10.591233 12.4431995,10.8554114 25.1785306,16.5248028 C36.9246128,22.1789696 45.7992835,31.0774796 45.8206316,36.4139646" id="Oval-5" stroke-opacity="0.515228714" stroke="#FFFFFF" transform="translate(25.267965, 24.254809) scale(-1, 1) translate(-25.267965, -24.254809) "></path>
                </g>
            </g>
        </g>
    </g>
</svg>