
<svg width="112px" height="111px" viewBox="434 220 112 111" version="1.1" xmlns="http://www.w3.org/2000/svg" xmlns:xlink="http://www.w3.org/1999/xlink">
    <!-- Generator: Sketch 40.1 (33804) - http://www.bohemiancoding.com/sketch -->
    <desc>Created with Sketch.</desc>
    <defs>
        <ellipse id="path-1" cx="55.4774226" cy="55.2428829" rx="55.2561576" ry="55.2428829"></ellipse>
        <mask id="mask-2" maskContentUnits="userSpaceOnUse" maskUnits="objectBoundingBox" x="0" y="0" width="110.512315" height="110.485766" fill="white">
            <use xlink:href="#path-1"></use>
        </mask>
        <ellipse id="path-3" cx="54.9211823" cy="54.9111111" rx="41.9211823" ry="41.9111111"></ellipse>
        <mask id="mask-4" maskContentUnits="userSpaceOnUse" maskUnits="objectBoundingBox" x="0" y="0" width="83.8423645" height="83.8222222" fill="white">
            <use xlink:href="#path-3"></use>
        </mask>
    </defs>
    <g id="Group-9" stroke="none" stroke-width="1" fill="none" fill-rule="evenodd" transform="translate(434.500000, 220.000000)">
        <use id="Oval-7" stroke="#000000" mask="url(#mask-2)" stroke-width="10" fill="#FFFFFF" xlink:href="#path-1"></use>
        <use id="Oval-7" stroke="#000000" mask="url(#mask-4)" stroke-width="10" fill="#FFFFFF" xlink:href="#path-3"></use>
        <g id="egg" transform="translate(53.000000, 23.000000)">
            <path d="M17.64575,1.38849339 C13.6152465,2.71719778 9.72136207,5.04215862 9.72136207,5.04215862 C9.72136207,5.04215862 3.21121261,9.73299541 1.79697416,13.0802221 C-0.570881624,18.6844752 -0.369188855,17.8664732 1.07657526,21.1182856 C3.77310482,27.1833195 6.00634475,27.635318 12.6029577,32.4446479 C17.5327272,36.038748 18.300733,37.8341885 24.1293401,37.9251457 C30.0072151,38.0168718 31.0814167,36.7938173 36.0159219,32.8100144 C39.9063033,29.6691701 38.5412669,27.2885739 41.7791132,23.6758513 C43.9442587,21.2600262 45.1809185,21.9283841 45.0209082,18.1953535 C44.8207191,13.5249541 43.8804756,11.3503205 43.219911,7.23435776 C42.6197775,3.49494028 37.0775569,2.71355934 33.4945258,1.02312687 C29.3332687,-0.940105891 20.8192355,0.342315379 17.64575,1.38849339 Z" id="Path-4" fill="#FFFCC1"></path>
            <ellipse id="Oval-2" fill="#FFD200" cx="26.129326" cy="12.9543752" rx="9.72538516" ry="6.57659742"></ellipse>
        </g>
        <g id="egg" transform="translate(12.000000, 36.000000)">
            <path d="M17.64575,1.38849339 C13.6152465,2.71719778 9.72136207,5.04215862 9.72136207,5.04215862 C9.72136207,5.04215862 3.21121261,9.73299541 1.79697416,13.0802221 C-0.570881624,18.6844752 -0.369188855,17.8664732 1.07657526,21.1182856 C3.77310482,27.1833195 6.00634475,27.635318 12.6029577,32.4446479 C17.5327272,36.038748 18.300733,37.8341885 24.1293401,37.9251457 C30.0072151,38.0168718 31.0814167,36.7938173 36.0159219,32.8100144 C39.9063033,29.6691701 38.5412669,27.2885739 41.7791132,23.6758513 C43.9442587,21.2600262 45.1809185,21.9283841 45.0209082,18.1953535 C44.8207191,13.5249541 43.8804756,11.3503205 43.219911,7.23435776 C42.6197775,3.49494028 37.0775569,2.71355934 33.4945258,1.02312687 C29.3332687,-0.940105891 20.8192355,0.342315379 17.64575,1.38849339 Z" id="Path-4" fill="#FFFCC1"></path>
            <ellipse id="Oval-2" fill="#FFD200" cx="26.129326" cy="12.9543752" rx="9.72538516" ry="6.57659742"></ellipse>
        </g>
        <g id="egg" transform="translate(40.000000, 60.000000)">
            <path d="M17.64575,1.38849339 C13.6152465,2.71719778 9.72136207,5.04215862 9.72136207,5.04215862 C9.72136207,5.04215862 3.21121261,9.73299541 1.79697416,13.0802221 C-0.570881624,18.6844752 -0.369188855,17.8664732 1.07657526,21.1182856 C3.77310482,27.1833195 6.00634475,27.635318 12.6029577,32.4446479 C17.5327272,36.038748 18.300733,37.8341885 24.1293401,37.9251457 C30.0072151,38.0168718 31.0814167,36.7938173 36.0159219,32.8100144 C39.9063033,29.6691701 38.5412669,27.2885739 41.7791132,23.6758513 C43.9442587,21.2600262 45.1809185,21.9283841 45.0209082,18.1953535 C44.8207191,13.5249541 43.8804756,11.3503205 43.219911,7.23435776 C42.6197775,3.49494028 37.0775569,2.71355934 33.4945258,1.02312687 C29.3332687,-0.940105891 20.8192355,0.342315379 17.64575,1.38849339 Z" id="Path-4" fill="#FFFCC1"></path>
            <ellipse id="Oval-2" fill="#FFD200" cx="26.129326" cy="12.9543752" rx="9.72538516" ry="6.57659742"></ellipse>
        </g>
        <g id="Bacon-strip" transform="translate(57.784307, 55.928984) rotate(59.000000) translate(-57.784307, -55.928984) translate(41.284307, 36.928984)">
            <path d="M0.0829542376,33.7383793 C-0.471364061,33.1718441 1.92752906,32.1046385 2.0985781,32.049574 C2.0985781,32.049574 1.92394783,32.5736211 3.2677154,30.8892935 C4.98054664,28.7423678 5.47386231,25.2767784 5.47386231,25.2767784 C5.47386231,25.2767784 6.18588121,21.5318539 7.86028027,19.4310528 C9.54295787,17.3198649 12.1880156,16.8528005 12.1880156,16.8528005 C12.1880156,16.8528005 14.9738961,16.1493283 16.6485348,14.040513 C18.3303782,11.9226251 18.9009797,8.39939419 18.9009797,8.39939419 C18.9009797,8.39939419 19.6164789,4.69263184 21.3036779,2.58969381 C22.9859194,0.492934741 25.6398609,-1.70530257e-13 25.6398609,-1.70530257e-13 C25.6398609,-1.70530257e-13 28.1571402,1.02751587 29.81193,3.1119824 C31.4967885,5.23432524 32.3191574,8.41361875 32.3191574,8.41361875 C32.3191574,8.41361875 29.3843172,9.23330624 27.7270847,11.330065 C26.0527475,13.4484648 25.656018,16.8439359 25.656018,16.8439359 C25.656018,16.8439359 25.7893369,20.2307363 24.102472,22.3389437 C22.420901,24.4405349 19.2226053,24.811955 19.2226053,24.811955 C19.2226053,24.811955 16.2007194,25.7165904 14.5282586,27.8275608 C12.8463083,29.9505089 13.0165407,35.0049832 13.0165407,35.0049832 C13.0165407,35.0049832 9.68381546,37.9662313 6.63373181,37.9603924 C2.95329995,37.9533468 1.43804916,35.1233398 0.0829542376,33.7383793 Z" id="Path-3" fill="#F65656"></path>
            <path d="M2.01562387,35.8871118 C2.01562387,35.8871118 4.37392828,35.1206126 5.54296564,33.1428033 C6.5575208,31.4263511 6.88671488,28.9207901 6.88671488,28.9207901 C6.88671488,28.9207901 6.94814703,24.7724596 7.89452681,23.2210724 C8.87978657,21.6059497 10.749994,21.1100658 10.749994,21.1100658 C10.749994,21.1100658 12.2368091,20.6357544 13.6054611,19.6323612 C15.2602449,18.4191975 15.9097369,18.9225764 17.6367088,17.3102539 C18.8491884,16.1782679 18.6069546,15.2474201 19.4843641,13.9326434 C20.7905471,11.9753599 19.7410701,10.6655634 20.6601446,9.07732829 C21.6719582,7.32883265 20.7524108,6.56116729 21.6679566,5.4886171 C21.7446302,5.39879494 22.2571079,3.91209453 22.3398312,3.79981184 C23.3689325,2.40298296 23.1773545,3.48695125 24.0195178,2.11100658 C24.8570411,0.742642694 26.8749849,0.844402631 26.8749849,0.844402631 C26.8749849,0.844402631 28.7226401,2.11100658 29.5624834,3.16650987 C29.6192682,3.49955307 29.7431952,3.30411869 30.0663894,3.79981184 C28.5546715,5.06641579 27.2109222,5.06641579 27.2109222,5.06641579 C27.2109222,5.06641579 26.7577249,5.33814573 25.867173,6.33301974 C25.246007,7.02695099 25.1952983,7.59962368 25.1952983,7.59962368 C25.1952983,7.59962368 24.5949387,8.68646957 24.3554551,9.28842895 C24.0910327,9.95307352 24.3772481,10.9048859 24.0195178,11.3994355 C23.5374049,12.0659395 23.9177512,13.0740773 23.6835804,13.7215428 C23.4978295,14.2351309 22.3398312,15.410348 22.3398312,15.410348 L21.4999879,17.0991533 L19.98827,19.8434618 L16.2089753,22.1655691 C16.2089753,22.1655691 14.5065661,22.5035197 13.2695238,23.2210724 C11.7770754,24.0867746 11.4666915,23.6572832 10.749994,25.1209783 C10.1229423,26.4015917 10.9362185,26.8797042 10.4140566,28.0763875 C9.5084849,30.1517644 9.33181176,30.1676904 8.73437009,32.720602 C8.49196848,33.7564016 9.13868447,34.0264359 8.73437009,35.0427092 C8.29884119,36.1374425 6.88671488,37.9981184 6.88671488,37.9981184 C6.88671488,37.9981184 6.0265363,37.7475748 5.20702832,37.5759171 C3.50700646,37.2198231 2.01562387,35.8871118 2.01562387,35.8871118 Z" id="Path-2" fill="#EEBF77"></path>
        </g>
        <g id="Bacon-strip" transform="translate(6.000000, 18.000000)">
            <path d="M0.0829542376,33.7383793 C-0.471364061,33.1718441 1.92752906,32.1046385 2.0985781,32.049574 C2.0985781,32.049574 1.92394783,32.5736211 3.2677154,30.8892935 C4.98054664,28.7423678 5.47386231,25.2767784 5.47386231,25.2767784 C5.47386231,25.2767784 6.18588121,21.5318539 7.86028027,19.4310528 C9.54295787,17.3198649 12.1880156,16.8528005 12.1880156,16.8528005 C12.1880156,16.8528005 14.9738961,16.1493283 16.6485348,14.040513 C18.3303782,11.9226251 18.9009797,8.39939419 18.9009797,8.39939419 C18.9009797,8.39939419 19.6164789,4.69263184 21.3036779,2.58969381 C22.9859194,0.492934741 25.6398609,0 25.6398609,0 C25.6398609,0 28.1571402,1.02751587 29.81193,3.1119824 C31.4967885,5.23432524 32.3191574,8.41361875 32.3191574,8.41361875 C32.3191574,8.41361875 29.3843172,9.23330624 27.7270847,11.330065 C26.0527475,13.4484648 25.656018,16.8439359 25.656018,16.8439359 C25.656018,16.8439359 25.7893369,20.2307363 24.102472,22.3389437 C22.420901,24.4405349 19.2226053,24.811955 19.2226053,24.811955 C19.2226053,24.811955 16.2007194,25.7165904 14.5282586,27.8275608 C12.8463083,29.9505089 13.0165407,35.0049832 13.0165407,35.0049832 C13.0165407,35.0049832 9.68381546,37.9662313 6.63373181,37.9603924 C2.95329995,37.9533468 1.43804916,35.1233398 0.0829542376,33.7383793 Z" id="Path-3" fill="#F65656"></path>
            <path d="M2.01562387,35.8871118 C2.01562387,35.8871118 4.37392828,35.1206126 5.54296564,33.1428033 C6.5575208,31.4263511 6.88671488,28.9207901 6.88671488,28.9207901 C6.88671488,28.9207901 6.94814703,24.7724596 7.89452681,23.2210724 C8.87978657,21.6059497 10.749994,21.1100658 10.749994,21.1100658 C10.749994,21.1100658 12.2368091,20.6357544 13.6054611,19.6323612 C15.2602449,18.4191975 15.9097369,18.9225764 17.6367088,17.3102539 C18.8491884,16.1782679 18.6069546,15.2474201 19.4843641,13.9326434 C20.7905471,11.9753599 19.7410701,10.6655634 20.6601446,9.07732829 C21.6719582,7.32883265 20.7524108,6.56116729 21.6679566,5.4886171 C21.7446302,5.39879494 22.2571079,3.91209453 22.3398312,3.79981184 C23.3689325,2.40298296 23.1773545,3.48695125 24.0195178,2.11100658 C24.8570411,0.742642694 26.8749849,0.844402631 26.8749849,0.844402631 C26.8749849,0.844402631 28.7226401,2.11100658 29.5624834,3.16650987 C29.6192682,3.49955307 29.7431952,3.30411869 30.0663894,3.79981184 C28.5546715,5.06641579 27.2109222,5.06641579 27.2109222,5.06641579 C27.2109222,5.06641579 26.7577249,5.33814573 25.867173,6.33301974 C25.246007,7.02695099 25.1952983,7.59962368 25.1952983,7.59962368 C25.1952983,7.59962368 24.5949387,8.68646957 24.3554551,9.28842895 C24.0910327,9.95307352 24.3772481,10.9048859 24.0195178,11.3994355 C23.5374049,12.0659395 23.9177512,13.0740773 23.6835804,13.7215428 C23.4978295,14.2351309 22.3398312,15.410348 22.3398312,15.410348 L21.4999879,17.0991533 L19.98827,19.8434618 L16.2089753,22.1655691 C16.2089753,22.1655691 14.5065661,22.5035197 13.2695238,23.2210724 C11.7770754,24.0867746 11.4666915,23.6572832 10.749994,25.1209783 C10.1229423,26.4015917 10.9362185,26.8797042 10.4140566,28.0763875 C9.5084849,30.1517644 9.33181176,30.1676904 8.73437009,32.720602 C8.49196848,33.7564016 9.13868447,34.0264359 8.73437009,35.0427092 C8.29884119,36.1374425 6.88671488,37.9981184 6.88671488,37.9981184 C6.88671488,37.9981184 6.0265363,37.7475748 5.20702832,37.5759171 C3.50700646,37.2198231 2.01562387,35.8871118 2.01562387,35.8871118 Z" id="Path-2" fill="#EEBF77"></path>
        </g>
        <g id="Bacon" transform="translate(53.000000, 31.413961) rotate(-305.000000) translate(-53.000000, -31.413961) translate(36.500000, 12.413961)">
            <path d="M0.0829542376,33.7383793 C-0.471364061,33.1718441 1.92752906,32.1046385 2.0985781,32.049574 C2.0985781,32.049574 1.92394783,32.5736211 3.2677154,30.8892935 C4.98054664,28.7423678 5.47386231,25.2767784 5.47386231,25.2767784 C5.47386231,25.2767784 6.18588121,21.5318539 7.86028027,19.4310528 C9.54295787,17.3198649 12.1880156,16.8528005 12.1880156,16.8528005 C12.1880156,16.8528005 14.9738961,16.1493283 16.6485348,14.040513 C18.3303782,11.9226251 18.9009797,8.39939419 18.9009797,8.39939419 C18.9009797,8.39939419 19.6164789,4.69263184 21.3036779,2.58969381 C22.9859194,0.492934741 25.6398609,7.10542736e-14 25.6398609,7.10542736e-14 C25.6398609,7.10542736e-14 28.1571402,1.02751587 29.81193,3.1119824 C31.4967885,5.23432524 32.3191574,8.41361875 32.3191574,8.41361875 C32.3191574,8.41361875 29.3843172,9.23330624 27.7270847,11.330065 C26.0527475,13.4484648 25.656018,16.8439359 25.656018,16.8439359 C25.656018,16.8439359 25.7893369,20.2307363 24.102472,22.3389437 C22.420901,24.4405349 19.2226053,24.811955 19.2226053,24.811955 C19.2226053,24.811955 16.2007194,25.7165904 14.5282586,27.8275608 C12.8463083,29.9505089 13.0165407,35.0049832 13.0165407,35.0049832 C13.0165407,35.0049832 9.68381546,37.9662313 6.63373181,37.9603924 C2.95329995,37.9533468 1.43804916,35.1233398 0.0829542376,33.7383793 Z" id="Path-3" fill="#F65656"></path>
            <path d="M2.73399015,35.0444151 C2.73399015,35.0444151 5.09229456,34.2779159 6.26133192,32.3001065 C7.27588708,30.5836544 7.60508116,28.0780934 7.60508116,28.0780934 C7.60508116,28.0780934 7.66651331,23.9297629 8.61289309,22.3783756 C9.59815285,20.763253 11.4683602,20.267369 11.4683602,20.267369 C11.4683602,20.267369 12.9551754,19.7930577 14.3238274,18.7896644 C15.9786112,17.5765008 16.6281032,18.0798797 18.3550751,16.4675572 C19.5675547,15.3355711 19.3253209,14.4047234 20.2027303,13.0899467 C21.5089134,11.1326632 20.4594364,9.82286663 21.3785109,8.23463154 C22.3903245,6.4861359 21.4707771,5.71847055 22.3863229,4.64592036 C22.4629965,4.5560982 22.9754742,3.06939779 23.0581975,2.95711509 C24.0872987,1.56028622 23.8957208,2.6442545 24.737884,1.26830983 C25.5754074,-0.100054053 27.5933512,0.00170588452 27.5933512,0.00170588452 C27.5933512,0.00170588452 29.4410064,1.26830983 30.2808497,2.32381312 C30.3376345,2.65685632 30.4615615,2.46142194 30.7847556,2.95711509 C29.2730377,4.22371904 27.9292885,4.22371904 27.9292885,4.22371904 C27.9292885,4.22371904 27.4760912,4.49544898 26.5855392,5.49032299 C25.9643733,6.18425425 25.9136646,6.75692694 25.9136646,6.75692694 C25.9136646,6.75692694 25.313305,7.84377282 25.0738213,8.4457322 C24.809399,9.11037677 25.0956144,10.0621892 24.737884,10.5567388 C24.2557711,11.2232428 24.6361174,12.2313805 24.4019467,12.878846 C24.2161958,13.3924341 23.0581975,14.5676513 23.0581975,14.5676513 L22.2183542,16.2564565 L20.7066363,19.0007651 L16.9273415,21.3228723 C16.9273415,21.3228723 15.2249324,21.660823 13.9878901,22.3783756 C12.4954417,23.2440779 12.1850578,22.8145864 11.4683602,24.2782815 C10.8413085,25.558895 11.6545848,26.0370074 11.1324229,27.2336907 C10.2268512,29.3090676 10.050178,29.3249937 9.45273637,31.8779052 C9.21033476,32.9137049 9.85705075,33.1837391 9.45273637,34.2000125 C9.01720747,35.2947457 7.60508116,37.1554217 7.60508116,37.1554217 C7.60508116,37.1554217 6.74490258,36.904878 5.9253946,36.7332204 C4.22537274,36.3771264 2.73399015,35.0444151 2.73399015,35.0444151 Z" id="Path-2" fill="#EEBF77"></path>
        </g>
        <g id="Bacon" transform="translate(39.000000, 74.863866) rotate(5.000000) translate(-39.000000, -74.863866) translate(22.500000, 55.363866)">
            <path d="M0.0829542376,33.7383793 C-0.471364061,33.1718441 1.92752906,32.1046385 2.0985781,32.049574 C2.0985781,32.049574 1.92394783,32.5736211 3.2677154,30.8892935 C4.98054664,28.7423678 5.47386231,25.2767784 5.47386231,25.2767784 C5.47386231,25.2767784 6.18588121,21.5318539 7.86028027,19.4310528 C9.54295787,17.3198649 12.1880156,16.8528005 12.1880156,16.8528005 C12.1880156,16.8528005 14.9738961,16.1493283 16.6485348,14.040513 C18.3303782,11.9226251 18.9009797,8.39939419 18.9009797,8.39939419 C18.9009797,8.39939419 19.6164789,4.69263184 21.3036779,2.58969381 C22.9859194,0.492934741 25.6398609,-5.68434189e-14 25.6398609,-5.68434189e-14 C25.6398609,-5.68434189e-14 28.1571402,1.02751587 29.81193,3.1119824 C31.4967885,5.23432524 32.3191574,8.41361875 32.3191574,8.41361875 C32.3191574,8.41361875 29.3843172,9.23330624 27.7270847,11.330065 C26.0527475,13.4484648 25.656018,16.8439359 25.656018,16.8439359 C25.656018,16.8439359 25.7893369,20.2307363 24.102472,22.3389437 C22.420901,24.4405349 19.2226053,24.811955 19.2226053,24.811955 C19.2226053,24.811955 16.2007194,25.7165904 14.5282586,27.8275608 C12.8463083,29.9505089 13.0165407,35.0049832 13.0165407,35.0049832 C13.0165407,35.0049832 9.68381546,37.9662313 6.63373181,37.9603924 C2.95329995,37.9533468 1.43804916,35.1233398 0.0829542376,33.7383793 Z" id="Path-3" fill="#F65656"></path>
            <path d="M2.73399015,35.9555262 C2.73399015,35.9555262 5.09229456,35.189027 6.26133192,33.2112176 C7.27588708,31.4947655 7.60508116,28.9892045 7.60508116,28.9892045 C7.60508116,28.9892045 7.66651331,24.840874 8.61289309,23.2894867 C9.59815285,21.6743641 11.4683602,21.1784802 11.4683602,21.1784802 C11.4683602,21.1784802 12.9551754,20.7041688 14.3238274,19.7007755 C15.9786112,18.4876119 16.6281032,18.9909908 18.3550751,17.3786683 C19.5675547,16.2466823 19.3253209,15.3158345 20.2027303,14.0010578 C21.5089134,12.0437743 20.4594364,10.7339777 21.3785109,9.14574265 C22.3903245,7.39724701 21.4707771,6.62958166 22.3863229,5.55703147 C22.4629965,5.46720931 22.9754742,3.9805089 23.0581975,3.86822621 C24.0872987,2.47139733 23.8957208,3.55536561 24.737884,2.17942094 C25.5754074,0.811057059 27.5933512,0.912816996 27.5933512,0.912816996 C27.5933512,0.912816996 29.4410064,2.17942094 30.2808497,3.23492423 C30.3376345,3.56796743 30.4615615,3.37253305 30.7847556,3.86822621 C29.2730377,5.13483015 27.9292885,5.13483015 27.9292885,5.13483015 C27.9292885,5.13483015 27.4760912,5.4065601 26.5855392,6.4014341 C25.9643733,7.09536536 25.9136646,7.66803805 25.9136646,7.66803805 C25.9136646,7.66803805 25.313305,8.75488394 25.0738213,9.35684331 C24.809399,10.0214879 25.0956144,10.9733003 24.737884,11.4678499 C24.2557711,12.1343539 24.6361174,13.1424916 24.4019467,13.7899571 C24.2161958,14.3035453 23.0581975,15.4787624 23.0581975,15.4787624 L22.2183542,17.1675677 L20.7066363,19.9118762 L16.9273415,22.2339834 C16.9273415,22.2339834 15.2249324,22.5719341 13.9878901,23.2894867 C12.4954417,24.155189 12.1850578,23.7256975 11.4683602,25.1893926 C10.8413085,26.4700061 11.6545848,26.9481186 11.1324229,28.1448019 C10.2268512,30.2201787 10.050178,30.2361048 9.45273637,32.7890163 C9.21033476,33.824816 9.85705075,34.0948502 9.45273637,35.1111236 C9.01720747,36.2058568 7.60508116,38.0665328 7.60508116,38.0665328 C7.60508116,38.0665328 6.74490258,37.8159892 5.9253946,37.6443315 C4.22537274,37.2882375 2.73399015,35.9555262 2.73399015,35.9555262 Z" id="Path-2" fill="#EEBF77"></path>
        </g>
    </g>
</svg>