<svg width="151px" height="151px" viewBox="12184 1022 151 151" version="1.1" xmlns="http://www.w3.org/2000/svg" xmlns:xlink="http://www.w3.org/1999/xlink">
    <!-- Generator: Sketch 40.1 (33804) - http://www.bohemiancoding.com/sketch -->
    <desc>Created with Sketch.</desc>
    <defs>
        <rect id="path-1" x="0.48170732" y="0.11650485" width="96.0365854" height="92.7669903" rx="15"></rect>
    </defs>
    <g id="Group-25" stroke="none" stroke-width="1" fill="none" fill-rule="evenodd" transform="translate(12185.000000, 1022.000000)">
        <g id="Group-8" transform="translate(74.500000, 74.500000) rotate(-45.000000) translate(-74.500000, -74.500000) translate(22.000000, 22.000000)">
            <rect id="Rectangle-9" fill="#4A6278" x="-7.27595761e-12" y="7.27595761e-12" width="105" height="105" rx="17"></rect>
            <g id="Rectangle-9-Clipped" transform="translate(4.000000, 6.000000)">
                <g>
                    <mask id="mask-2" fill="white">
                        <use xlink:href="#path-1"></use>
                    </mask>
                    <g id="path-1"></g>
                    <g id="Rectangle-9" mask="url(#mask-2)" stroke="#1E3951" stroke-width="6" fill="#2C4154">
                        <rect id="path-1" x="0.48170732" y="0.11650485" width="96.0365854" height="92.7669903" rx="15"></rect>
                    </g>
                </g>
            </g>
        </g>
        <g id="svg-fe-atom" transform="translate(53.000000, 22.000000)">
            <g id="Created-with-Sketch." transform="translate(14.000000, 47.000000)">
                <g id="Atom" transform="translate(0.463636, 0.000000)">
                    <ellipse id="Oval-4" fill="#A054E2" cx="22.5327273" cy="22.5" rx="22.5327273" ry="22.5"></ellipse>
                    <path d="M40.0669479,31.7061902 C39.9996986,36.4143659 33.5791434,36.2118964 24.9789253,31.2418014 C15.4793388,26.2582742 5.84925298,18.3768558 4.21063216,13.6503211" id="Oval-5" stroke-opacity="0.416808197" stroke="#FFFFFF" transform="translate(22.138790, 24.378988) scale(-1, 1) translate(-22.138790, -24.378988) "></path>
                    <path d="M4.39044635,13.1917467 C2.67832863,8.46521208 10.9952635,8.69828658 22.2486652,13.7001727 C32.6279305,18.6886267 40.4699123,26.5394402 40.4887762,31.2476159" id="Oval-5" stroke-opacity="0.416808197" stroke="#FFFFFF"></path>
                    <g id="Fe" transform="translate(11.352727, 5.500000)" font-size="28" font-family=".SFNSText-Bold, .SF NS Text" fill="#FFFFFF" font-weight="bold">
                        <g id="Group">
                            <text id="N">
                                <tspan x="0.0804662051" y="27.0802448">N</tspan>
                            </text>
                        </g>
                    </g>
                    <path d="M40.5076578,31.7061902 C40.4404085,36.4143659 34.0198533,36.2118964 25.4196352,31.2418014 C15.9200487,26.2582742 6.28996289,18.3768558 4.65134208,13.6503211" id="Oval-5" stroke-opacity="0.416808197" stroke="#FFFFFF"></path>
                    <path d="M4.39044637,13.1917467 C2.67832866,8.46521208 10.9952636,8.69828658 22.2486652,13.7001727 C32.6279305,18.6886267 40.4699123,26.5394402 40.4887762,31.2476159" id="Oval-5" stroke-opacity="0.416808197" stroke="#FFFFFF" transform="translate(22.327692, 20.520060) scale(-1, 1) translate(-22.327692, -20.520060) "></path>
                </g>
            </g>
            <g id="Created-with-Sketch.">
                <g id="Atom" transform="translate(0.463636, 0.000000)">
                    <ellipse id="Oval-4" fill="#A054E2" cx="22.5327273" cy="22.5" rx="22.5327273" ry="22.5"></ellipse>
                    <path d="M40.0669479,31.7061902 C39.9996986,36.4143659 33.5791434,36.2118964 24.9789253,31.2418014 C15.4793388,26.2582742 5.84925298,18.3768558 4.21063216,13.6503211" id="Oval-5" stroke-opacity="0.416808197" stroke="#FFFFFF" transform="translate(22.138790, 24.378988) scale(-1, 1) translate(-22.138790, -24.378988) "></path>
                    <path d="M4.39044635,13.1917467 C2.67832863,8.46521208 10.9952635,8.69828658 22.2486652,13.7001727 C32.6279305,18.6886267 40.4699123,26.5394402 40.4887762,31.2476159" id="Oval-5" stroke-opacity="0.416808197" stroke="#FFFFFF"></path>
                    <g id="Fe" transform="translate(11.352727, 5.500000)" font-size="28" font-family=".SFNSText-Bold, .SF NS Text" fill="#FFFFFF" font-weight="bold">
                        <g id="Group">
                            <text id="N">
                                <tspan x="0.0804662051" y="27.0802448">N</tspan>
                            </text>
                        </g>
                    </g>
                    <path d="M40.5076578,31.7061902 C40.4404085,36.4143659 34.0198533,36.2118964 25.4196352,31.2418014 C15.9200487,26.2582742 6.28996289,18.3768558 4.65134208,13.6503211" id="Oval-5" stroke-opacity="0.416808197" stroke="#FFFFFF"></path>
                    <path d="M4.39044637,13.1917467 C2.67832866,8.46521208 10.9952636,8.69828658 22.2486652,13.7001727 C32.6279305,18.6886267 40.4699123,26.5394402 40.4887762,31.2476159" id="Oval-5" stroke-opacity="0.416808197" stroke="#FFFFFF" transform="translate(22.327692, 20.520060) scale(-1, 1) translate(-22.327692, -20.520060) "></path>
                </g>
            </g>
        </g>
        <g id="svg-o-atom" transform="translate(44.526912, 76.526912) rotate(-360.000000) translate(-44.526912, -76.526912) translate(21.526912, 53.526912)">
            <g id="Created-with-Sketch." transform="translate(-0.000000, 0.000000)">
                <g id="Atom" transform="translate(0.748768, 0.977778)">
                    <circle id="Oval-4" fill="#FACC39" cx="22.5" cy="22.5" r="22.5"></circle>
                    <path d="M40.0087533,31.7061902 C39.9416017,36.4143659 33.5303719,36.2118964 24.9426451,31.2418014 C15.4568561,26.2582743 5.84075734,18.3768558 4.2045165,13.6503211" id="Oval-5" stroke-opacity="0.8" stroke="#9B9B9B" transform="translate(22.106635, 24.378988) scale(-1, 1) translate(-22.106635, -24.378988) "></path>
                    <path d="M4.38406952,13.1917468 C2.67443855,8.46521208 10.9792937,8.69828657 22.2163505,13.7001727 C32.5805407,18.6886268 40.4111325,26.5394402 40.429969,31.2476159" id="Oval-5" stroke-opacity="0.8" stroke="#9B9B9B"></path>
                    <g id="O" transform="translate(9.000000, 0.000000)" font-size="36" font-family=".SFNSText-Bold, .SF NS Text" fill="#4A4A4A" font-weight="bold">
                        <g id="Group">
                            <text id="O">
                                <tspan x="0.24701604" y="35.7469115">O</tspan>
                            </text>
                        </g>
                    </g>
                    <path d="M40.4488231,31.7061902 C40.3816715,36.4143659 33.9704417,36.2118964 25.3827149,31.2418014 C15.8969259,26.2582743 6.28082714,18.3768558 4.64458631,13.6503211" id="Oval-5" stroke-opacity="0.8" stroke="#9B9B9B"></path>
                    <path d="M4.38406951,13.1917468 C2.67443854,8.46521208 10.9792937,8.69828657 22.2163505,13.7001727 C32.5805407,18.6886268 40.4111325,26.5394402 40.429969,31.2476159" id="Oval-5" stroke-opacity="0.8" stroke="#9B9B9B" transform="translate(22.295263, 20.520060) scale(-1, 1) translate(-22.295263, -20.520060) "></path>
                </g>
            </g>
        </g>
    </g>
</svg>