
<svg width="65px" height="54px" viewBox="19 27 65 54" version="1.1" xmlns="http://www.w3.org/2000/svg" xmlns:xlink="http://www.w3.org/1999/xlink">
    <!-- Generator: Sketch 40.1 (33804) - http://www.bohemiancoding.com/sketch -->
    <desc>Created with Sketch.</desc>
    <defs></defs>
    <g id="egg" stroke="none" stroke-width="1" fill="none" fill-rule="evenodd" transform="translate(22.000000, 29.000000)">
        <path d="M23.2351605,1.81423352 C17.9279678,3.55034553 12.8006692,6.58818635 12.8006692,6.58818635 C12.8006692,6.58818635 4.2283859,12.7173285 2.36617787,17.0908826 C-0.751712235,24.4135129 -0.486131919,23.344695 1.41758775,27.5935788 C4.96826127,35.5182747 7.90889504,36.108865 16.5950297,42.3928326 C23.086337,47.0889565 24.0976138,49.4349153 31.7724716,49.5537618 C39.5122033,49.6736129 40.9266655,48.0755453 47.4242086,42.8702279 C52.5468945,38.7663372 50.7494736,35.6558021 55.0129295,30.9353458 C56.4304363,29.3658963 56.97065,28.3727782 57.7079114,27.5935788 C58.4534719,26.8056081 59.387522,26.226893 59.2815851,23.7744165 C59.0179847,17.6719784 57.7799127,14.8305582 56.9101098,9.45255805 C56.11988,4.5665596 48.8221236,3.54559147 44.1041432,1.33683824 C38.6247798,-1.22836136 27.413869,0.447276192 23.2351605,1.81423352 Z" id="Path-4" stroke-opacity="0.684669384" stroke="#F9D010" stroke-width="4" fill="#FFFCC1"></path>
        <ellipse id="Oval-2" fill="#FFD200" cx="34.4059666" cy="16.9264484" rx="12.8059666" ry="8.59311509"></ellipse>
    </g>
</svg>