
<svg width="151px" height="151px" viewBox="12182 1015 151 151" version="1.1" xmlns="http://www.w3.org/2000/svg" xmlns:xlink="http://www.w3.org/1999/xlink">
    <!-- Generator: Sketch 40.1 (33804) - http://www.bohemiancoding.com/sketch -->
    <desc>Created with Sketch.</desc>
    <defs>
        <rect id="path-1" x="0.48170732" y="0.11650485" width="96.0365854" height="92.7669903" rx="15"></rect>
    </defs>
    <g id="svg-reactant-carrot" stroke="none" stroke-width="1" fill="none" fill-rule="evenodd" transform="translate(12182.000000, 1016.000000)">
        <g id="Created-with-Sketch.">
            <g id="svg-reactant2">
                <g id="Created-with-Sketch.">
                    <g id="reactant2" transform="translate(75.533309, 74.853553) rotate(-45.000000) translate(-75.533309, -74.853553) translate(23.033309, 21.853553)">
                        <g id="Group-8" transform="translate(0.000000, 0.000000)">
                            <rect id="Rectangle-9" fill="#4A6278" x="0" y="0" width="105" height="105" rx="17"></rect>
                            <g id="Rectangle-9-Clipped" transform="translate(4.000000, 6.000000)">
                                <g>
                                    <mask id="mask-2" fill="white">
                                        <use xlink:href="#path-1"></use>
                                    </mask>
                                    <g id="path-1"></g>
                                    <g id="Rectangle-9" mask="url(#mask-2)" stroke="#1E3951" stroke-width="6" fill="#2C4154">
                                        <rect id="path-1" x="0.48170732" y="0.11650485" width="96.0365854" height="92.7669903" rx="15"></rect>
                                    </g>
                                </g>
                            </g>
                        </g>
                        <g id="Group-11" transform="translate(70.240896, 49.333169) rotate(75.000000) translate(-70.240896, -49.333169) translate(32.240896, 26.833169)">
                            <path d="M55.5290508,22.8080575 C55.5290508,22.8080575 58.1451696,2.46165594 33.8888036,10.4763427 C9.63243747,18.4910294 4.78133302,27.4049735 4.78133302,27.4049735 C-1.92623314,34.0107807 -0.0755809571,41.0475588 9.02884141,42.5351804 C9.02884141,42.5351804 16.0760864,46.0752765 39.7432558,42.720561 C63.4104252,39.3658455 55.5290508,22.8080575 55.5290508,22.8080575 L55.5290508,22.8080575 Z" id="Path-9" fill="#F46C2F"></path>
                            <path d="M15.5180037,19.6780241 C15.5180037,19.6780241 21.018986,23.1336496 19.2966338,33.3880939" id="Path-10" stroke="#C44815" stroke-width="3"></path>
                            <path d="M30.0502279,12.5121484 C30.0502279,12.5121484 39.6832952,17.1400409 36.9071589,29.5323435" id="Path-11" stroke="#C44815" stroke-width="3"></path>
                            <path d="M58.836939,23.5734688 C58.836939,23.5734688 51.2104328,11.240689 59.4475631,0.526596835 C68.9185318,11.240689 58.836939,23.5734688 58.836939,23.5734688 L58.836939,23.5734688 Z" id="Path-12" fill="#6FA942" transform="translate(59.562758, 12.050033) rotate(30.000000) translate(-59.562758, -12.050033) "></path>
                            <path d="M63.096121,35.9666604 C63.096121,35.9666604 55.4696148,23.6338805 63.7067451,12.9197884 C73.1777138,23.6338805 63.096121,35.9666604 63.096121,35.9666604 L63.096121,35.9666604 Z" id="Path-12" fill="#6FA942" transform="translate(63.821940, 24.443224) rotate(102.000000) translate(-63.821940, -24.443224) "></path>
                        </g>
                        <g id="Group-11" transform="translate(40.161418, 63.049127) rotate(75.000000) translate(-40.161418, -63.049127) translate(2.161418, 40.549127)">
                            <path d="M55.5290508,22.8080575 C55.5290508,22.8080575 58.1451696,2.46165594 33.8888036,10.4763427 C9.63243747,18.4910294 4.78133302,27.4049735 4.78133302,27.4049735 C-1.92623314,34.0107807 -0.0755809571,41.0475588 9.02884141,42.5351804 C9.02884141,42.5351804 16.0760864,46.0752765 39.7432558,42.720561 C63.4104252,39.3658455 55.5290508,22.8080575 55.5290508,22.8080575 L55.5290508,22.8080575 Z" id="Path-9" fill="#F46C2F"></path>
                            <path d="M15.5180037,19.6780241 C15.5180037,19.6780241 21.018986,23.1336496 19.2966338,33.3880939" id="Path-10" stroke="#C44815" stroke-width="3"></path>
                            <path d="M30.0502279,12.5121484 C30.0502279,12.5121484 39.6832952,17.1400409 36.9071589,29.5323435" id="Path-11" stroke="#C44815" stroke-width="3"></path>
                            <path d="M58.836939,23.5734688 C58.836939,23.5734688 51.2104328,11.240689 59.4475631,0.526596835 C68.9185318,11.240689 58.836939,23.5734688 58.836939,23.5734688 L58.836939,23.5734688 Z" id="Path-12" fill="#6FA942" transform="translate(59.562758, 12.050033) rotate(30.000000) translate(-59.562758, -12.050033) "></path>
                            <path d="M63.096121,35.9666604 C63.096121,35.9666604 55.4696148,23.6338805 63.7067451,12.9197884 C73.1777138,23.6338805 63.096121,35.9666604 63.096121,35.9666604 L63.096121,35.9666604 Z" id="Path-12" fill="#6FA942" transform="translate(63.821940, 24.443224) rotate(102.000000) translate(-63.821940, -24.443224) "></path>
                        </g>
                    </g>
                </g>
            </g>
        </g>
    </g>
</svg>