<svg width="46px" height="47px" viewBox="33 56 46 47" version="1.1" xmlns="http://www.w3.org/2000/svg" xmlns:xlink="http://www.w3.org/1999/xlink">
    <!-- Generator: Sketch 40.1 (33804) - http://www.bohemiancoding.com/sketch -->
    <desc>Created with Sketch.</desc>
    <defs></defs>
    <g id="Atom" stroke="none" stroke-width="1" fill="none" fill-rule="evenodd" transform="translate(33.748768, 56.977778)">
        <circle id="Oval-4" fill="#80D566" cx="22.5" cy="22.5" r="22.5"></circle>
        <path d="M40.0087535,31.7061902 C39.9416019,36.4143659 33.5303721,36.2118964 24.9426453,31.2418014 C15.4568563,26.2582743 5.84075754,18.3768558 4.2045167,13.6503211" id="Oval-5" stroke-opacity="0.8" stroke="#fff" transform="translate(22.106635, 24.378988) scale(-1, 1) translate(-22.106635, -24.378988) "></path>
        <path d="M4.38406952,13.1917468 C2.67443855,8.46521208 10.9792937,8.69828657 22.2163505,13.7001727 C32.5805407,18.6886268 40.4111325,26.5394402 40.429969,31.2476159" id="Oval-5" stroke-opacity="0.8" stroke="#fff"></path>
        <g id="O" transform="translate(8.000000, -3.000000)" font-size="28" font-family=".SFNSText-Bold, .SF NS Text" fill="#4A4A4A" font-weight="bold">
            <text>
                <tspan x="0.24701604" y="35.7469115">Cl</tspan>
            </text>
        </g>
        <path d="M40.4488231,31.7061902 C40.3816715,36.4143659 33.9704417,36.2118964 25.3827149,31.2418014 C15.8969259,26.2582743 6.28082714,18.3768558 4.64458631,13.6503211" id="Oval-5" stroke-opacity="0.8" stroke="#fff"></path>
        <path d="M4.38406971,13.1917468 C2.67443874,8.46521208 10.9792939,8.69828657 22.2163507,13.7001727 C32.5805409,18.6886268 40.4111327,26.5394402 40.4299692,31.2476159" id="Oval-5" stroke-opacity="0.8" stroke="#fff" transform="translate(22.295263, 20.520060) scale(-1, 1) translate(-22.295263, -20.520060) "></path>
    </g>
</svg>