
<svg width="151px" height="150px" viewBox="12330 1263 151 150" version="1.1" xmlns="http://www.w3.org/2000/svg" xmlns:xlink="http://www.w3.org/1999/xlink">
    <!-- Generator: Sketch 40.1 (33804) - http://www.bohemiancoding.com/sketch -->
    <desc>Created with Sketch.</desc>
    <defs>
        <rect id="path-1" x="0.48170732" y="0.11650485" width="96.0365854" height="92.7669903" rx="15"></rect>
    </defs>
    <g id="Group-31" stroke="none" stroke-width="1" fill="none" fill-rule="evenodd" transform="translate(12331.000000, 1263.000000)">
        <g id="Group-8" transform="translate(74.246212, 74.246212) rotate(-45.000000) translate(-74.246212, -74.246212) translate(21.746212, 21.746212)">
            <rect id="Rectangle-9" fill="#4A6278" x="-7.09832193e-12" y="7.3754336e-12" width="105" height="105" rx="17"></rect>
            <g id="Rectangle-9-Clipped" transform="translate(4.000000, 6.000000)">
                <g>
                    <mask id="mask-2" fill="white">
                        <use xlink:href="#path-1"></use>
                    </mask>
                    <g id="path-1"></g>
                    <g id="Rectangle-9" mask="url(#mask-2)" stroke="#1E3951" stroke-width="6" fill="#2C4154">
                        <rect id="path-1" x="0.48170732" y="0.11650485" width="96.0365854" height="92.7669903" rx="15"></rect>
                    </g>
                </g>
            </g>
        </g>
        <g id="Atom" transform="translate(96.000000, 53.000000)">
            <circle id="Oval-4" fill="#FACC39" cx="17.5" cy="19.5" r="17.5"></circle>
            <path d="M31.1179185,26.6603702 C31.0656894,30.3222846 26.0791774,30.1648083 19.3998343,26.2991789 C12.0219984,22.4231022 4.54281045,16.2931101 3.2701787,12.6169164" id="Oval-5" stroke-opacity="0.8" stroke="#9B9B9B" transform="translate(17.194049, 20.961435) scale(-1, 1) translate(-17.194049, -20.961435) "></path>
            <path d="M3.40983185,12.2602475 C2.08011887,8.58405384 8.53945063,8.765334 17.2793837,12.6556899 C25.3404205,16.5355986 31.4308808,22.6417868 31.4455315,26.3037012" id="Oval-5" stroke-opacity="0.8" stroke="#9B9B9B"></path>
            <g id="O" transform="translate(5.000000, 0.000000)" font-size="32" font-family=".SFNSText-Bold, .SF NS Text" fill="#4A4A4A" font-weight="bold">
                <text>
                    <tspan x="0.19212358" y="31.5809312">O</tspan>
                </text>
            </g>
            <path d="M31.4601958,26.6603702 C31.4079667,30.3222846 26.4214547,30.1648083 19.7421116,26.2991789 C12.3642757,22.4231022 4.88508778,16.2931101 3.61245602,12.6169164" id="Oval-5" stroke-opacity="0.8" stroke="#9B9B9B"></path>
            <path d="M3.40983172,12.2602475 C2.08011874,8.58405384 8.5394505,8.765334 17.2793836,12.6556899 C25.3404204,16.5355986 31.4308807,22.6417868 31.4455314,26.3037012" id="Oval-5" stroke-opacity="0.8" stroke="#9B9B9B" transform="translate(17.340760, 17.960047) scale(-1, 1) translate(-17.340760, -17.960047) "></path>
        </g>
        <g id="Atom" transform="translate(54.000000, 96.000000)">
            <circle id="Oval-4" fill="#FACC39" cx="17.5" cy="19.5" r="17.5"></circle>
            <path d="M31.1179185,26.6603702 C31.0656894,30.3222846 26.0791774,30.1648083 19.3998343,26.2991789 C12.0219984,22.4231022 4.54281045,16.2931101 3.2701787,12.6169164" id="Oval-5" stroke-opacity="0.8" stroke="#9B9B9B" transform="translate(17.194049, 20.961435) scale(-1, 1) translate(-17.194049, -20.961435) "></path>
            <path d="M3.40983185,12.2602475 C2.08011887,8.58405384 8.53945063,8.765334 17.2793837,12.6556899 C25.3404205,16.5355986 31.4308808,22.6417868 31.4455315,26.3037012" id="Oval-5" stroke-opacity="0.8" stroke="#9B9B9B"></path>
            <g id="O" transform="translate(5.000000, 0.000000)" font-size="32" font-family=".SFNSText-Bold, .SF NS Text" fill="#4A4A4A" font-weight="bold">
                <text>
                    <tspan x="0.19212358" y="31.5809312">O</tspan>
                </text>
            </g>
            <path d="M31.4601958,26.6603702 C31.4079667,30.3222846 26.4214547,30.1648083 19.7421116,26.2991789 C12.3642757,22.4231022 4.88508778,16.2931101 3.61245602,12.6169164" id="Oval-5" stroke-opacity="0.8" stroke="#9B9B9B"></path>
            <path d="M3.40983172,12.2602475 C2.08011874,8.58405384 8.5394505,8.765334 17.2793836,12.6556899 C25.3404204,16.5355986 31.4308807,22.6417868 31.4455314,26.3037012" id="Oval-5" stroke-opacity="0.8" stroke="#9B9B9B" transform="translate(17.340760, 17.960047) scale(-1, 1) translate(-17.340760, -17.960047) "></path>
        </g>
        <g id="Atom" transform="translate(60.000000, 60.000000)">
            <circle id="Oval-4" fill="#FACC39" cx="17.5" cy="19.5" r="17.5"></circle>
            <path d="M31.1179185,26.6603702 C31.0656894,30.3222846 26.0791774,30.1648083 19.3998343,26.2991789 C12.0219984,22.4231022 4.54281045,16.2931101 3.2701787,12.6169164" id="Oval-5" stroke-opacity="0.8" stroke="#9B9B9B" transform="translate(17.194049, 20.961435) scale(-1, 1) translate(-17.194049, -20.961435) "></path>
            <path d="M3.40983185,12.2602475 C2.08011887,8.58405384 8.53945063,8.765334 17.2793837,12.6556899 C25.3404205,16.5355986 31.4308808,22.6417868 31.4455315,26.3037012" id="Oval-5" stroke-opacity="0.8" stroke="#9B9B9B"></path>
            <g id="O" transform="translate(5.000000, 0.000000)" font-size="32" font-family=".SFNSText-Bold, .SF NS Text" fill="#4A4A4A" font-weight="bold">
                <text>
                    <tspan x="0.19212358" y="31.5809312">O</tspan>
                </text>
            </g>
            <path d="M31.4601958,26.6603702 C31.4079667,30.3222846 26.4214547,30.1648083 19.7421116,26.2991789 C12.3642757,22.4231022 4.88508778,16.2931101 3.61245602,12.6169164" id="Oval-5" stroke-opacity="0.8" stroke="#9B9B9B"></path>
            <path d="M3.40983172,12.2602475 C2.08011874,8.58405384 8.5394505,8.765334 17.2793836,12.6556899 C25.3404204,16.5355986 31.4308807,22.6417868 31.4455314,26.3037012" id="Oval-5" stroke-opacity="0.8" stroke="#9B9B9B" transform="translate(17.340760, 17.960047) scale(-1, 1) translate(-17.340760, -17.960047) "></path>
        </g>
        <g id="svg-fe-atom" transform="translate(52.000000, 20.000000)">
            <g id="Created-with-Sketch.">
                <g id="Atom" transform="translate(0.372727, 0.000000)">
                    <ellipse id="Oval-4" fill="#FAA027" cx="20.1272727" cy="20" rx="20.1272727" ry="20"></ellipse>
                    <path d="M35.7896484,28.1832801 C35.7295783,32.3683253 29.9944418,32.1883524 22.3123298,27.7704901 C13.8268604,23.3406882 5.22482292,16.334983 3.76113112,12.1336187" id="Oval-5" stroke-opacity="0.416808197" stroke="#FFFFFF" transform="translate(19.775390, 21.670211) scale(-1, 1) translate(-19.775390, -21.670211) "></path>
                    <path d="M3.92174946,11.7259971 C2.39240684,7.52463296 9.82147724,7.7318103 19.8735354,12.1779313 C29.1447746,16.6121127 36.1495949,23.5906135 36.166445,27.7756586" id="Oval-5" stroke-opacity="0.416808197" stroke="#FFFFFF"></path>
                    <g id="Fe" transform="translate(10.436364, 8.148148)" font-size="20" font-family=".SFNSText-Bold, .SF NS Text" fill="#4A4A4A" font-weight="bold">
                        <g id="Group">
                            <text id="Fe">
                                <tspan x="0.0718761309" y="19.0713287">Fe</tspan>
                            </text>
                        </g>
                    </g>
                    <path d="M36.1833109,28.1832801 C36.1232407,32.3683253 30.3881043,32.1883524 22.7059923,27.7704901 C14.2205228,23.3406882 5.61848537,16.334983 4.15479358,12.1336187" id="Oval-5" stroke-opacity="0.416808197" stroke="#FFFFFF"></path>
                    <path d="M3.92174948,11.7259971 C2.39240687,7.52463296 9.82147725,7.7318103 19.8735354,12.1779313 C29.1447746,16.6121127 36.1495949,23.5906135 36.166445,27.7756586" id="Oval-5" stroke-opacity="0.416808197" stroke="#FFFFFF" transform="translate(19.944126, 18.240054) scale(-1, 1) translate(-19.944126, -18.240054) "></path>
                </g>
            </g>
        </g>
        <g id="svg-fe-atom" transform="translate(21.000000, 54.000000)">
            <g id="Created-with-Sketch.">
                <g id="Atom" transform="translate(0.372727, 0.000000)">
                    <ellipse id="Oval-4" fill="#FAA027" cx="20.1272727" cy="20" rx="20.1272727" ry="20"></ellipse>
                    <path d="M35.7896484,28.1832801 C35.7295783,32.3683253 29.9944418,32.1883524 22.3123298,27.7704901 C13.8268604,23.3406882 5.22482292,16.334983 3.76113112,12.1336187" id="Oval-5" stroke-opacity="0.416808197" stroke="#FFFFFF" transform="translate(19.775390, 21.670211) scale(-1, 1) translate(-19.775390, -21.670211) "></path>
                    <path d="M3.92174946,11.7259971 C2.39240684,7.52463296 9.82147724,7.7318103 19.8735354,12.1779313 C29.1447746,16.6121127 36.1495949,23.5906135 36.166445,27.7756586" id="Oval-5" stroke-opacity="0.416808197" stroke="#FFFFFF"></path>
                    <g id="Fe" transform="translate(10.436364, 8.148148)" font-size="20" font-family=".SFNSText-Bold, .SF NS Text" fill="#4A4A4A" font-weight="bold">
                        <g id="Group">
                            <text id="Fe">
                                <tspan x="0.0718761309" y="19.0713287">Fe</tspan>
                            </text>
                        </g>
                    </g>
                    <path d="M36.1833109,28.1832801 C36.1232407,32.3683253 30.3881043,32.1883524 22.7059923,27.7704901 C14.2205228,23.3406882 5.61848537,16.334983 4.15479358,12.1336187" id="Oval-5" stroke-opacity="0.416808197" stroke="#FFFFFF"></path>
                    <path d="M3.92174948,11.7259971 C2.39240687,7.52463296 9.82147725,7.7318103 19.8735354,12.1779313 C29.1447746,16.6121127 36.1495949,23.5906135 36.166445,27.7756586" id="Oval-5" stroke-opacity="0.416808197" stroke="#FFFFFF" transform="translate(19.944126, 18.240054) scale(-1, 1) translate(-19.944126, -18.240054) "></path>
                </g>
            </g>
        </g>
    </g>
</svg>