
<svg width="36px" height="43px" viewBox="10 14 36 43" version="1.1" xmlns="http://www.w3.org/2000/svg" xmlns:xlink="http://www.w3.org/1999/xlink">
    <!-- Generator: Sketch 40.1 (33804) - http://www.bohemiancoding.com/sketch -->
    <desc>Created with Sketch.</desc>
    <defs></defs>
    <g id="Bacon-strip" stroke="none" stroke-width="1" fill="none" fill-rule="evenodd" transform="translate(10.000000, 14.000000)">
        <path d="M0.0910254607,37.0299285 C-0.517226511,36.4081215 2.11507243,35.2367984 2.30276408,35.1763617 C2.30276408,35.1763617 2.11114276,35.7515354 3.58565528,33.9028831 C5.46514037,31.5465012 6.00645432,27.7428056 6.00645432,27.7428056 C6.00645432,27.7428056 6.78775073,23.6325226 8.62506429,21.3267653 C10.4714619,19.0096078 13.3738766,18.4969761 13.3738766,18.4969761 C13.3738766,18.4969761 16.4308158,17.7248725 18.2683923,15.4103191 C20.1138744,13.0858081 20.739994,9.21884728 20.739994,9.21884728 C20.739994,9.21884728 21.5251093,5.15044958 23.3764681,2.84234687 C25.2223873,0.541025935 28.13455,0 28.13455,0 C28.13455,0 30.8967539,1.12776132 32.7125502,3.41559044 C34.5613409,5.74499112 35.4637241,9.2344596 35.4637241,9.2344596 C35.4637241,9.2344596 32.2433319,10.1341166 30.4248551,12.4354372 C28.5876095,14.7605102 28.1522792,18.4872467 28.1522792,18.4872467 C28.1522792,18.4872467 28.2985697,22.2044667 26.4475774,24.5183529 C24.6023941,26.8249774 21.0929128,27.2326335 21.0929128,27.2326335 C21.0929128,27.2326335 17.7770056,28.2255261 15.9418189,30.5424448 C14.0962194,32.8725098 14.283015,38.4201035 14.283015,38.4201035 C14.283015,38.4201035 10.6260245,41.6702539 7.27917598,41.6638453 C3.24064806,41.6561123 1.57796745,38.5500071 0.0910254607,37.0299285 Z" id="Path-3" fill="#F65656"></path>
        <path d="M2.21173862,39.3882935 C2.21173862,39.3882935 4.79949968,38.5470139 6.08228121,36.3762475 C7.19554985,34.4923366 7.55677363,31.7423306 7.55677363,31.7423306 C7.55677363,31.7423306 7.62418295,27.1892849 8.66264294,25.4865428 C9.7437658,23.7138473 11.7959393,23.1695844 11.7959393,23.1695844 C11.7959393,23.1695844 13.4274175,22.6489988 14.9292357,21.5477135 C16.7450255,20.2161924 17.4577114,20.7686815 19.3527129,18.9990592 C20.6831635,17.7566355 20.417361,16.7349733 21.38014,15.2919257 C22.8134111,13.1436877 21.6618228,11.7061061 22.6703209,9.96292129 C23.7805812,8.04384071 22.7715643,7.20128117 23.7761902,6.02409194 C23.8603239,5.92550664 24.4226644,4.29376229 24.5134364,4.17052519 C25.6426664,2.63742033 25.4324485,3.82714161 26.3565519,2.31695844 C27.275564,0.81509564 29.4898483,0.926783376 29.4898483,0.926783376 C29.4898483,0.926783376 31.5172754,2.31695844 32.4388331,3.47543766 C32.501143,3.84097288 32.6371277,3.62647173 32.9917678,4.17052519 C31.3329638,5.56070026 29.8584714,5.56070026 29.8584714,5.56070026 C29.8584714,5.56070026 29.3611792,5.85894044 28.383979,6.95087532 C27.7023753,7.71250719 27.6467328,8.34105038 27.6467328,8.34105038 C27.6467328,8.34105038 26.9879598,9.53393002 26.725175,10.1946171 C26.4350251,10.9241051 26.7490885,11.9687772 26.3565519,12.5115756 C25.8275307,13.2431044 26.2448837,14.349597 25.9879288,15.0602299 C25.7841048,15.6239241 24.5134364,16.9137966 24.5134364,16.9137966 L23.5918786,18.7673634 L21.9330747,21.7794093 L17.7860648,24.3280636 C17.7860648,24.3280636 15.9180157,24.698985 14.5606126,25.4865428 C12.922953,26.4367039 12.5823696,25.9653108 11.7959393,27.5718054 C11.1078772,28.9773568 12.000283,29.5021144 11.4273162,30.8155473 C10.4336348,33.0933999 10.2397718,33.1108798 9.5842007,35.9128558 C9.31821406,37.0497091 10.0278538,37.3460882 9.5842007,38.4615101 C9.10629601,39.6630466 7.55677363,41.7052519 7.55677363,41.7052519 C7.55677363,41.7052519 6.61290199,41.430265 5.71365811,41.2418602 C3.84822871,40.8510254 2.21173862,39.3882935 2.21173862,39.3882935 Z" id="Path-2" fill="#EEBF77"></path>
    </g>
</svg>