
<svg width="151px" height="150px" viewBox="60 0 151 150" version="1.1" xmlns="http://www.w3.org/2000/svg" xmlns:xlink="http://www.w3.org/1999/xlink">
    <!-- Generator: Sketch 40.3 (33839) - http://www.bohemiancoding.com/sketch -->
    <desc>Created with Sketch.</desc>
    <defs>
        <rect id="path-1" x="4.48170732" y="6.11650485" width="96.0365854" height="92.7669903" rx="15"></rect>
        <mask id="mask-2" maskContentUnits="userSpaceOnUse" maskUnits="objectBoundingBox" x="0" y="0" width="96.0365854" height="92.7669903" fill="white">
            <use xlink:href="#path-1"></use>
        </mask>
        <rect id="path-3" x="8.64" y="13.1190903" width="6.17142857" height="8.48498123"></rect>
        <mask id="mask-4" maskContentUnits="userSpaceOnUse" maskUnits="objectBoundingBox" x="0" y="0" width="6.17142857" height="8.48498123" fill="white">
            <use xlink:href="#path-3"></use>
        </mask>
        <rect id="path-5" x="17.8971429" y="13.0538173" width="6.17142857" height="8.48498123"></rect>
        <mask id="mask-6" maskContentUnits="userSpaceOnUse" maskUnits="objectBoundingBox" x="0" y="0" width="6.17142857" height="8.48498123" fill="white">
            <use xlink:href="#path-5"></use>
        </mask>
        <path d="M23.4514286,22.3633009 L23.4514286,41.9998477 L9.25714286,41.9998477 L9.25714286,22.5118307 L5.69283833,14.5062717 L9.07556666,13.000184 L12.2894465,20.2186763 L14.5028571,20.2186763 L14.5028571,13.0538173 L18.2057143,13.0538173 L18.2057143,20.2186763 L20.3529952,20.2186763 L23.566875,13.000184 L26.9496034,14.5062717 L23.4514286,22.3633009 Z" id="path-7"></path>
        <mask id="mask-8" maskContentUnits="userSpaceOnUse" maskUnits="objectBoundingBox" x="0" y="0" width="21.256765" height="28.9996637" fill="white">
            <use xlink:href="#path-7"></use>
        </mask>
    </defs>
    <g id="rectants:H2O" stroke="none" stroke-width="1" fill="none" fill-rule="evenodd" transform="translate(60.593975, 0.264128)">
        <g id="Group-8" transform="translate(74.838787, 74.355800) rotate(-45.000000) translate(-74.838787, -74.355800) translate(22.338787, 21.855800)">
            <rect id="Rectangle-9" fill="#4A6378" x="0" y="0" width="105" height="105" rx="17"></rect>
            <use id="Rectangle-9" stroke="#1E3851" mask="url(#mask-2)" stroke-width="6" fill="#2C4255" xlink:href="#path-1"></use>
        </g>
        <g id="Broccoli" transform="translate(74.606025, 73.735872) rotate(16.000000) translate(-74.606025, -73.735872) translate(58.406025, 52.735872)">
            <use id="Rectangle-3" stroke="#979797" mask="url(#mask-4)" stroke-width="2" stroke-linecap="round" fill="#294904" xlink:href="#path-3"></use>
            <use id="Rectangle-3" stroke="#979797" mask="url(#mask-6)" stroke-width="2" fill="#294904" xlink:href="#path-5"></use>
            <use id="Combined-Shape" stroke="#1D3303" mask="url(#mask-8)" stroke-width="2" stroke-linecap="round" fill="#67893B" xlink:href="#path-7"></use>
            <g id="Group" transform="translate(8.982857, 19.764706)" stroke="#538020">
                <path d="M3.20571429,5.09558824 L3.20571429,15.9044118" id="Line" stroke-linecap="square"></path>
                <path d="M2.37554155,5.16419049 C2.37554155,5.16419049 2.64883535,4.53604112 2.67692464,4.28819534 C2.70227356,4.06452917 2.68173617,3.79992621 2.68173617,3.79992621 C2.68173617,3.57941204 2.21570374,0.130684544 1.98601689,0.130684544" id="Oval-23" stroke-linecap="round" transform="translate(2.586017, 2.647438) rotate(-19.000000) translate(-2.586017, -2.647438) "></path>
            </g>
            <path d="M18.0514286,31.0367647 L18.0514286,37.8308824" id="Line" stroke="#527A25" stroke-linecap="round"></path>
            <path d="M14.9657143,22.3897059 L14.9657143,29.1838235" id="Line" stroke="#527A25" stroke-linecap="round"></path>
            <path d="M22.3714286,18.9926471 L19.9028571,23.9338235" id="Line" stroke="#527A25" stroke-linecap="round"></path>
            <path d="M20.52,27.6397059 L20.52,37.8308824" id="Line" stroke="#4F8115" stroke-linecap="round"></path>
            <path d="M25.0198335,16.3650324 C24.4072793,17.1557687 23.6517148,17.6226533 22.8342857,17.6226533 C21.5278707,17.6226533 20.3794729,16.4301167 19.7203446,14.6289315 C19.0827549,16.1977234 17.6083984,17.2963079 15.8914286,17.2963079 C14.2844206,17.2963079 12.8899452,16.3339332 12.1951545,14.9243963 C11.5247913,15.3930127 10.7284913,15.6645807 9.87428571,15.6645807 C9.54447438,15.6645807 9.22329534,15.6240966 8.91466438,15.5474175 C8.93702283,15.6924424 8.94857143,15.8404957 8.94857143,15.9909262 C8.94857143,17.7932822 7.29074582,19.2543805 5.24571429,19.2543805 C3.20068276,19.2543805 1.54285714,17.7932822 1.54285714,15.9909262 C1.54285714,15.8714365 1.55014363,15.7534468 1.56434636,15.6372832 C0.678159582,15.4670661 0,14.5213322 0,13.3801627 C0,12.1185135 0.828912806,11.0957447 1.85142857,11.0957447 C2.10311643,11.0957447 2.34307433,11.1577119 2.56182764,11.2699559 C2.76571295,10.2349412 3.28872582,9.37579582 3.97979095,8.89667974 C3.05124646,8.26999085 2.46857143,7.36723889 2.46857143,6.36373592 C2.46857143,4.47126207 4.54085344,2.93710889 7.09714286,2.93710889 C7.83252462,2.93710889 8.5278513,3.06407107 9.1453105,3.29000215 C9.52158695,2.12325186 10.3971169,1.30538173 11.4171429,1.30538173 C12.2205766,1.30538173 12.9343639,1.81279532 13.3851449,2.59844069 C14.2774133,1.04087979 15.8952003,0 17.7428571,0 C19.7394115,0 21.4675541,1.2154028 22.3018911,2.98479133 C22.8938407,2.54268842 23.6081141,2.28441802 24.3771429,2.28441802 C26.4221744,2.28441802 28.08,4.11079086 28.08,6.36373592 C28.08,6.6434164 28.0544517,6.9165231 28.0057859,7.18037807 C28.0304741,7.17985971 28.0552127,7.1795995 28.08,7.1795995 C30.4658701,7.1795995 32.4,9.59041164 32.4,12.5642991 C32.4,15.5381866 30.4658701,17.9489987 28.08,17.9489987 C26.8842826,17.9489987 25.8020276,17.343481 25.0198335,16.3650324 Z" id="Combined-Shape" stroke="#223C05" fill="#576A38"></path>
        </g>
    </g>
</svg>