
<svg width="127px" height="127px" viewBox="822 443 127 127" version="1.1" xmlns="http://www.w3.org/2000/svg" xmlns:xlink="http://www.w3.org/1999/xlink">
    <!-- Generator: Sketch 40.3 (33839) - http://www.bohemiancoding.com/sketch -->
    <desc>Created with Sketch.</desc>
    <defs>
        <ellipse id="path-1" cx="62.5862069" cy="62.5711712" rx="62.5862069" ry="62.5711712"></ellipse>
        <ellipse id="path-3" cx="63.1034483" cy="62.0540541" rx="48.6206897" ry="48.609009"></ellipse>
        <mask id="mask-4" maskContentUnits="userSpaceOnUse" maskUnits="objectBoundingBox" x="0" y="0" width="97.2413793" height="97.218018" fill="white">
            <use xlink:href="#path-3"></use>
        </mask>
        <rect id="path-5" x="8.64" y="13.1190903" width="6.17142857" height="8.48498123"></rect>
        <mask id="mask-6" maskContentUnits="userSpaceOnUse" maskUnits="objectBoundingBox" x="0" y="0" width="6.17142857" height="8.48498123" fill="white">
            <use xlink:href="#path-5"></use>
        </mask>
        <rect id="path-7" x="17.8971429" y="13.0538173" width="6.17142857" height="8.48498123"></rect>
        <mask id="mask-8" maskContentUnits="userSpaceOnUse" maskUnits="objectBoundingBox" x="0" y="0" width="6.17142857" height="8.48498123" fill="white">
            <use xlink:href="#path-7"></use>
        </mask>
        <path d="M23.4514286,22.3633009 L23.4514286,41.9998477 L9.25714286,41.9998477 L9.25714286,22.5118307 L5.69283833,14.5062717 L9.07556666,13.000184 L12.2894465,20.2186763 L14.5028571,20.2186763 L14.5028571,13.0538173 L18.2057143,13.0538173 L18.2057143,20.2186763 L20.3529952,20.2186763 L23.566875,13.000184 L26.9496034,14.5062717 L23.4514286,22.3633009 Z" id="path-9"></path>
        <mask id="mask-10" maskContentUnits="userSpaceOnUse" maskUnits="objectBoundingBox" x="0" y="0" width="21.256765" height="28.9996637" fill="white">
            <use xlink:href="#path-9"></use>
        </mask>
    </defs>
    <g id="Product" stroke="none" stroke-width="1" fill="none" fill-rule="evenodd" transform="translate(823.000000, 443.980011)">
        <g id="the-party-icons-50">
            <mask id="mask-2" fill="white">
                <use xlink:href="#path-1"></use>
            </mask>
            <use id="Mask" fill="#F4D9D3" xlink:href="#path-1"></use>
            <g id="Oval-7" mask="url(#mask-2)" stroke-width="2" stroke="#FFFFFF" fill="#EEC0B7">
                <use mask="url(#mask-4)" xlink:href="#path-3"></use>
            </g>
        </g>
        <g id="Broccoli" transform="translate(53.360824, 63.000000) rotate(16.000000) translate(-53.360824, -63.000000) translate(37.160824, 42.000000)">
            <use id="Rectangle-3" stroke="#979797" mask="url(#mask-6)" stroke-width="2" stroke-linecap="round" fill="#294904" xlink:href="#path-5"></use>
            <use id="Rectangle-3" stroke="#979797" mask="url(#mask-8)" stroke-width="2" fill="#294904" xlink:href="#path-7"></use>
            <use id="Combined-Shape" stroke="#1D3303" mask="url(#mask-10)" stroke-width="2" stroke-linecap="round" fill="#67893B" xlink:href="#path-9"></use>
            <g id="Group" transform="translate(8.982857, 19.764706)" stroke="#538020">
                <path d="M3.20571429,5.09558824 L3.20571429,15.9044118" id="Line" stroke-linecap="square"></path>
                <path d="M2.37554155,5.16419049 C2.37554155,5.16419049 2.64883535,4.53604112 2.67692464,4.28819534 C2.70227356,4.06452917 2.68173617,3.79992621 2.68173617,3.79992621 C2.68173617,3.57941204 2.21570374,0.130684544 1.98601689,0.130684544" id="Oval-23" stroke-linecap="round" transform="translate(2.586017, 2.647438) rotate(-19.000000) translate(-2.586017, -2.647438) "></path>
            </g>
            <path d="M18.0514286,31.0367647 L18.0514286,37.8308824" id="Line" stroke="#527A25" stroke-linecap="round"></path>
            <path d="M14.9657143,22.3897059 L14.9657143,29.1838235" id="Line" stroke="#527A25" stroke-linecap="round"></path>
            <path d="M22.3714286,18.9926471 L19.9028571,23.9338235" id="Line" stroke="#527A25" stroke-linecap="round"></path>
            <path d="M20.52,27.6397059 L20.52,37.8308824" id="Line" stroke="#4F8115" stroke-linecap="round"></path>
            <path d="M25.0198335,16.3650324 C24.4072793,17.1557687 23.6517148,17.6226533 22.8342857,17.6226533 C21.5278707,17.6226533 20.3794729,16.4301167 19.7203446,14.6289315 C19.0827549,16.1977234 17.6083984,17.2963079 15.8914286,17.2963079 C14.2844206,17.2963079 12.8899452,16.3339332 12.1951545,14.9243963 C11.5247913,15.3930127 10.7284913,15.6645807 9.87428571,15.6645807 C9.54447438,15.6645807 9.22329534,15.6240966 8.91466438,15.5474175 C8.93702283,15.6924424 8.94857143,15.8404957 8.94857143,15.9909262 C8.94857143,17.7932822 7.29074582,19.2543805 5.24571429,19.2543805 C3.20068276,19.2543805 1.54285714,17.7932822 1.54285714,15.9909262 C1.54285714,15.8714365 1.55014363,15.7534468 1.56434636,15.6372832 C0.678159582,15.4670661 0,14.5213322 0,13.3801627 C0,12.1185135 0.828912806,11.0957447 1.85142857,11.0957447 C2.10311643,11.0957447 2.34307433,11.1577119 2.56182764,11.2699559 C2.76571295,10.2349412 3.28872582,9.37579582 3.97979095,8.89667974 C3.05124646,8.26999085 2.46857143,7.36723889 2.46857143,6.36373592 C2.46857143,4.47126207 4.54085344,2.93710889 7.09714286,2.93710889 C7.83252462,2.93710889 8.5278513,3.06407107 9.1453105,3.29000215 C9.52158695,2.12325186 10.3971169,1.30538173 11.4171429,1.30538173 C12.2205766,1.30538173 12.9343639,1.81279532 13.3851449,2.59844069 C14.2774133,1.04087979 15.8952003,0 17.7428571,0 C19.7394115,0 21.4675541,1.2154028 22.3018911,2.98479133 C22.8938407,2.54268842 23.6081141,2.28441802 24.3771429,2.28441802 C26.4221744,2.28441802 28.08,4.11079086 28.08,6.36373592 C28.08,6.6434164 28.0544517,6.9165231 28.0057859,7.18037807 C28.0304741,7.17985971 28.0552127,7.1795995 28.08,7.1795995 C30.4658701,7.1795995 32.4,9.59041164 32.4,12.5642991 C32.4,15.5381866 30.4658701,17.9489987 28.08,17.9489987 C26.8842826,17.9489987 25.8020276,17.343481 25.0198335,16.3650324 Z" id="Combined-Shape" stroke="#223C05" fill="#576A38"></path>
        </g>
        <g id="Bacon-strip" transform="translate(88.591049, 82.534914) rotate(5.000000) translate(-88.591049, -82.534914) translate(70.767822, 61.473251)">
            <path d="M0.0910254607,37.0299285 C-0.517226511,36.4081215 2.11507243,35.2367984 2.30276408,35.1763617 C2.30276408,35.1763617 2.11114276,35.7515354 3.58565528,33.9028831 C5.46514037,31.5465012 6.00645432,27.7428056 6.00645432,27.7428056 C6.00645432,27.7428056 6.78775073,23.6325226 8.62506429,21.3267653 C10.4714619,19.0096078 13.3738766,18.4969761 13.3738766,18.4969761 C13.3738766,18.4969761 16.4308158,17.7248725 18.2683923,15.4103191 C20.1138744,13.0858081 20.739994,9.21884728 20.739994,9.21884728 C20.739994,9.21884728 21.5251093,5.15044958 23.3764681,2.84234687 C25.2223873,0.541025935 28.13455,0 28.13455,0 C28.13455,0 30.8967539,1.12776132 32.7125502,3.41559044 C34.5613409,5.74499112 35.4637241,9.2344596 35.4637241,9.2344596 C35.4637241,9.2344596 32.2433319,10.1341166 30.4248551,12.4354372 C28.5876095,14.7605102 28.1522792,18.4872467 28.1522792,18.4872467 C28.1522792,18.4872467 28.2985697,22.2044667 26.4475774,24.5183529 C24.6023941,26.8249774 21.0929128,27.2326335 21.0929128,27.2326335 C21.0929128,27.2326335 17.7770056,28.2255261 15.9418189,30.5424448 C14.0962194,32.8725098 14.283015,38.4201035 14.283015,38.4201035 C14.283015,38.4201035 10.6260245,41.6702539 7.27917598,41.6638453 C3.24064806,41.6561123 1.57796745,38.5500071 0.0910254607,37.0299285 Z" id="Path-3" fill="#F65656"></path>
            <path d="M2.21173862,39.3882935 C2.21173862,39.3882935 4.79949968,38.5470139 6.08228121,36.3762475 C7.19554985,34.4923366 7.55677363,31.7423306 7.55677363,31.7423306 C7.55677363,31.7423306 7.62418295,27.1892849 8.66264294,25.4865428 C9.7437658,23.7138473 11.7959393,23.1695844 11.7959393,23.1695844 C11.7959393,23.1695844 13.4274175,22.6489988 14.9292357,21.5477135 C16.7450255,20.2161924 17.4577114,20.7686815 19.3527129,18.9990592 C20.6831635,17.7566355 20.417361,16.7349733 21.38014,15.2919257 C22.8134111,13.1436877 21.6618228,11.7061061 22.6703209,9.96292129 C23.7805812,8.04384071 22.7715643,7.20128117 23.7761902,6.02409194 C23.8603239,5.92550664 24.4226644,4.29376229 24.5134364,4.17052519 C25.6426664,2.63742033 25.4324485,3.82714161 26.3565519,2.31695844 C27.275564,0.81509564 29.4898483,0.926783376 29.4898483,0.926783376 C29.4898483,0.926783376 31.5172754,2.31695844 32.4388331,3.47543766 C32.501143,3.84097288 32.6371277,3.62647173 32.9917678,4.17052519 C31.3329638,5.56070026 29.8584714,5.56070026 29.8584714,5.56070026 C29.8584714,5.56070026 29.3611792,5.85894044 28.383979,6.95087532 C27.7023753,7.71250719 27.6467328,8.34105038 27.6467328,8.34105038 C27.6467328,8.34105038 26.9879598,9.53393002 26.725175,10.1946171 C26.4350251,10.9241051 26.7490885,11.9687772 26.3565519,12.5115756 C25.8275307,13.2431044 26.2448837,14.349597 25.9879288,15.0602299 C25.7841048,15.6239241 24.5134364,16.9137966 24.5134364,16.9137966 L23.5918786,18.7673634 L21.9330747,21.7794093 L17.7860648,24.3280636 C17.7860648,24.3280636 15.9180157,24.698985 14.5606126,25.4865428 C12.922953,26.4367039 12.5823696,25.9653108 11.7959393,27.5718054 C11.1078772,28.9773568 12.000283,29.5021144 11.4273162,30.8155473 C10.4336348,33.0933999 10.2397718,33.1108798 9.5842007,35.9128558 C9.31821406,37.0497091 10.0278538,37.3460882 9.5842007,38.4615101 C9.10629601,39.6630466 7.55677363,41.7052519 7.55677363,41.7052519 C7.55677363,41.7052519 6.61290199,41.430265 5.71365811,41.2418602 C3.84822871,40.8510254 2.21173862,39.3882935 2.21173862,39.3882935 Z" id="Path-2" fill="#EEBF77"></path>
        </g>
        <g id="Bacon-strip" transform="translate(85.389078, 35.747871) scale(1, -1) rotate(14.000000) translate(-85.389078, -35.747871) translate(67.565851, 14.686207)">
            <path d="M0.0910254607,37.0299285 C-0.517226511,36.4081215 2.11507243,35.2367984 2.30276408,35.1763617 C2.30276408,35.1763617 2.11114276,35.7515354 3.58565528,33.9028831 C5.46514037,31.5465012 6.00645432,27.7428056 6.00645432,27.7428056 C6.00645432,27.7428056 6.78775073,23.6325226 8.62506429,21.3267653 C10.4714619,19.0096078 13.3738766,18.4969761 13.3738766,18.4969761 C13.3738766,18.4969761 16.4308158,17.7248725 18.2683923,15.4103191 C20.1138744,13.0858081 20.739994,9.21884728 20.739994,9.21884728 C20.739994,9.21884728 21.5251093,5.15044958 23.3764681,2.84234687 C25.2223873,0.541025935 28.13455,0 28.13455,0 C28.13455,0 30.8967539,1.12776132 32.7125502,3.41559044 C34.5613409,5.74499112 35.4637241,9.2344596 35.4637241,9.2344596 C35.4637241,9.2344596 32.2433319,10.1341166 30.4248551,12.4354372 C28.5876095,14.7605102 28.1522792,18.4872467 28.1522792,18.4872467 C28.1522792,18.4872467 28.2985697,22.2044667 26.4475774,24.5183529 C24.6023941,26.8249774 21.0929128,27.2326335 21.0929128,27.2326335 C21.0929128,27.2326335 17.7770056,28.2255261 15.9418189,30.5424448 C14.0962194,32.8725098 14.283015,38.4201035 14.283015,38.4201035 C14.283015,38.4201035 10.6260245,41.6702539 7.27917598,41.6638453 C3.24064806,41.6561123 1.57796745,38.5500071 0.0910254607,37.0299285 Z" id="Path-3" fill="#F65656"></path>
            <path d="M2.21173862,39.3882935 C2.21173862,39.3882935 4.79949968,38.5470139 6.08228121,36.3762475 C7.19554985,34.4923366 7.55677363,31.7423306 7.55677363,31.7423306 C7.55677363,31.7423306 7.62418295,27.1892849 8.66264294,25.4865428 C9.7437658,23.7138473 11.7959393,23.1695844 11.7959393,23.1695844 C11.7959393,23.1695844 13.4274175,22.6489988 14.9292357,21.5477135 C16.7450255,20.2161924 17.4577114,20.7686815 19.3527129,18.9990592 C20.6831635,17.7566355 20.417361,16.7349733 21.38014,15.2919257 C22.8134111,13.1436877 21.6618228,11.7061061 22.6703209,9.96292129 C23.7805812,8.04384071 22.7715643,7.20128117 23.7761902,6.02409194 C23.8603239,5.92550664 24.4226644,4.29376229 24.5134364,4.17052519 C25.6426664,2.63742033 25.4324485,3.82714161 26.3565519,2.31695844 C27.275564,0.81509564 29.4898483,0.926783376 29.4898483,0.926783376 C29.4898483,0.926783376 31.5172754,2.31695844 32.4388331,3.47543766 C32.501143,3.84097288 32.6371277,3.62647173 32.9917678,4.17052519 C31.3329638,5.56070026 29.8584714,5.56070026 29.8584714,5.56070026 C29.8584714,5.56070026 29.3611792,5.85894044 28.383979,6.95087532 C27.7023753,7.71250719 27.6467328,8.34105038 27.6467328,8.34105038 C27.6467328,8.34105038 26.9879598,9.53393002 26.725175,10.1946171 C26.4350251,10.9241051 26.7490885,11.9687772 26.3565519,12.5115756 C25.8275307,13.2431044 26.2448837,14.349597 25.9879288,15.0602299 C25.7841048,15.6239241 24.5134364,16.9137966 24.5134364,16.9137966 L23.5918786,18.7673634 L21.9330747,21.7794093 L17.7860648,24.3280636 C17.7860648,24.3280636 15.9180157,24.698985 14.5606126,25.4865428 C12.922953,26.4367039 12.5823696,25.9653108 11.7959393,27.5718054 C11.1078772,28.9773568 12.000283,29.5021144 11.4273162,30.8155473 C10.4336348,33.0933999 10.2397718,33.1108798 9.5842007,35.9128558 C9.31821406,37.0497091 10.0278538,37.3460882 9.5842007,38.4615101 C9.10629601,39.6630466 7.55677363,41.7052519 7.55677363,41.7052519 C7.55677363,41.7052519 6.61290199,41.430265 5.71365811,41.2418602 C3.84822871,40.8510254 2.21173862,39.3882935 2.21173862,39.3882935 Z" id="Path-2" fill="#EEBF77"></path>
        </g>
    </g>
</svg>