
<svg width="172px" height="155px" viewBox="44 0 172 155" version="1.1" xmlns="http://www.w3.org/2000/svg" xmlns:xlink="http://www.w3.org/1999/xlink">
    <!-- Generator: Sketch 40.3 (33839) - http://www.bohemiancoding.com/sketch -->
    <desc>Created with Sketch.</desc>
    <defs>
        <rect id="path-1" x="4.48170732" y="6.11650485" width="96.0365854" height="92.7669903" rx="15"></rect>
        <mask id="mask-2" maskContentUnits="userSpaceOnUse" maskUnits="objectBoundingBox" x="0" y="0" width="96.0365854" height="92.7669903" fill="white">
            <use xlink:href="#path-1"></use>
        </mask>
    </defs>
    <g id="Group-5" stroke="none" stroke-width="1" fill="none" fill-rule="evenodd" transform="translate(44.589996, 0.000000)">
        <g id="reactant2" transform="translate(93.008183, 77.792893) rotate(-45.000000) translate(-93.008183, -77.792893) translate(38.008183, 23.792893)">
            <g id="Group-8" transform="translate(0.000000, 0.000000)">
                <rect id="Rectangle-9" fill="#4A6278" x="0" y="0" width="105" height="105" rx="17"></rect>
                <use id="Rectangle-9" stroke="#1E3951" mask="url(#mask-2)" stroke-width="6" fill="#2C4154" xlink:href="#path-1"></use>
            </g>
            <g id="egg" transform="translate(53.000000, 22.000000)">
                <path d="M12.5121345,1.10027103 C9.65421107,2.15316401 6.89316065,3.99551132 6.89316065,3.99551132 C6.89316065,3.99551132 2.2769859,7.71262792 1.27418684,10.36504 C-0.404797056,14.8059666 -0.261782049,14.1577648 0.763371036,16.7345686 C2.67540881,21.5406276 4.25894016,21.8988005 8.93642386,25.7098135 C12.431993,28.5578532 12.9765656,29.9805976 17.1094767,30.052674 C21.2773224,30.1253596 22.0390103,29.1561858 25.5379374,25.9993375 C28.2965039,23.5104672 27.3285927,21.6240333 29.6244638,18.7612368 C30.3877912,17.809419 30.6786963,17.2071266 31.0757116,16.7345686 C31.477196,16.2566912 31.980182,15.9057201 31.9231349,14.4183764 C31.7811861,10.7174548 31.1144843,8.99422997 30.6460954,5.7326555 C30.2205567,2.76946334 26.2907147,2.15028084 23.7500821,0.810747 C20.7994448,-0.744959454 14.7623691,0.271257823 12.5121345,1.10027103 Z" id="Path-4" stroke-opacity="0.684669384" stroke="#F9D010" stroke-width="4" fill="#FFFCC1"></path>
                <ellipse id="Oval-2" fill="#FFD200" cx="18.5276138" cy="10.2653162" rx="6.89601332" ry="5.21143253"></ellipse>
            </g>
            <g id="svg-carrot" transform="translate(29.500000, 37.500000) scale(-1, 1) translate(-29.500000, -37.500000) translate(6.000000, 15.000000)">
                <g id="Group-11" transform="translate(23.330466, 22.607795) rotate(-40.000000) translate(-23.330466, -22.607795) translate(3.330466, 11.107795)">
                    <path d="M29.2972699,12.1404605 C29.2972699,12.1404605 30.6402888,2.19845332 18.1879665,6.1147268 C5.7356443,10.0310003 1.48534605,15.8555597 1.48534605,15.8555597 C-0.986093404,18.2721648 -0.256674493,20.855953 3.1535035,21.4635143 C3.1535035,21.4635143 9.04357562,23.5096875 21.1934261,21.8704489 C33.3432766,20.2312104 29.2972699,12.1404605 29.2972699,12.1404605 L29.2972699,12.1404605 Z" id="Path-9" fill="#F46C2F"></path>
                    <path d="M8.75707655,10.61101 C8.75707655,10.61101 11.5810777,12.2995568 10.6968856,17.310259" id="Path-10" stroke="#C44815" stroke-width="5"></path>
                    <path d="M16.2173836,7.10949703 C16.2173836,7.10949703 21.1626445,9.37085715 19.7374786,15.4261962" id="Path-11" stroke="#C44815" stroke-width="5"></path>
                    <path d="M30.9954176,12.5144689 C30.9954176,12.5144689 27.0802512,6.48821484 31.3088895,1.25291165 C36.170935,6.48821484 30.9954176,12.5144689 30.9954176,12.5144689 L30.9954176,12.5144689 Z" id="Path-12" fill="#6FA942" transform="translate(31.368026, 6.883690) rotate(30.000000) translate(-31.368026, -6.883690) "></path>
                    <path d="M33.181924,18.5702421 C33.181924,18.5702421 29.2667575,12.543988 33.4953959,7.30868483 C38.3574413,12.543988 33.181924,18.5702421 33.181924,18.5702421 L33.181924,18.5702421 Z" id="Path-12" fill="#6FA942" transform="translate(33.554533, 12.939463) rotate(102.000000) translate(-33.554533, -12.939463) "></path>
                </g>
            </g>
            <g id="svg-carrot" transform="translate(25.621320, 73.692388) scale(-1, 1) translate(-25.621320, -73.692388) translate(2.121320, 51.192388)">
                <g id="Group-11" transform="translate(23.330466, 22.607795) rotate(-40.000000) translate(-23.330466, -22.607795) translate(3.330466, 11.107795)">
                    <path d="M29.2972699,12.1404605 C29.2972699,12.1404605 30.6402888,2.19845332 18.1879665,6.1147268 C5.7356443,10.0310003 1.48534605,15.8555597 1.48534605,15.8555597 C-0.986093404,18.2721648 -0.256674493,20.855953 3.1535035,21.4635143 C3.1535035,21.4635143 9.04357562,23.5096875 21.1934261,21.8704489 C33.3432766,20.2312104 29.2972699,12.1404605 29.2972699,12.1404605 L29.2972699,12.1404605 Z" id="Path-9" fill="#F46C2F"></path>
                    <path d="M8.75707655,10.61101 C8.75707655,10.61101 11.5810777,12.2995568 10.6968856,17.310259" id="Path-10" stroke="#C44815" stroke-width="5"></path>
                    <path d="M16.2173836,7.10949703 C16.2173836,7.10949703 21.1626445,9.37085715 19.7374786,15.4261962" id="Path-11" stroke="#C44815" stroke-width="5"></path>
                    <path d="M30.9954176,12.5144689 C30.9954176,12.5144689 27.0802512,6.48821484 31.3088895,1.25291165 C36.170935,6.48821484 30.9954176,12.5144689 30.9954176,12.5144689 L30.9954176,12.5144689 Z" id="Path-12" fill="#6FA942" transform="translate(31.368026, 6.883690) rotate(30.000000) translate(-31.368026, -6.883690) "></path>
                    <path d="M33.181924,18.5702421 C33.181924,18.5702421 29.2667575,12.543988 33.4953959,7.30868483 C38.3574413,12.543988 33.181924,18.5702421 33.181924,18.5702421 L33.181924,18.5702421 Z" id="Path-12" fill="#6FA942" transform="translate(33.554533, 12.939463) rotate(102.000000) translate(-33.554533, -12.939463) "></path>
                </g>
            </g>
            <g id="svg-carrot" transform="translate(76.500000, 74.500000) rotate(45.000000) translate(-76.500000, -74.500000) translate(53.000000, 52.000000)">
                <g id="Group-11" transform="translate(23.330466, 22.607795) rotate(-40.000000) translate(-23.330466, -22.607795) translate(3.330466, 11.107795)">
                    <path d="M29.2972699,12.1404605 C29.2972699,12.1404605 30.6402888,2.19845332 18.1879665,6.1147268 C5.7356443,10.0310003 1.48534605,15.8555597 1.48534605,15.8555597 C-0.986093404,18.2721648 -0.256674493,20.855953 3.1535035,21.4635143 C3.1535035,21.4635143 9.04357562,23.5096875 21.1934261,21.8704489 C33.3432766,20.2312104 29.2972699,12.1404605 29.2972699,12.1404605 L29.2972699,12.1404605 Z" id="Path-9" fill="#F46C2F"></path>
                    <path d="M8.75707655,10.61101 C8.75707655,10.61101 11.5810777,12.2995568 10.6968856,17.310259" id="Path-10" stroke="#C44815" stroke-width="5"></path>
                    <path d="M16.2173836,7.10949703 C16.2173836,7.10949703 21.1626445,9.37085715 19.7374786,15.4261962" id="Path-11" stroke="#C44815" stroke-width="5"></path>
                    <path d="M30.9954176,12.5144689 C30.9954176,12.5144689 27.0802512,6.48821484 31.3088895,1.25291165 C36.170935,6.48821484 30.9954176,12.5144689 30.9954176,12.5144689 L30.9954176,12.5144689 Z" id="Path-12" fill="#6FA942" transform="translate(31.368026, 6.883690) rotate(30.000000) translate(-31.368026, -6.883690) "></path>
                    <path d="M33.181924,18.5702421 C33.181924,18.5702421 29.2667575,12.543988 33.4953959,7.30868483 C38.3574413,12.543988 33.181924,18.5702421 33.181924,18.5702421 L33.181924,18.5702421 Z" id="Path-12" fill="#6FA942" transform="translate(33.554533, 12.939463) rotate(102.000000) translate(-33.554533, -12.939463) "></path>
                </g>
            </g>
        </g>
    </g>
</svg>