
<svg width="111px" height="113px" viewBox="259 0 111 113" version="1.1" xmlns="http://www.w3.org/2000/svg" xmlns:xlink="http://www.w3.org/1999/xlink">
    <!-- Generator: Sketch 40.3 (33839) - http://www.bohemiancoding.com/sketch -->
    <desc>Created with Sketch.</desc>
    <defs>
        <ellipse id="path-1" cx="55.135468" cy="55.1222222" rx="55.135468" ry="55.1222222"></ellipse>
        <ellipse id="path-3" cx="55.591133" cy="54.6666667" rx="42.8325123" ry="42.8222222"></ellipse>
        <mask id="mask-4" maskContentUnits="userSpaceOnUse" maskUnits="objectBoundingBox" x="0" y="0" width="85.6650246" height="85.6444444" fill="white">
            <use xlink:href="#path-3"></use>
        </mask>
    </defs>
    <g id="rectant-2" stroke="none" stroke-width="1" fill="none" fill-rule="evenodd" transform="translate(314.500000, 56.477778) rotate(-180.000000) translate(-314.500000, -56.477778) translate(259.000000, 0.977778)">
        <g id="the-party-icons-50" transform="translate(0.000000, -0.000000)">
            <mask id="mask-2" fill="white">
                <use xlink:href="#path-1"></use>
            </mask>
            <use id="Mask" fill="#F4D9D3" xlink:href="#path-1"></use>
            <g id="Oval-7" mask="url(#mask-2)" stroke-width="2" stroke="#FFFFFF" fill="#EEC0B7">
                <use mask="url(#mask-4)" xlink:href="#path-3"></use>
            </g>
        </g>
        <g id="Atom" transform="translate(37.000000, 55.000000)">
            <circle id="Oval-4" fill="#74CB91" cx="19" cy="19" r="19"></circle>
            <path d="M33.7851695,26.7741162 C33.7284637,30.749909 28.3145363,30.5789347 21.0626781,26.3819656 C13.0524563,22.1736538 4.93219508,15.5182338 3.5504806,11.5269378" id="Oval-5" stroke="#FFFFFF" stroke-linecap="square" stroke-linejoin="bevel" transform="translate(18.667825, 20.586701) scale(-1, 1) translate(-18.667825, -20.586701) "></path>
            <path d="M3.70210315,11.1396973 C2.25841477,7.14840131 9.27140354,7.34521977 18.7604738,11.5690348 C27.5124566,15.781507 34.1249563,22.4110828 34.1408627,26.3868756" id="Oval-5" stroke="#FFFFFF" stroke-linecap="round"></path>
            <text id="H" font-family=".SFNSText-Bold, .SF NS Text" font-size="24" font-weight="bold" letter-spacing="-0.737142801" fill="#4A4A4A">
                <tspan x="9.80859132" y="27.6307253">H</tspan>
            </text>
            <path d="M34.156784,26.7741162 C34.1000782,30.749909 28.6861508,30.5789347 21.4342926,26.3819656 C13.4240708,22.1736538 5.30380959,15.5182338 3.92209511,11.5269378" id="Oval-5" stroke="#FFFFFF" stroke-linecap="square" stroke-linejoin="bevel"></path>
            <path d="M3.70210315,11.1396973 C2.25841477,7.14840131 9.27140354,7.34521977 18.7604738,11.5690348 C27.5124566,15.781507 34.1249563,22.4110828 34.1408627,26.3868756" id="Oval-5" stroke="#FFFFFF" stroke-linecap="round" transform="translate(18.827111, 17.328051) scale(-1, 1) translate(-18.827111, -17.328051) "></path>
        </g>
        <g id="Atom" transform="translate(37.000000, 10.000000)">
            <circle id="Oval-4" fill="#74CB91" cx="19" cy="19" r="19"></circle>
            <path d="M33.7851695,26.7741162 C33.7284637,30.749909 28.3145363,30.5789347 21.0626781,26.3819656 C13.0524563,22.1736538 4.93219508,15.5182338 3.5504806,11.5269378" id="Oval-5" stroke="#FFFFFF" stroke-linecap="square" stroke-linejoin="bevel" transform="translate(18.667825, 20.586701) scale(-1, 1) translate(-18.667825, -20.586701) "></path>
            <path d="M3.70210315,11.1396973 C2.25841477,7.14840131 9.27140354,7.34521977 18.7604738,11.5690348 C27.5124566,15.781507 34.1249563,22.4110828 34.1408627,26.3868756" id="Oval-5" stroke="#FFFFFF" stroke-linecap="round"></path>
            <text id="H" font-family=".SFNSText-Bold, .SF NS Text" font-size="24" font-weight="bold" letter-spacing="-0.737142801" fill="#4A4A4A">
                <tspan x="9.80859132" y="27.6307253">H</tspan>
            </text>
            <path d="M34.156784,26.7741162 C34.1000782,30.749909 28.6861508,30.5789347 21.4342926,26.3819656 C13.4240708,22.1736538 5.30380959,15.5182338 3.92209511,11.5269378" id="Oval-5" stroke="#FFFFFF" stroke-linecap="square" stroke-linejoin="bevel"></path>
            <path d="M3.70210315,11.1396973 C2.25841477,7.14840131 9.27140354,7.34521977 18.7604738,11.5690348 C27.5124566,15.781507 34.1249563,22.4110828 34.1408627,26.3868756" id="Oval-5" stroke="#FFFFFF" stroke-linecap="round" transform="translate(18.827111, 17.328051) scale(-1, 1) translate(-18.827111, -17.328051) "></path>
        </g>
    </g>
</svg>