
<svg width="151px" height="150px" viewBox="60 0 151 150" version="1.1" xmlns="http://www.w3.org/2000/svg" xmlns:xlink="http://www.w3.org/1999/xlink">
    <!-- Generator: Sketch 40.3 (33839) - http://www.bohemiancoding.com/sketch -->
    <desc>Created with Sketch.</desc>
    <defs>
        <rect id="path-1" x="4.48170732" y="6.11650485" width="96.0365854" height="92.7669903" rx="15"></rect>
        <mask id="mask-2" maskContentUnits="userSpaceOnUse" maskUnits="objectBoundingBox" x="0" y="0" width="96.0365854" height="92.7669903" fill="white">
            <use xlink:href="#path-1"></use>
        </mask>
    </defs>
    <g id="rectants:H2O" stroke="none" stroke-width="1" fill="none" fill-rule="evenodd" transform="translate(60.593975, 0.264128)">
        <g id="Group-8" transform="translate(74.838787, 74.355800) rotate(-45.000000) translate(-74.838787, -74.355800) translate(22.338787, 21.855800)">
            <rect id="Rectangle-9" fill="#4A6378" x="0" y="0" width="105" height="105" rx="17"></rect>
            <use id="Rectangle-9" stroke="#1E3851" mask="url(#mask-2)" stroke-width="6" fill="#2C4255" xlink:href="#path-1"></use>
        </g>
        <g id="Bacon-strip" transform="translate(28.846733, 36.187825)">
            <path d="M0.0896303424,34.8817285 C-0.509299144,34.2959942 2.08265539,33.1926224 2.26747035,33.1356918 C2.26747035,33.1356918 2.07878594,33.6774983 3.53069908,31.9360909 C5.3813779,29.7164088 5.9143953,26.1333751 5.9143953,26.1333751 C5.9143953,26.1333751 6.68371703,22.2615401 8.49287067,20.0895456 C10.3109691,17.9068123 13.1688995,17.4239197 13.1688995,17.4239197 C13.1688995,17.4239197 16.1789859,16.6966077 17.9883984,14.5163275 C19.8055955,12.3266672 20.4221187,8.6840386 20.4221187,8.6840386 C20.4221187,8.6840386 21.1952007,4.85165895 23.0181844,2.67745512 C24.8358118,0.50963965 27.7033407,0 27.7033407,0 C27.7033407,0 30.4232091,1.06233703 32.2111753,3.21744339 C34.0316302,5.41170963 34.9201829,8.6987452 34.9201829,8.6987452 C34.9201829,8.6987452 31.7491486,9.54621083 29.958543,11.714026 C28.1494563,13.9042156 27.7207982,17.4147547 27.7207982,17.4147547 C27.7207982,17.4147547 27.8648465,20.9163293 26.0422238,23.0959811 C24.225321,25.2687925 20.7696284,25.6527994 20.7696284,25.6527994 C20.7696284,25.6527994 17.5045431,26.5880918 15.6974837,28.7706002 C13.8801711,30.9654922 14.0641037,36.191256 14.0641037,36.191256 C14.0641037,36.191256 10.4631628,39.2528569 7.16761036,39.2468201 C3.19097967,39.2395357 1.55378245,36.3136235 0.0896303424,34.8817285 Z" id="Path-3" fill="#F65656"></path>
            <path d="M2.17784001,37.1032788 C2.17784001,37.1032788 4.72593927,36.3108039 5.98906002,34.2659692 C7.08526595,32.4913488 7.44095336,29.9008776 7.44095336,29.9008776 C7.44095336,29.9008776 7.50732952,25.6119656 8.52987336,24.0080039 C9.5944262,22.3381469 11.6151467,21.8254581 11.6151467,21.8254581 C11.6151467,21.8254581 13.2216198,21.335073 14.70042,20.297676 C16.4883798,19.0433999 17.1901426,19.5638376 19.0561001,17.8968756 C20.3661592,16.7265281 20.1044306,15.7641351 21.0524534,14.4048023 C22.4637572,12.3811891 21.329819,11.0270053 22.3228601,9.38494699 C23.4161038,7.57719713 22.4225517,6.78351661 23.4117801,5.67461911 C23.4946243,5.58175299 24.048346,4.04467026 24.1377267,3.92858246 C25.2496494,2.48441689 25.0426534,3.60511943 25.9525934,2.18254581 C26.8575201,0.767809877 29.0378668,0.873018324 29.0378668,0.873018324 C29.0378668,0.873018324 31.0342201,2.18254581 31.9416534,3.27381872 C32.0030083,3.61814831 32.1369088,3.41609092 32.4861134,3.92858246 C30.8527334,5.23810995 29.4008401,5.23810995 29.4008401,5.23810995 C29.4008401,5.23810995 28.9111698,5.51904846 27.9489468,6.54763743 C27.2777898,7.26508511 27.2230001,7.85716492 27.2230001,7.85716492 C27.2230001,7.85716492 26.5743239,8.98084258 26.3155668,9.60320157 C26.0298639,10.2903701 26.3391137,11.2744381 25.9525934,11.7857474 C25.4316804,12.4748383 25.8426367,13.5171405 25.5896201,14.1865478 C25.3889201,14.7175407 24.1377267,15.9325844 24.1377267,15.9325844 L23.2302934,17.6786211 L21.5969134,20.5159306 L17.5134634,22.916731 C17.5134634,22.916731 15.6740454,23.2661343 14.3374467,24.0080039 C12.724887,24.9030437 12.3895236,24.4589973 11.6151467,25.9722951 C10.9376303,27.2963069 11.8163585,27.790622 11.2521734,29.0278593 C10.2737218,31.173568 10.0828301,31.1900337 9.4373067,33.8294601 C9.17539675,34.9003616 9.87416004,35.179547 9.4373067,36.2302605 C8.96672671,37.3620928 7.44095336,39.2858246 7.44095336,39.2858246 C7.44095336,39.2858246 6.51154814,39.0267904 5.62608668,38.8493154 C3.78924814,38.4811539 2.17784001,37.1032788 2.17784001,37.1032788 Z" id="Path-2" fill="#EEBF77"></path>
        </g>
        <g id="Atom" transform="translate(78.406025, 40.735872)">
            <circle id="Oval-4" fill="#74CB91" cx="19" cy="19" r="19"></circle>
            <path d="M33.7851695,26.7741162 C33.7284637,30.749909 28.3145363,30.5789347 21.0626781,26.3819656 C13.0524563,22.1736538 4.93219508,15.5182338 3.5504806,11.5269378" id="Oval-5" stroke="#FFFFFF" stroke-linecap="square" stroke-linejoin="bevel" transform="translate(18.667825, 20.586701) scale(-1, 1) translate(-18.667825, -20.586701) "></path>
            <path d="M3.70210315,11.1396973 C2.25841477,7.14840131 9.27140354,7.34521977 18.7604738,11.5690348 C27.5124566,15.781507 34.1249563,22.4110828 34.1408627,26.3868756" id="Oval-5" stroke="#FFFFFF" stroke-linecap="round"></path>
            <text id="H" font-family=".SFNSText-Bold, .SF NS Text" font-size="24" font-weight="bold" letter-spacing="-0.737142801" fill="#4A4A4A">
                <tspan x="9.80859132" y="27.6307253">H</tspan>
            </text>
            <path d="M34.156784,26.7741162 C34.1000782,30.749909 28.6861508,30.5789347 21.4342926,26.3819656 C13.4240708,22.1736538 5.30380959,15.5182338 3.92209511,11.5269378" id="Oval-5" stroke="#FFFFFF" stroke-linecap="square" stroke-linejoin="bevel"></path>
            <path d="M3.70210315,11.1396973 C2.25841477,7.14840131 9.27140354,7.34521977 18.7604738,11.5690348 C27.5124566,15.781507 34.1249563,22.4110828 34.1408627,26.3868756" id="Oval-5" stroke="#FFFFFF" stroke-linecap="round" transform="translate(18.827111, 17.328051) scale(-1, 1) translate(-18.827111, -17.328051) "></path>
        </g>
        <g id="Atom" transform="translate(46.000000, 79.000000)">
            <circle id="Oval-4" fill="#74CB91" cx="19" cy="19" r="19"></circle>
            <path d="M33.7851695,26.7741162 C33.7284637,30.749909 28.3145363,30.5789347 21.0626781,26.3819656 C13.0524563,22.1736538 4.93219508,15.5182338 3.5504806,11.5269378" id="Oval-5" stroke="#FFFFFF" stroke-linecap="square" stroke-linejoin="bevel" transform="translate(18.667825, 20.586701) scale(-1, 1) translate(-18.667825, -20.586701) "></path>
            <path d="M3.70210315,11.1396973 C2.25841477,7.14840131 9.27140354,7.34521977 18.7604738,11.5690348 C27.5124566,15.781507 34.1249563,22.4110828 34.1408627,26.3868756" id="Oval-5" stroke="#FFFFFF" stroke-linecap="round"></path>
            <text id="H" font-family=".SFNSText-Bold, .SF NS Text" font-size="24" font-weight="bold" letter-spacing="-0.737142801" fill="#4A4A4A">
                <tspan x="9.80859132" y="27.6307253">H</tspan>
            </text>
            <path d="M34.156784,26.7741162 C34.1000782,30.749909 28.6861508,30.5789347 21.4342926,26.3819656 C13.4240708,22.1736538 5.30380959,15.5182338 3.92209511,11.5269378" id="Oval-5" stroke="#FFFFFF" stroke-linecap="square" stroke-linejoin="bevel"></path>
            <path d="M3.70210315,11.1396973 C2.25841477,7.14840131 9.27140354,7.34521977 18.7604738,11.5690348 C27.5124566,15.781507 34.1249563,22.4110828 34.1408627,26.3868756" id="Oval-5" stroke="#FFFFFF" stroke-linecap="round" transform="translate(18.827111, 17.328051) scale(-1, 1) translate(-18.827111, -17.328051) "></path>
        </g>
    </g>
</svg>