
<svg width="151px" height="150px" viewBox="60 0 151 150" version="1.1" xmlns="http://www.w3.org/2000/svg" xmlns:xlink="http://www.w3.org/1999/xlink">
    <!-- Generator: Sketch 40.3 (33839) - http://www.bohemiancoding.com/sketch -->
    <desc>Created with Sketch.</desc>
    <defs>
        <rect id="path-1" x="4.48170732" y="6.11650485" width="96.0365854" height="92.7669903" rx="15"></rect>
        <mask id="mask-2" maskContentUnits="userSpaceOnUse" maskUnits="objectBoundingBox" x="0" y="0" width="96.0365854" height="92.7669903" fill="white">
            <use xlink:href="#path-1"></use>
        </mask>
    </defs>
    <g id="rectants:H2O" stroke="none" stroke-width="1" fill="none" fill-rule="evenodd" transform="translate(60.593975, 0.264128)">
        <g id="Group-8" transform="translate(74.838787, 74.355800) rotate(-45.000000) translate(-74.838787, -74.355800) translate(22.338787, 21.855800)">
            <rect id="Rectangle-9" fill="#4A6378" x="0" y="0" width="105" height="105" rx="17"></rect>
            <use id="Rectangle-9" stroke="#1E3851" mask="url(#mask-2)" stroke-width="6" fill="#2C4255" xlink:href="#path-1"></use>
        </g>
        <g id="Chicken" transform="translate(94.128893, 50.727533) rotate(114.000000) translate(-94.128893, -50.727533) translate(74.128893, 21.227533)">
            <path d="M19.4453764,19.0084635 L5.58130805,48.9114758 C5.58130805,48.9114758 4.47747394,48.2583792 3.44175533,48.2522535 C2.83958663,48.248692 2.85823587,48.1975455 2.38190766,48.2522535 C1.75613397,48.3241259 0.810525332,48.6784719 0.625773697,49.3488956 C0.459274451,49.9530853 -0.101759356,51.8707088 0.312886849,52.4962144 C1.18763462,53.8157963 0.625773697,53.3699168 2.38190766,55.1412701 C4.65561148,57.4346787 6.64777484,55.1412701 6.64777484,55.1412701 C6.64777484,55.1412701 7.50022795,56.7746385 8.76083176,57.7564853 C9.5670648,58.3844362 10.712574,58.5129415 11.2639266,58.48758 C12.0384443,58.4519532 12.8965111,58.4492209 13.7670213,57.0253905 C14.9429919,55.1019408 12.6092017,52.4962144 12.6092017,52.4962144 L25.8441771,23.9922989 L24.7777103,19.0084635 L19.4453764,19.0084635 Z" id="Path-6" fill="#FBECCC"></path>
            <path d="M6.47441511,25.0820253 C7.85019875,15.9737916 6.9113263,18.7841432 10.1966473,11.0323672 C12.4665609,5.67646372 13.9188795,5.68011648 16.4958094,3.33850679 C19.3590649,1.33141278 19.8122809,1.095417 23.3271147,0.327865766 C25.1596575,-0.0723154688 27.0401516,-0.0980299906 28.8499828,0.206310122 C31.1394924,0.591312661 31.8521323,1.98702472 33.6753425,3.33850679 C36.1003708,5.13609563 38.5053234,9.23364667 39.115528,12.3704299 C39.115528,19.7297746 40.4129669,18.9655353 37.6839002,25.0820253 C33.3979908,34.6877718 34.2275122,32.2821153 27.6625059,40.8042618 C25.2082573,43.9901638 20.1933312,44.7688683 18.2137627,46.1565125 C17.3300757,46.7759623 17.7382076,43.4225139 16.4958094,42.8113558 C15.0181148,42.0844512 14.1007387,44.3012559 12.7735772,43.4803872 C11.6669715,42.7959354 12.5322052,40.4327976 11.3419495,39.8007148 C9.38262412,38.7602192 7.76940742,41.5411628 7.33339177,39.8007148 C6.05145411,34.6835916 6.13224544,27.3473244 6.47441511,25.0820253 Z" id="Path-5" fill="#8B572A"></path>
        </g>
        <g id="Chicken" transform="translate(50.082808, 62.741136) rotate(14.000000) translate(-50.082808, -62.741136) translate(30.082808, 33.241136)">
            <path d="M19.4453764,19.0084635 L5.58130805,48.9114758 C5.58130805,48.9114758 4.47747394,48.2583792 3.44175533,48.2522535 C2.83958663,48.248692 2.85823587,48.1975455 2.38190766,48.2522535 C1.75613397,48.3241259 0.810525332,48.6784719 0.625773697,49.3488956 C0.459274451,49.9530853 -0.101759356,51.8707088 0.312886849,52.4962144 C1.18763462,53.8157963 0.625773697,53.3699168 2.38190766,55.1412701 C4.65561148,57.4346787 6.64777484,55.1412701 6.64777484,55.1412701 C6.64777484,55.1412701 7.50022795,56.7746385 8.76083176,57.7564853 C9.5670648,58.3844362 10.712574,58.5129415 11.2639266,58.48758 C12.0384443,58.4519532 12.8965111,58.4492209 13.7670213,57.0253905 C14.9429919,55.1019408 12.6092017,52.4962144 12.6092017,52.4962144 L25.8441771,23.9922989 L24.7777103,19.0084635 L19.4453764,19.0084635 Z" id="Path-6" fill="#FBECCC"></path>
            <path d="M6.47441511,25.0820253 C7.85019875,15.9737916 6.9113263,18.7841432 10.1966473,11.0323672 C12.4665609,5.67646372 13.9188795,5.68011648 16.4958094,3.33850679 C19.3590649,1.33141278 19.8122809,1.095417 23.3271147,0.327865766 C25.1596575,-0.0723154688 27.0401516,-0.0980299906 28.8499828,0.206310122 C31.1394924,0.591312661 31.8521323,1.98702472 33.6753425,3.33850679 C36.1003708,5.13609563 38.5053234,9.23364667 39.115528,12.3704299 C39.115528,19.7297746 40.4129669,18.9655353 37.6839002,25.0820253 C33.3979908,34.6877718 34.2275122,32.2821153 27.6625059,40.8042618 C25.2082573,43.9901638 20.1933312,44.7688683 18.2137627,46.1565125 C17.3300757,46.7759623 17.7382076,43.4225139 16.4958094,42.8113558 C15.0181148,42.0844512 14.1007387,44.3012559 12.7735772,43.4803872 C11.6669715,42.7959354 12.5322052,40.4327976 11.3419495,39.8007148 C9.38262412,38.7602192 7.76940742,41.5411628 7.33339177,39.8007148 C6.05145411,34.6835916 6.13224544,27.3473244 6.47441511,25.0820253 Z" id="Path-5" fill="#8B572A"></path>
        </g>
        <g id="Atom" transform="translate(52.906025, 72.735872)">
            <circle id="Oval-4" fill="#FACC39" cx="22.5" cy="22.5" r="22.5"></circle>
            <path d="M40.0087533,31.7061902 C39.9416017,36.4143659 33.5303719,36.2118964 24.9426451,31.2418014 C15.4568561,26.2582743 5.84075733,18.3768558 4.20451649,13.6503211" id="Oval-5" stroke-opacity="0.8" stroke="#9B9B9B" stroke-linecap="square" stroke-linejoin="bevel" transform="translate(22.106635, 24.378988) scale(-1, 1) translate(-22.106635, -24.378988) "></path>
            <path d="M4.38406952,13.1917468 C2.67443855,8.46521208 10.9792937,8.69828657 22.2163505,13.7001727 C32.5805407,18.6886268 40.4111325,26.5394402 40.429969,31.2476159" id="Oval-5" stroke-opacity="0.8" stroke="#9B9B9B" stroke-linecap="round"></path>
            <text id="O" font-family=".SFNSText-Bold, .SF NS Text" font-size="36" font-weight="bold" letter-spacing="-1.1057142" fill="#4A4A4A">
                <tspan x="9.24701604" y="35.7469115">O</tspan>
            </text>
            <path d="M40.4488231,31.7061902 C40.3816715,36.4143659 33.9704417,36.2118964 25.3827149,31.2418014 C15.8969259,26.2582743 6.28082714,18.3768558 4.64458631,13.6503211" id="Oval-5" stroke-opacity="0.8" stroke="#9B9B9B" stroke-linecap="square" stroke-linejoin="bevel"></path>
            <path d="M4.38406952,13.1917468 C2.67443855,8.46521208 10.9792937,8.69828657 22.2163505,13.7001727 C32.5805407,18.6886268 40.4111325,26.5394402 40.429969,31.2476159" id="Oval-5" stroke-opacity="0.8" stroke="#9B9B9B" stroke-linecap="round" transform="translate(22.295263, 20.520060) scale(-1, 1) translate(-22.295263, -20.520060) "></path>
        </g>
    </g>
</svg>