
<svg width="112px" height="112px" viewBox="45 1 112 112" version="1.1" xmlns="http://www.w3.org/2000/svg" xmlns:xlink="http://www.w3.org/1999/xlink">
    <!-- Generator: Sketch 40.3 (33839) - http://www.bohemiancoding.com/sketch -->
    <desc>Created with Sketch.</desc>
    <defs>
        <ellipse id="path-1" cx="55.591133" cy="54.7555556" rx="41.9211823" ry="41.9111111"></ellipse>
        <mask id="mask-2" maskContentUnits="userSpaceOnUse" maskUnits="objectBoundingBox" x="0" y="0" width="83.8423645" height="83.8222222" fill="white">
            <use xlink:href="#path-1"></use>
        </mask>
    </defs>
    <g id="rectant-2" stroke="none" stroke-width="1" fill="none" fill-rule="evenodd" transform="translate(101.248768, 57.477778) rotate(-180.000000) translate(-101.248768, -57.477778) translate(45.748768, 1.977778)">
        <ellipse id="Oval-7" fill="#DFDEDE" cx="55.2561576" cy="55.2428829" rx="55.2561576" ry="55.2428829"></ellipse>
        <use id="Oval-7" stroke="#FFFFFF" mask="url(#mask-2)" stroke-width="2" fill="#CCCBCB" xlink:href="#path-1"></use>
        <g id="Chicken" transform="translate(47.466045, 73.386104) scale(-1, -1) rotate(86.000000) translate(-47.466045, -73.386104) translate(31.966045, 50.523604)">
            <path d="M15.0701667,14.7315592 L4.32551374,37.9063938 C4.32551374,37.9063938 3.47004231,37.4002439 2.66736038,37.3954965 C2.20067964,37.3927363 2.2151328,37.3530977 1.84597844,37.3954965 C1.36100382,37.4511976 0.628157132,37.7258158 0.484974615,38.2453941 C0.3559377,38.7136411 -0.078863501,40.1997993 0.242487308,40.6845661 C0.920416831,41.7072421 0.484974615,41.3616855 1.84597844,42.7344843 C3.6080989,44.511876 5.1520255,42.7344843 5.1520255,42.7344843 C5.1520255,42.7344843 5.81267666,44.0003448 6.78964462,44.7612761 C7.41447522,45.247938 8.30224486,45.3475297 8.72954308,45.3278745 C9.32979432,45.3002637 9.99479614,45.2981462 10.6694415,44.1946776 C11.5808187,42.7040041 9.77213134,40.6845661 9.77213134,40.6845661 L20.0292373,18.5940316 L19.2027255,14.7315592 L15.0701667,14.7315592 Z" id="Path-6" fill="#FBECCC"></path>
            <path d="M5.01767171,19.4385696 C6.08390403,12.3796885 5.35627788,14.557711 7.90240164,8.55008458 C9.66158471,4.39925939 10.7871316,4.40209028 12.7842523,2.58734277 C15.0032753,1.0318449 15.3545177,0.848948173 18.0785139,0.254095969 C19.4987346,-0.0560444883 20.9561175,-0.0759732427 22.3587367,0.159890344 C24.1331066,0.458267312 24.6854025,1.53994416 26.0983904,2.58734277 C27.9777874,3.98047412 29.8416256,7.15607617 30.3145342,9.58708316 C30.3145342,15.2905753 31.3200493,14.6982898 29.2050227,19.4385696 C25.8834429,26.8830231 26.5263219,25.0186394 21.4384421,31.6233029 C19.5363994,34.0923769 15.6498317,34.6958729 14.1156661,35.7712972 C13.4308087,36.2513708 13.7471109,33.6524483 12.7842523,33.1788008 C11.639039,32.6154497 10.9280725,34.3334733 9.89952236,33.6973001 C9.0419029,33.1668499 9.71245902,31.3354181 8.79001085,30.845554 C7.2715337,30.0391699 6.02129075,32.1944012 5.68337862,30.845554 C4.68987694,26.8797835 4.75249021,21.1941764 5.01767171,19.4385696 Z" id="Path-5" fill="#8B572A"></path>
        </g>
        <g id="Atom" transform="translate(80.000000, 49.000000) scale(-1, -1) translate(-80.000000, -49.000000) translate(60.000000, 29.000000)">
            <ellipse id="Oval-4" fill="#FAFAFA" cx="20" cy="20" rx="20" ry="20"></ellipse>
            <path d="M35.5633363,28.1832802 C35.503646,32.3683252 29.804775,32.1883523 22.1712401,27.7704901 C13.7394277,23.3406882 5.19178429,16.3349829 3.737348,12.1336188" id="Oval-5" stroke="#4CBDD4" stroke-linecap="square" stroke-linejoin="bevel" transform="translate(19.650342, 21.670211) scale(-1, 1) translate(-19.650342, -21.670211) "></path>
            <path d="M3.89695068,11.7259971 C2.37727871,7.52463296 9.75937215,7.73181029 19.7478671,12.1779313 C28.9604806,16.6121127 35.9210067,23.5906135 35.9377502,27.7756586" id="Oval-5" stroke="#4CBDD4" stroke-linecap="round"></path>
            <text id="Na" font-family=".SFNSText-Bold, .SF NS Text" font-size="18" font-weight="bold" letter-spacing="-0.552857101" fill="#4A4A4A">
                <tspan x="8.96031055" y="28.2194769">Na</tspan>
            </text>
            <path d="M35.9545095,28.1832802 C35.8948191,32.3683252 30.1959482,32.1883523 22.5624133,27.7704901 C14.1306008,23.3406882 5.58295746,16.3349829 4.12852117,12.1336188" id="Oval-5" stroke="#4CBDD4" stroke-linecap="square" stroke-linejoin="bevel"></path>
            <path d="M3.89695068,11.7259971 C2.37727871,7.52463296 9.75937215,7.73181029 19.7478671,12.1779313 C28.9604806,16.6121127 35.9210067,23.5906135 35.9377502,27.7756586" id="Oval-5" stroke="#4CBDD4" stroke-linecap="round" transform="translate(19.818011, 18.240054) scale(-1, 1) translate(-19.818011, -18.240054) "></path>
        </g>
        <g id="Atom" transform="translate(20.748768, 14.977778)">
            <circle id="Oval-4" fill="#FACC39" cx="19" cy="19" r="19"></circle>
            <path d="M33.7851695,26.7741162 C33.7284637,30.749909 28.3145363,30.5789347 21.0626781,26.3819656 C13.0524563,22.1736538 4.93219508,15.5182338 3.5504806,11.5269378" id="Oval-5" stroke-opacity="0.8" stroke="#9B9B9B" stroke-linecap="square" stroke-linejoin="bevel" transform="translate(18.667825, 20.586701) scale(-1, 1) translate(-18.667825, -20.586701) "></path>
            <path d="M3.70210315,11.1396973 C2.25841477,7.14840131 9.27140354,7.34521977 18.7604738,11.5690348 C27.5124566,15.781507 34.1249563,22.4110828 34.1408627,26.3868756" id="Oval-5" stroke-opacity="0.8" stroke="#9B9B9B" stroke-linecap="round"></path>
            <text id="O" font-family=".SFNSText-Bold, .SF NS Text" font-size="24" font-weight="bold" letter-spacing="-0.737142801" fill="#4A4A4A">
                <tspan x="9.80859132" y="27.6307253">O</tspan>
            </text>
            <path d="M34.156784,26.7741162 C34.1000782,30.749909 28.6861508,30.5789347 21.4342926,26.3819656 C13.4240708,22.1736538 5.30380959,15.5182338 3.92209511,11.5269378" id="Oval-5" stroke-opacity="0.8" stroke="#9B9B9B" stroke-linecap="square" stroke-linejoin="bevel"></path>
            <path d="M3.70210315,11.1396973 C2.25841477,7.14840131 9.27140354,7.34521977 18.7604738,11.5690348 C27.5124566,15.781507 34.1249563,22.4110828 34.1408627,26.3868756" id="Oval-5" stroke-opacity="0.8" stroke="#9B9B9B" stroke-linecap="round" transform="translate(18.827111, 17.328051) scale(-1, 1) translate(-18.827111, -17.328051) "></path>
        </g>
    </g>
</svg>