
<svg width="112px" height="113px" viewBox="259 -1 112 113" version="1.1" xmlns="http://www.w3.org/2000/svg" xmlns:xlink="http://www.w3.org/1999/xlink">
    <!-- Generator: Sketch 40.3 (33839) - http://www.bohemiancoding.com/sketch -->
    <desc>Created with Sketch.</desc>
    <defs>
        <ellipse id="path-1" cx="55.135468" cy="55.1222222" rx="55.135468" ry="55.1222222"></ellipse>
        <ellipse id="path-3" cx="55.591133" cy="54.6666667" rx="42.8325123" ry="42.8222222"></ellipse>
        <mask id="mask-4" maskContentUnits="userSpaceOnUse" maskUnits="objectBoundingBox" x="0" y="0" width="85.6650246" height="85.6444444" fill="white">
            <use xlink:href="#path-3"></use>
        </mask>
    </defs>
    <g id="rectant-2" stroke="none" stroke-width="1" fill="none" fill-rule="evenodd" transform="translate(315.000000, 56.477778) rotate(-180.000000) translate(-315.000000, -56.477778) translate(259.000000, 0.977778)">
        <g id="the-party-icons-50" transform="translate(1.000000, 0.000000)">
            <mask id="mask-2" fill="white">
                <use xlink:href="#path-1"></use>
            </mask>
            <use id="Mask" fill="#F4D9D3" xlink:href="#path-1"></use>
            <g id="Oval-7" mask="url(#mask-2)" stroke-width="2" stroke="#FFFFFF" fill="#EEC0B7">
                <use mask="url(#mask-4)" xlink:href="#path-3"></use>
            </g>
        </g>
        <g id="svg-carrot" transform="translate(26.476893, 62.978723) scale(-1, -1) rotate(5.000000) translate(-26.476893, -62.978723) translate(2.476893, 40.000000)">
            <g id="Group-11" transform="translate(23.826859, 23.088812) rotate(-40.000000) translate(-23.826859, -23.088812) translate(3.401327, 11.344131)">
                <path d="M29.9206161,12.3987681 C29.9206161,12.3987681 31.2922098,2.24522893 18.5749446,6.24482737 C5.85767928,10.2444258 1.51694916,16.1929121 1.51694916,16.1929121 C-1.00707411,18.6609343 -0.262135653,21.2996967 3.22059932,21.9201848 C3.22059932,21.9201848 9.23599213,24.0098936 21.64435,22.3357776 C34.052708,20.6616616 29.9206161,12.3987681 29.9206161,12.3987681 L29.9206161,12.3987681 Z" id="Path-9" fill="#F46C2F"></path>
                <path d="M8.94339733,10.8367761 C8.94339733,10.8367761 11.8274836,12.5612495 10.924479,17.6785624" id="Path-10" stroke="#C44815" stroke-width="5"></path>
                <path d="M16.5624343,7.26076292 C16.5624343,7.26076292 21.6129135,9.57023709 20.157425,15.7544132" id="Path-11" stroke="#C44815" stroke-width="5"></path>
                <path d="M31.6548946,12.7807342 C31.6548946,12.7807342 27.6564267,6.62626196 31.9750361,1.27956935 C36.9405293,6.62626196 31.6548946,12.7807342 31.6548946,12.7807342 L31.6548946,12.7807342 Z" id="Path-12" fill="#6FA942" transform="translate(32.035431, 7.030152) rotate(30.000000) translate(-32.035431, -7.030152) "></path>
                <path d="M33.8879223,18.9653536 C33.8879223,18.9653536 29.8894545,12.8108814 34.2080639,7.46418876 C39.1735571,12.8108814 33.8879223,18.9653536 33.8879223,18.9653536 L33.8879223,18.9653536 Z" id="Path-12" fill="#6FA942" transform="translate(34.268459, 13.214771) rotate(102.000000) translate(-34.268459, -13.214771) "></path>
            </g>
        </g>
        <g id="svg-carrot" transform="translate(39.478747, 28.957528) scale(-1, -1) rotate(5.000000) translate(-39.478747, -28.957528) translate(15.478747, 5.957528)">
            <g id="Group-11" transform="translate(23.826859, 23.088812) rotate(-40.000000) translate(-23.826859, -23.088812) translate(3.401327, 11.344131)">
                <path d="M29.9206161,12.3987681 C29.9206161,12.3987681 31.2922098,2.24522893 18.5749446,6.24482737 C5.85767928,10.2444258 1.51694916,16.1929121 1.51694916,16.1929121 C-1.00707411,18.6609343 -0.262135653,21.2996967 3.22059932,21.9201848 C3.22059932,21.9201848 9.23599213,24.0098936 21.64435,22.3357776 C34.052708,20.6616616 29.9206161,12.3987681 29.9206161,12.3987681 L29.9206161,12.3987681 Z" id="Path-9" fill="#F46C2F"></path>
                <path d="M8.94339733,10.8367761 C8.94339733,10.8367761 11.8274836,12.5612495 10.924479,17.6785624" id="Path-10" stroke="#C44815" stroke-width="5"></path>
                <path d="M16.5624343,7.26076292 C16.5624343,7.26076292 21.6129135,9.57023709 20.157425,15.7544132" id="Path-11" stroke="#C44815" stroke-width="5"></path>
                <path d="M31.6548946,12.7807342 C31.6548946,12.7807342 27.6564267,6.62626196 31.9750361,1.27956935 C36.9405293,6.62626196 31.6548946,12.7807342 31.6548946,12.7807342 L31.6548946,12.7807342 Z" id="Path-12" fill="#6FA942" transform="translate(32.035431, 7.030152) rotate(30.000000) translate(-32.035431, -7.030152) "></path>
                <path d="M33.8879223,18.9653536 C33.8879223,18.9653536 29.8894545,12.8108814 34.2080639,7.46418876 C39.1735571,12.8108814 33.8879223,18.9653536 33.8879223,18.9653536 L33.8879223,18.9653536 Z" id="Path-12" fill="#6FA942" transform="translate(34.268459, 13.214771) rotate(102.000000) translate(-34.268459, -13.214771) "></path>
            </g>
        </g>
        <g id="Atom" transform="translate(74.000000, 59.977778) scale(-1, -1) translate(-74.000000, -59.977778) translate(50.000000, 35.977778)">
            <circle id="Oval-4" fill="#FAFAFA" cx="24" cy="24" r="24"></circle>
            <path d="M42.6760035,33.8199362 C42.6043752,38.8419903 35.76573,38.6260228 26.6054881,33.3245882 C16.4873132,28.0088259 6.23014115,19.6019795 4.48481759,14.5603425" id="Oval-5" stroke="#4CBDD4" stroke-linecap="square" stroke-linejoin="bevel" transform="translate(23.580411, 26.004254) scale(-1, 1) translate(-23.580411, -26.004254) "></path>
            <path d="M4.67634082,14.0711966 C2.85273445,9.02955955 11.7112466,9.27817235 23.6974405,14.6135176 C34.7525767,19.9345352 43.105208,28.3087362 43.1253003,33.3307903" id="Oval-5" stroke="#4CBDD4" stroke-linecap="round"></path>
            <text id="Na" font-family=".SFNSText-Bold, .SF NS Text" font-size="20" font-weight="bold" letter-spacing="-0.614285648" fill="#4A4A4A">
                <tspan x="10.7523727" y="32.8633723">Mg</tspan>
            </text>
            <path d="M43.1454114,33.8199362 C43.073783,38.8419903 36.2351378,38.6260228 27.0748959,33.3245882 C16.956721,28.0088259 6.69954895,19.6019795 4.9542254,14.5603425" id="Oval-5" stroke="#4CBDD4" stroke-linecap="square" stroke-linejoin="bevel"></path>
            <path d="M4.67634082,14.0711966 C2.85273445,9.02955955 11.7112466,9.27817235 23.6974405,14.6135176 C34.7525767,19.9345352 43.105208,28.3087362 43.1253003,33.3307903" id="Oval-5" stroke="#4CBDD4" stroke-linecap="round" transform="translate(23.781614, 21.888064) scale(-1, 1) translate(-23.781614, -21.888064) "></path>
        </g>
    </g>
</svg>