
<svg width="112px" height="112px" viewBox="45 1 112 112" version="1.1" xmlns="http://www.w3.org/2000/svg" xmlns:xlink="http://www.w3.org/1999/xlink">
    <!-- Generator: Sketch 40.3 (33839) - http://www.bohemiancoding.com/sketch -->
    <desc>Created with Sketch.</desc>
    <defs>
        <ellipse id="path-1" cx="55.591133" cy="54.7555556" rx="41.9211823" ry="41.9111111"></ellipse>
        <mask id="mask-2" maskContentUnits="userSpaceOnUse" maskUnits="objectBoundingBox" x="0" y="0" width="83.8423645" height="83.8222222" fill="white">
            <use xlink:href="#path-1"></use>
        </mask>
    </defs>
    <g id="rectant-2" stroke="none" stroke-width="1" fill="none" fill-rule="evenodd" transform="translate(101.248768, 57.477778) rotate(-180.000000) translate(-101.248768, -57.477778) translate(45.748768, 1.977778)">
        <ellipse id="Oval-7" fill="#DFDEDE" cx="55.2561576" cy="55.2428829" rx="55.2561576" ry="55.2428829"></ellipse>
        <use id="Oval-7" stroke="#FFFFFF" mask="url(#mask-2)" stroke-width="2" fill="#CCCBCB" xlink:href="#path-1"></use>
        <g id="egg" transform="translate(65.000000, 66.000000)">
            <path d="M12.5121345,1.10027103 C9.65421107,2.15316401 6.89316065,3.99551132 6.89316065,3.99551132 C6.89316065,3.99551132 2.2769859,7.71262792 1.27418684,10.36504 C-0.404797056,14.8059666 -0.261782049,14.1577648 0.763371036,16.7345686 C2.67540881,21.5406276 4.25894016,21.8988005 8.93642386,25.7098135 C12.431993,28.5578532 12.9765656,29.9805976 17.1094767,30.052674 C21.2773224,30.1253596 22.0390103,29.1561858 25.5379374,25.9993375 C28.2965039,23.5104672 27.3285927,21.6240333 29.6244638,18.7612368 C30.3877912,17.809419 30.6786963,17.2071266 31.0757116,16.7345686 C31.477196,16.2566912 31.980182,15.9057201 31.9231349,14.4183764 C31.7811861,10.7174548 31.1144843,8.99422997 30.6460954,5.7326555 C30.2205567,2.76946334 26.2907147,2.15028084 23.7500821,0.810747 C20.7994448,-0.744959454 14.7623691,0.271257823 12.5121345,1.10027103 Z" id="Path-4" stroke-opacity="0.684669384" stroke="#F9D010" stroke-width="4" fill="#FFFCC1"></path>
            <ellipse id="Oval-2" fill="#FFD200" cx="18.5276138" cy="10.2653162" rx="6.89601332" ry="5.21143253"></ellipse>
        </g>
        <g id="egg" transform="translate(23.000000, 66.000000)">
            <path d="M12.5121345,1.10027103 C9.65421107,2.15316401 6.89316065,3.99551132 6.89316065,3.99551132 C6.89316065,3.99551132 2.2769859,7.71262792 1.27418684,10.36504 C-0.404797056,14.8059666 -0.261782049,14.1577648 0.763371036,16.7345686 C2.67540881,21.5406276 4.25894016,21.8988005 8.93642386,25.7098135 C12.431993,28.5578532 12.9765656,29.9805976 17.1094767,30.052674 C21.2773224,30.1253596 22.0390103,29.1561858 25.5379374,25.9993375 C28.2965039,23.5104672 27.3285927,21.6240333 29.6244638,18.7612368 C30.3877912,17.809419 30.6786963,17.2071266 31.0757116,16.7345686 C31.477196,16.2566912 31.980182,15.9057201 31.9231349,14.4183764 C31.7811861,10.7174548 31.1144843,8.99422997 30.6460954,5.7326555 C30.2205567,2.76946334 26.2907147,2.15028084 23.7500821,0.810747 C20.7994448,-0.744959454 14.7623691,0.271257823 12.5121345,1.10027103 Z" id="Path-4" stroke-opacity="0.684669384" stroke="#F9D010" stroke-width="4" fill="#FFFCC1"></path>
            <ellipse id="Oval-2" fill="#FFD200" cx="18.5276138" cy="10.2653162" rx="6.89601332" ry="5.21143253"></ellipse>
        </g>
        <g id="Atom" transform="translate(69.000000, 33.000000)">
            <circle id="Oval-4" fill="#FACC39" cx="15" cy="15" r="15"></circle>
            <path d="M26.6725022,21.1374601 C26.6277345,24.2762439 22.3535813,24.1412643 16.6284301,20.8278676 C10.3045707,17.5055162 3.89383822,12.2512372 2.803011,9.10021407" id="Oval-5" stroke-opacity="0.8" stroke="#9B9B9B" stroke-linecap="square" stroke-linejoin="bevel" transform="translate(14.737757, 16.252658) scale(-1, 1) translate(-14.737757, -16.252658) "></path>
            <path d="M2.92271301,8.79449786 C1.78295903,5.64347472 7.31952911,5.79885772 14.8109003,9.13344849 C21.7203605,12.4590845 26.940755,17.6929601 26.9533127,20.8317439" id="Oval-5" stroke-opacity="0.8" stroke="#9B9B9B" stroke-linecap="round"></path>
            <text id="O" font-family=".SFNSText-Bold, .SF NS Text" font-size="18" font-weight="bold" letter-spacing="-0.552857101" fill="#4A4A4A">
                <tspan x="7.74362473" y="22.6558357">O</tspan>
            </text>
            <path d="M26.9658821,21.1374601 C26.9211144,24.2762439 22.6469612,24.1412643 16.9218099,20.8278676 C10.5979506,17.5055162 4.1872181,12.2512372 3.09639088,9.10021407" id="Oval-5" stroke-opacity="0.8" stroke="#9B9B9B" stroke-linecap="square" stroke-linejoin="bevel"></path>
            <path d="M2.92271301,8.79449786 C1.78295903,5.64347472 7.31952911,5.79885772 14.8109003,9.13344849 C21.7203605,12.4590845 26.940755,17.6929601 26.9533127,20.8317439" id="Oval-5" stroke-opacity="0.8" stroke="#9B9B9B" stroke-linecap="round" transform="translate(14.863509, 13.680040) scale(-1, 1) translate(-14.863509, -13.680040) "></path>
        </g>
        <g id="Atom" transform="translate(17.000000, 33.000000)">
            <circle id="Oval-4" fill="#FACC39" cx="15" cy="15" r="15"></circle>
            <path d="M26.6725022,21.1374601 C26.6277345,24.2762439 22.3535813,24.1412643 16.6284301,20.8278676 C10.3045707,17.5055162 3.89383822,12.2512372 2.803011,9.10021407" id="Oval-5" stroke-opacity="0.8" stroke="#9B9B9B" stroke-linecap="square" stroke-linejoin="bevel" transform="translate(14.737757, 16.252658) scale(-1, 1) translate(-14.737757, -16.252658) "></path>
            <path d="M2.92271301,8.79449786 C1.78295903,5.64347472 7.31952911,5.79885772 14.8109003,9.13344849 C21.7203605,12.4590845 26.940755,17.6929601 26.9533127,20.8317439" id="Oval-5" stroke-opacity="0.8" stroke="#9B9B9B" stroke-linecap="round"></path>
            <text id="O" font-family=".SFNSText-Bold, .SF NS Text" font-size="18" font-weight="bold" letter-spacing="-0.552857101" fill="#4A4A4A">
                <tspan x="7.74362473" y="22.6558357">O</tspan>
            </text>
            <path d="M26.9658821,21.1374601 C26.9211144,24.2762439 22.6469612,24.1412643 16.9218099,20.8278676 C10.5979506,17.5055162 4.1872181,12.2512372 3.09639088,9.10021407" id="Oval-5" stroke-opacity="0.8" stroke="#9B9B9B" stroke-linecap="square" stroke-linejoin="bevel"></path>
            <path d="M2.92271301,8.79449786 C1.78295903,5.64347472 7.31952911,5.79885772 14.8109003,9.13344849 C21.7203605,12.4590845 26.940755,17.6929601 26.9533127,20.8317439" id="Oval-5" stroke-opacity="0.8" stroke="#9B9B9B" stroke-linecap="round" transform="translate(14.863509, 13.680040) scale(-1, 1) translate(-14.863509, -13.680040) "></path>
        </g>
        <g id="Atom" transform="translate(43.000000, 11.000000)">
            <circle id="Oval-4" fill="#FACC39" cx="15" cy="15" r="15"></circle>
            <path d="M26.6725022,21.1374601 C26.6277345,24.2762439 22.3535813,24.1412643 16.6284301,20.8278676 C10.3045707,17.5055162 3.89383822,12.2512372 2.803011,9.10021407" id="Oval-5" stroke-opacity="0.8" stroke="#9B9B9B" stroke-linecap="square" stroke-linejoin="bevel" transform="translate(14.737757, 16.252658) scale(-1, 1) translate(-14.737757, -16.252658) "></path>
            <path d="M2.92271301,8.79449786 C1.78295903,5.64347472 7.31952911,5.79885772 14.8109003,9.13344849 C21.7203605,12.4590845 26.940755,17.6929601 26.9533127,20.8317439" id="Oval-5" stroke-opacity="0.8" stroke="#9B9B9B" stroke-linecap="round"></path>
            <text id="O" font-family=".SFNSText-Bold, .SF NS Text" font-size="18" font-weight="bold" letter-spacing="-0.552857101" fill="#4A4A4A">
                <tspan x="7.74362473" y="22.6558357">O</tspan>
            </text>
            <path d="M26.9658821,21.1374601 C26.9211144,24.2762439 22.6469612,24.1412643 16.9218099,20.8278676 C10.5979506,17.5055162 4.1872181,12.2512372 3.09639088,9.10021407" id="Oval-5" stroke-opacity="0.8" stroke="#9B9B9B" stroke-linecap="square" stroke-linejoin="bevel"></path>
            <path d="M2.92271301,8.79449786 C1.78295903,5.64347472 7.31952911,5.79885772 14.8109003,9.13344849 C21.7203605,12.4590845 26.940755,17.6929601 26.9533127,20.8317439" id="Oval-5" stroke-opacity="0.8" stroke="#9B9B9B" stroke-linecap="round" transform="translate(14.863509, 13.680040) scale(-1, 1) translate(-14.863509, -13.680040) "></path>
        </g>
    </g>
</svg>