
<svg width="151px" height="151px" viewBox="62 -1 151 151" version="1.1" xmlns="http://www.w3.org/2000/svg" xmlns:xlink="http://www.w3.org/1999/xlink">
    <!-- Generator: Sketch 40.3 (33839) - http://www.bohemiancoding.com/sketch -->
    <desc>Created with Sketch.</desc>
    <defs>
        <rect id="path-1" x="4.48170732" y="6.11650485" width="96.0365854" height="92.7669903" rx="15"></rect>
        <mask id="mask-2" maskContentUnits="userSpaceOnUse" maskUnits="objectBoundingBox" x="0" y="0" width="96.0365854" height="92.7669903" fill="white">
            <use xlink:href="#path-1"></use>
        </mask>
    </defs>
    <g id="Group-5" stroke="none" stroke-width="1" fill="none" fill-rule="evenodd" transform="translate(62.000000, 0.000000)">
        <g id="reactant2" transform="translate(75.179756, 74.500000) rotate(-45.000000) translate(-75.179756, -74.500000) translate(22.679756, 22.000000)">
            <g id="Group-8" transform="translate(0.000000, 0.000000)">
                <rect id="Rectangle-9" fill="#4A6278" x="0" y="0" width="105" height="105" rx="17"></rect>
                <use id="Rectangle-9" stroke="#1E3951" mask="url(#mask-2)" stroke-width="6" fill="#2C4154" xlink:href="#path-1"></use>
            </g>
        </g>
        <g id="Atom" transform="translate(41.500000, 44.000000)">
            <circle id="Oval-4" fill="#FAFAFA" cx="24" cy="24" r="24"></circle>
            <path d="M42.6760035,33.8199362 C42.6043752,38.8419903 35.76573,38.6260228 26.6054881,33.3245882 C16.4873132,28.0088259 6.23014115,19.6019795 4.48481759,14.5603425" id="Oval-5" stroke="#4CBDD4" stroke-linecap="square" stroke-linejoin="bevel" transform="translate(23.580411, 26.004254) scale(-1, 1) translate(-23.580411, -26.004254) "></path>
            <path d="M4.67634082,14.0711966 C2.85273445,9.02955955 11.7112466,9.27817235 23.6974405,14.6135176 C34.7525767,19.9345352 43.105208,28.3087362 43.1253003,33.3307903" id="Oval-5" stroke="#4CBDD4" stroke-linecap="round"></path>
            <text id="Mg" font-family=".SFNSText-Bold, .SF NS Text" font-size="18" font-weight="bold" letter-spacing="-0.552857101" fill="#4A4A4A">
                <tspan x="10.7523727" y="30.8633723">Mg</tspan>
            </text>
            <path d="M43.1454114,33.8199362 C43.073783,38.8419903 36.2351378,38.6260228 27.0748959,33.3245882 C16.956721,28.0088259 6.69954895,19.6019795 4.9542254,14.5603425" id="Oval-5" stroke="#4CBDD4" stroke-linecap="square" stroke-linejoin="bevel"></path>
            <path d="M4.67634082,14.0711966 C2.85273445,9.02955955 11.7112466,9.27817235 23.6974405,14.6135176 C34.7525767,19.9345352 43.105208,28.3087362 43.1253003,33.3307903" id="Oval-5" stroke="#4CBDD4" stroke-linecap="round" transform="translate(23.781614, 21.888064) scale(-1, 1) translate(-23.781614, -21.888064) "></path>
        </g>
        <g id="Atom" transform="translate(90.000000, 54.000000)">
            <circle id="Oval-4" fill="#FACC39" cx="19" cy="19" r="19"></circle>
            <path d="M33.7851695,26.7741162 C33.7284637,30.749909 28.3145363,30.5789347 21.0626781,26.3819656 C13.0524563,22.1736538 4.93219508,15.5182338 3.5504806,11.5269378" id="Oval-5" stroke-opacity="0.8" stroke="#9B9B9B" stroke-linecap="square" stroke-linejoin="bevel" transform="translate(18.667825, 20.586701) scale(-1, 1) translate(-18.667825, -20.586701) "></path>
            <path d="M3.70210315,11.1396973 C2.25841477,7.14840131 9.27140354,7.34521977 18.7604738,11.5690348 C27.5124566,15.781507 34.1249563,22.4110828 34.1408627,26.3868756" id="Oval-5" stroke-opacity="0.8" stroke="#9B9B9B" stroke-linecap="round"></path>
            <text id="O" font-family=".SFNSText-Bold, .SF NS Text" font-size="24" font-weight="bold" letter-spacing="-0.737142801" fill="#4A4A4A">
                <tspan x="9.80859132" y="27.6307253">O</tspan>
            </text>
            <path d="M34.156784,26.7741162 C34.1000782,30.749909 28.6861508,30.5789347 21.4342926,26.3819656 C13.4240708,22.1736538 5.30380959,15.5182338 3.92209511,11.5269378" id="Oval-5" stroke-opacity="0.8" stroke="#9B9B9B" stroke-linecap="square" stroke-linejoin="bevel"></path>
            <path d="M3.70210315,11.1396973 C2.25841477,7.14840131 9.27140354,7.34521977 18.7604738,11.5690348 C27.5124566,15.781507 34.1249563,22.4110828 34.1408627,26.3868756" id="Oval-5" stroke-opacity="0.8" stroke="#9B9B9B" stroke-linecap="round" transform="translate(18.827111, 17.328051) scale(-1, 1) translate(-18.827111, -17.328051) "></path>
        </g>
    </g>
</svg>