
<svg width="112px" height="112px" viewBox="45 1 112 112" version="1.1" xmlns="http://www.w3.org/2000/svg" xmlns:xlink="http://www.w3.org/1999/xlink">
    <!-- Generator: Sketch 40.3 (33839) - http://www.bohemiancoding.com/sketch -->
    <desc>Created with Sketch.</desc>
    <defs>
        <ellipse id="path-1" cx="55.591133" cy="54.7555556" rx="41.9211823" ry="41.9111111"></ellipse>
        <mask id="mask-2" maskContentUnits="userSpaceOnUse" maskUnits="objectBoundingBox" x="0" y="0" width="83.8423645" height="83.8222222" fill="white">
            <use xlink:href="#path-1"></use>
        </mask>
    </defs>
    <g id="rectant-2" stroke="none" stroke-width="1" fill="none" fill-rule="evenodd" transform="translate(101.248768, 57.477778) rotate(-180.000000) translate(-101.248768, -57.477778) translate(45.748768, 1.977778)">
        <ellipse id="Oval-7" fill="#DFDEDE" cx="55.2561576" cy="55.2428829" rx="55.2561576" ry="55.2428829"></ellipse>
        <use id="Oval-7" stroke="#FFFFFF" mask="url(#mask-2)" stroke-width="2" fill="#CCCBCB" xlink:href="#path-1"></use>
        <g id="Bacon-strip" transform="translate(28.964462, 38.048794) rotate(180.000000) translate(-28.964462, -38.048794) translate(12.464462, 19.048794)">
            <path d="M0.0829542376,33.7383793 C-0.471364061,33.1718441 1.92752906,32.1046385 2.0985781,32.049574 C2.0985781,32.049574 1.92394783,32.5736211 3.2677154,30.8892935 C4.98054664,28.7423678 5.47386231,25.2767784 5.47386231,25.2767784 C5.47386231,25.2767784 6.18588121,21.5318539 7.86028027,19.4310528 C9.54295787,17.3198649 12.1880156,16.8528005 12.1880156,16.8528005 C12.1880156,16.8528005 14.9738961,16.1493283 16.6485348,14.040513 C18.3303782,11.9226251 18.9009797,8.39939419 18.9009797,8.39939419 C18.9009797,8.39939419 19.6164789,4.69263184 21.3036779,2.58969381 C22.9859194,0.492934741 25.6398609,-1.70530257e-13 25.6398609,-1.70530257e-13 C25.6398609,-1.70530257e-13 28.1571402,1.02751587 29.81193,3.1119824 C31.4967885,5.23432524 32.3191574,8.41361875 32.3191574,8.41361875 C32.3191574,8.41361875 29.3843172,9.23330624 27.7270847,11.330065 C26.0527475,13.4484648 25.656018,16.8439359 25.656018,16.8439359 C25.656018,16.8439359 25.7893369,20.2307363 24.102472,22.3389437 C22.420901,24.4405349 19.2226053,24.811955 19.2226053,24.811955 C19.2226053,24.811955 16.2007194,25.7165904 14.5282586,27.8275608 C12.8463083,29.9505089 13.0165407,35.0049832 13.0165407,35.0049832 C13.0165407,35.0049832 9.68381546,37.9662313 6.63373181,37.9603924 C2.95329995,37.9533468 1.43804916,35.1233398 0.0829542376,33.7383793 Z" id="Path-3" fill="#F65656"></path>
            <path d="M2.01562387,35.8871118 C2.01562387,35.8871118 4.37392828,35.1206126 5.54296564,33.1428033 C6.5575208,31.4263511 6.88671488,28.9207901 6.88671488,28.9207901 C6.88671488,28.9207901 6.94814703,24.7724596 7.89452681,23.2210724 C8.87978657,21.6059497 10.749994,21.1100658 10.749994,21.1100658 C10.749994,21.1100658 12.2368091,20.6357544 13.6054611,19.6323612 C15.2602449,18.4191975 15.9097369,18.9225764 17.6367088,17.3102539 C18.8491884,16.1782679 18.6069546,15.2474201 19.4843641,13.9326434 C20.7905471,11.9753599 19.7410701,10.6655634 20.6601446,9.07732829 C21.6719582,7.32883265 20.7524108,6.56116729 21.6679566,5.4886171 C21.7446302,5.39879494 22.2571079,3.91209453 22.3398312,3.79981184 C23.3689325,2.40298296 23.1773545,3.48695125 24.0195178,2.11100658 C24.8570411,0.742642694 26.8749849,0.844402631 26.8749849,0.844402631 C26.8749849,0.844402631 28.7226401,2.11100658 29.5624834,3.16650987 C29.6192682,3.49955307 29.7431952,3.30411869 30.0663894,3.79981184 C28.5546715,5.06641579 27.2109222,5.06641579 27.2109222,5.06641579 C27.2109222,5.06641579 26.7577249,5.33814573 25.867173,6.33301974 C25.246007,7.02695099 25.1952983,7.59962368 25.1952983,7.59962368 C25.1952983,7.59962368 24.5949387,8.68646957 24.3554551,9.28842895 C24.0910327,9.95307352 24.3772481,10.9048859 24.0195178,11.3994355 C23.5374049,12.0659395 23.9177512,13.0740773 23.6835804,13.7215428 C23.4978295,14.2351309 22.3398312,15.410348 22.3398312,15.410348 L21.4999879,17.0991533 L19.98827,19.8434618 L16.2089753,22.1655691 C16.2089753,22.1655691 14.5065661,22.5035197 13.2695238,23.2210724 C11.7770754,24.0867746 11.4666915,23.6572832 10.749994,25.1209783 C10.1229423,26.4015917 10.9362185,26.8797042 10.4140566,28.0763875 C9.5084849,30.1517644 9.33181176,30.1676904 8.73437009,32.720602 C8.49196848,33.7564016 9.13868447,34.0264359 8.73437009,35.0427092 C8.29884119,36.1374425 6.88671488,37.9981184 6.88671488,37.9981184 C6.88671488,37.9981184 6.0265363,37.7475748 5.20702832,37.5759171 C3.50700646,37.2198231 2.01562387,35.8871118 2.01562387,35.8871118 Z" id="Path-2" fill="#EEBF77"></path>
        </g>
        <g id="Chicken" transform="translate(51.966045, 73.023604) scale(-1, -1) rotate(86.000000) translate(-51.966045, -73.023604) translate(31.966045, 43.523604)">
            <path d="M19.4453764,19.0084635 L5.58130805,48.9114758 C5.58130805,48.9114758 4.47747394,48.2583792 3.44175533,48.2522535 C2.83958663,48.248692 2.85823587,48.1975455 2.38190766,48.2522535 C1.75613397,48.3241259 0.810525332,48.6784719 0.625773697,49.3488956 C0.459274451,49.9530853 -0.101759356,51.8707088 0.312886849,52.4962144 C1.18763462,53.8157963 0.625773697,53.3699168 2.38190766,55.1412701 C4.65561148,57.4346787 6.64777484,55.1412701 6.64777484,55.1412701 C6.64777484,55.1412701 7.50022795,56.7746385 8.76083176,57.7564853 C9.5670648,58.3844362 10.712574,58.5129415 11.2639266,58.48758 C12.0384443,58.4519532 12.8965111,58.4492209 13.7670213,57.0253905 C14.9429919,55.1019408 12.6092017,52.4962144 12.6092017,52.4962144 L25.8441771,23.9922989 L24.7777103,19.0084635 L19.4453764,19.0084635 Z" id="Path-6" fill="#FBECCC"></path>
            <path d="M6.47441511,25.0820253 C7.85019875,15.9737916 6.9113263,18.7841432 10.1966473,11.0323672 C12.4665609,5.67646372 13.9188795,5.68011648 16.4958094,3.33850679 C19.3590649,1.33141278 19.8122809,1.095417 23.3271147,0.327865766 C25.1596575,-0.0723154688 27.0401516,-0.0980299906 28.8499828,0.206310122 C31.1394924,0.591312661 31.8521323,1.98702472 33.6753425,3.33850679 C36.1003708,5.13609563 38.5053234,9.23364667 39.115528,12.3704299 C39.115528,19.7297746 40.4129669,18.9655353 37.6839002,25.0820253 C33.3979908,34.6877718 34.2275122,32.2821153 27.6625059,40.8042618 C25.2082573,43.9901638 20.1933312,44.7688683 18.2137627,46.1565125 C17.3300757,46.7759623 17.7382076,43.4225139 16.4958094,42.8113558 C15.0181148,42.0844512 14.1007387,44.3012559 12.7735772,43.4803872 C11.6669715,42.7959354 12.5322052,40.4327976 11.3419495,39.8007148 C9.38262412,38.7602192 7.76940742,41.5411628 7.33339177,39.8007148 C6.05145411,34.6835916 6.13224544,27.3473244 6.47441511,25.0820253 Z" id="Path-5" fill="#8B572A"></path>
        </g>
        <g id="Atom" transform="translate(72.000000, 38.000000) scale(-1, -1) translate(-72.000000, -38.000000) translate(45.000000, 11.000000)">
            <circle id="Oval-4" fill="#FAFAFA" cx="27" cy="27" r="27"></circle>
            <path d="M48.010504,38.0474282 C47.9299221,43.6972391 40.2364463,43.4542757 29.9311741,37.4901617 C18.5482273,31.5099291 7.00890879,22.052227 5.04541979,16.3803853" id="Oval-5" stroke="#4CBDD4" stroke-linecap="square" stroke-linejoin="bevel" transform="translate(26.527962, 29.254785) scale(-1, 1) translate(-26.527962, -29.254785) "></path>
            <path d="M5.26088342,15.8300961 C3.20932625,10.1582545 13.1751524,10.4379439 26.6596206,16.4402073 C39.0966488,22.4263521 48.493359,31.8473282 48.5159628,37.4971391" id="Oval-5" stroke="#4CBDD4" stroke-linecap="round"></path>
            <text id="Na" font-family=".SFNSText-Bold, .SF NS Text" font-size="24" font-weight="bold" letter-spacing="-0.737142801" fill="#4A4A4A">
                <tspan x="12.0964192" y="34.0962938">Na</tspan>
            </text>
            <path d="M48.5385878,38.0474282 C48.4580058,43.6972391 40.7645301,43.4542757 30.4592579,37.4901617 C19.0763111,31.5099291 7.53699257,22.052227 5.57350358,16.3803853" id="Oval-5" stroke="#4CBDD4" stroke-linecap="square" stroke-linejoin="bevel"></path>
            <path d="M5.26088342,15.8300961 C3.20932625,10.1582545 13.1751524,10.4379439 26.6596206,16.4402073 C39.0966488,22.4263521 48.493359,31.8473282 48.5159628,37.4971391" id="Oval-5" stroke="#4CBDD4" stroke-linecap="round" transform="translate(26.754315, 24.624072) scale(-1, 1) translate(-26.754315, -24.624072) "></path>
        </g>
    </g>
</svg>