
<svg width="172px" height="155px" viewBox="44 0 172 155" version="1.1" xmlns="http://www.w3.org/2000/svg" xmlns:xlink="http://www.w3.org/1999/xlink">
    <!-- Generator: Sketch 40.3 (33839) - http://www.bohemiancoding.com/sketch -->
    <desc>Created with Sketch.</desc>
    <defs>
        <rect id="path-1" x="4.48170732" y="6.11650485" width="96.0365854" height="92.7669903" rx="15"></rect>
        <mask id="mask-2" maskContentUnits="userSpaceOnUse" maskUnits="objectBoundingBox" x="0" y="0" width="96.0365854" height="92.7669903" fill="white">
            <use xlink:href="#path-1"></use>
        </mask>
    </defs>
    <g id="Group-5" stroke="none" stroke-width="1" fill="none" fill-rule="evenodd" transform="translate(44.589996, 0.000000)">
        <g id="reactant2" transform="translate(93.008183, 77.792893) rotate(-45.000000) translate(-93.008183, -77.792893) translate(38.008183, 23.792893)">
            <g id="Group-8" transform="translate(0.000000, 0.000000)">
                <rect id="Rectangle-9" fill="#4A6278" x="0" y="0" width="105" height="105" rx="17"></rect>
                <use id="Rectangle-9" stroke="#1E3951" mask="url(#mask-2)" stroke-width="6" fill="#2C4154" xlink:href="#path-1"></use>
            </g>
            <g id="svg-carrot" transform="translate(29.500000, 37.500000) scale(-1, 1) translate(-29.500000, -37.500000) translate(6.000000, 15.000000)">
                <g id="Group-11" transform="translate(23.330466, 22.607795) rotate(-40.000000) translate(-23.330466, -22.607795) translate(3.330466, 11.107795)">
                    <path d="M29.2972699,12.1404605 C29.2972699,12.1404605 30.6402888,2.19845332 18.1879665,6.1147268 C5.7356443,10.0310003 1.48534605,15.8555597 1.48534605,15.8555597 C-0.986093404,18.2721648 -0.256674493,20.855953 3.1535035,21.4635143 C3.1535035,21.4635143 9.04357562,23.5096875 21.1934261,21.8704489 C33.3432766,20.2312104 29.2972699,12.1404605 29.2972699,12.1404605 L29.2972699,12.1404605 Z" id="Path-9" fill="#F46C2F"></path>
                    <path d="M8.75707655,10.61101 C8.75707655,10.61101 11.5810777,12.2995568 10.6968856,17.310259" id="Path-10" stroke="#C44815" stroke-width="5"></path>
                    <path d="M16.2173836,7.10949703 C16.2173836,7.10949703 21.1626445,9.37085715 19.7374786,15.4261962" id="Path-11" stroke="#C44815" stroke-width="5"></path>
                    <path d="M30.9954176,12.5144689 C30.9954176,12.5144689 27.0802512,6.48821484 31.3088895,1.25291165 C36.170935,6.48821484 30.9954176,12.5144689 30.9954176,12.5144689 L30.9954176,12.5144689 Z" id="Path-12" fill="#6FA942" transform="translate(31.368026, 6.883690) rotate(30.000000) translate(-31.368026, -6.883690) "></path>
                    <path d="M33.181924,18.5702421 C33.181924,18.5702421 29.2667575,12.543988 33.4953959,7.30868483 C38.3574413,12.543988 33.181924,18.5702421 33.181924,18.5702421 L33.181924,18.5702421 Z" id="Path-12" fill="#6FA942" transform="translate(33.554533, 12.939463) rotate(102.000000) translate(-33.554533, -12.939463) "></path>
                </g>
            </g>
            <g id="svg-carrot" transform="translate(25.621320, 73.692388) scale(-1, 1) translate(-25.621320, -73.692388) translate(2.121320, 51.192388)">
                <g id="Group-11" transform="translate(23.330466, 22.607795) rotate(-40.000000) translate(-23.330466, -22.607795) translate(3.330466, 11.107795)">
                    <path d="M29.2972699,12.1404605 C29.2972699,12.1404605 30.6402888,2.19845332 18.1879665,6.1147268 C5.7356443,10.0310003 1.48534605,15.8555597 1.48534605,15.8555597 C-0.986093404,18.2721648 -0.256674493,20.855953 3.1535035,21.4635143 C3.1535035,21.4635143 9.04357562,23.5096875 21.1934261,21.8704489 C33.3432766,20.2312104 29.2972699,12.1404605 29.2972699,12.1404605 L29.2972699,12.1404605 Z" id="Path-9" fill="#F46C2F"></path>
                    <path d="M8.75707655,10.61101 C8.75707655,10.61101 11.5810777,12.2995568 10.6968856,17.310259" id="Path-10" stroke="#C44815" stroke-width="5"></path>
                    <path d="M16.2173836,7.10949703 C16.2173836,7.10949703 21.1626445,9.37085715 19.7374786,15.4261962" id="Path-11" stroke="#C44815" stroke-width="5"></path>
                    <path d="M30.9954176,12.5144689 C30.9954176,12.5144689 27.0802512,6.48821484 31.3088895,1.25291165 C36.170935,6.48821484 30.9954176,12.5144689 30.9954176,12.5144689 L30.9954176,12.5144689 Z" id="Path-12" fill="#6FA942" transform="translate(31.368026, 6.883690) rotate(30.000000) translate(-31.368026, -6.883690) "></path>
                    <path d="M33.181924,18.5702421 C33.181924,18.5702421 29.2667575,12.543988 33.4953959,7.30868483 C38.3574413,12.543988 33.181924,18.5702421 33.181924,18.5702421 L33.181924,18.5702421 Z" id="Path-12" fill="#6FA942" transform="translate(33.554533, 12.939463) rotate(102.000000) translate(-33.554533, -12.939463) "></path>
                </g>
            </g>
            <g id="svg-carrot" transform="translate(76.500000, 74.500000) rotate(45.000000) translate(-76.500000, -74.500000) translate(53.000000, 52.000000)">
                <g id="Group-11" transform="translate(23.330466, 22.607795) rotate(-40.000000) translate(-23.330466, -22.607795) translate(3.330466, 11.107795)">
                    <path d="M29.2972699,12.1404605 C29.2972699,12.1404605 30.6402888,2.19845332 18.1879665,6.1147268 C5.7356443,10.0310003 1.48534605,15.8555597 1.48534605,15.8555597 C-0.986093404,18.2721648 -0.256674493,20.855953 3.1535035,21.4635143 C3.1535035,21.4635143 9.04357562,23.5096875 21.1934261,21.8704489 C33.3432766,20.2312104 29.2972699,12.1404605 29.2972699,12.1404605 L29.2972699,12.1404605 Z" id="Path-9" fill="#F46C2F"></path>
                    <path d="M8.75707655,10.61101 C8.75707655,10.61101 11.5810777,12.2995568 10.6968856,17.310259" id="Path-10" stroke="#C44815" stroke-width="5"></path>
                    <path d="M16.2173836,7.10949703 C16.2173836,7.10949703 21.1626445,9.37085715 19.7374786,15.4261962" id="Path-11" stroke="#C44815" stroke-width="5"></path>
                    <path d="M30.9954176,12.5144689 C30.9954176,12.5144689 27.0802512,6.48821484 31.3088895,1.25291165 C36.170935,6.48821484 30.9954176,12.5144689 30.9954176,12.5144689 L30.9954176,12.5144689 Z" id="Path-12" fill="#6FA942" transform="translate(31.368026, 6.883690) rotate(30.000000) translate(-31.368026, -6.883690) "></path>
                    <path d="M33.181924,18.5702421 C33.181924,18.5702421 29.2667575,12.543988 33.4953959,7.30868483 C38.3574413,12.543988 33.181924,18.5702421 33.181924,18.5702421 L33.181924,18.5702421 Z" id="Path-12" fill="#6FA942" transform="translate(33.554533, 12.939463) rotate(102.000000) translate(-33.554533, -12.939463) "></path>
                </g>
            </g>
            <g id="Atom" transform="translate(69.859509, 36.625490) rotate(43.000000) translate(-69.859509, -36.625490) translate(47.359509, 14.125490)">
                <circle id="Oval-4" fill="#FAA027" cx="22.5" cy="22.5" r="22.5"></circle>
                <path d="M40.0087533,31.7061902 C39.9416017,36.4143659 33.5303719,36.2118964 24.9426451,31.2418014 C15.4568561,26.2582743 5.84075733,18.3768558 4.20451649,13.6503211" id="Oval-5" stroke-opacity="0.416808197" stroke="#FFFFFF" stroke-linecap="square" stroke-linejoin="bevel" transform="translate(22.106635, 24.378988) scale(-1, 1) translate(-22.106635, -24.378988) "></path>
                <path d="M4.38406952,13.1917468 C2.67443855,8.46521208 10.9792937,8.69828657 22.2163505,13.7001727 C32.5805407,18.6886268 40.4111325,26.5394402 40.429969,31.2476159" id="Oval-5" stroke-opacity="0.416808197" stroke="#FFFFFF" stroke-linecap="round"></path>
                <text id="Fe" font-family=".SFNSText-Bold, .SF NS Text" font-size="20" font-weight="bold" letter-spacing="-0.614285648" fill="#4A4A4A">
                    <tspan x="11.747016" y="29.5802448">Fe</tspan>
                </text>
                <path d="M40.4488231,31.7061902 C40.3816715,36.4143659 33.9704417,36.2118964 25.3827149,31.2418014 C15.8969259,26.2582743 6.28082714,18.3768558 4.64458631,13.6503211" id="Oval-5" stroke-opacity="0.416808197" stroke="#FFFFFF" stroke-linecap="square" stroke-linejoin="bevel"></path>
                <path d="M4.38406952,13.1917468 C2.67443855,8.46521208 10.9792937,8.69828657 22.2163505,13.7001727 C32.5805407,18.6886268 40.4111325,26.5394402 40.429969,31.2476159" id="Oval-5" stroke-opacity="0.416808197" stroke="#FFFFFF" stroke-linecap="round" transform="translate(22.295263, 20.520060) scale(-1, 1) translate(-22.295263, -20.520060) "></path>
            </g>
        </g>
    </g>
</svg>