
<svg width="112px" height="112px" viewBox="45 1 112 112" version="1.1" xmlns="http://www.w3.org/2000/svg" xmlns:xlink="http://www.w3.org/1999/xlink">
    <!-- Generator: Sketch 40.3 (33839) - http://www.bohemiancoding.com/sketch -->
    <desc>Created with Sketch.</desc>
    <defs>
        <ellipse id="path-1" cx="55.591133" cy="54.7555556" rx="41.9211823" ry="41.9111111"></ellipse>
        <mask id="mask-2" maskContentUnits="userSpaceOnUse" maskUnits="objectBoundingBox" x="0" y="0" width="83.8423645" height="83.8222222" fill="white">
            <use xlink:href="#path-1"></use>
        </mask>
    </defs>
    <g id="rectant-2" stroke="none" stroke-width="1" fill="none" fill-rule="evenodd" transform="translate(101.248768, 57.477778) rotate(-180.000000) translate(-101.248768, -57.477778) translate(45.748768, 1.977778)">
        <ellipse id="Oval-7" fill="#DFDEDE" cx="55.2561576" cy="55.2428829" rx="55.2561576" ry="55.2428829"></ellipse>
        <use id="Oval-7" stroke="#FFFFFF" mask="url(#mask-2)" stroke-width="2" fill="#CCCBCB" xlink:href="#path-1"></use>
        <g id="Atom" transform="translate(69.000000, 33.000000)">
            <circle id="Oval-4" fill="#FACC39" cx="15" cy="15" r="15"></circle>
            <path d="M26.6725022,21.1374601 C26.6277345,24.2762439 22.3535813,24.1412643 16.6284301,20.8278676 C10.3045707,17.5055162 3.89383822,12.2512372 2.803011,9.10021407" id="Oval-5" stroke-opacity="0.8" stroke="#9B9B9B" stroke-linecap="square" stroke-linejoin="bevel" transform="translate(14.737757, 16.252658) scale(-1, 1) translate(-14.737757, -16.252658) "></path>
            <path d="M2.92271301,8.79449786 C1.78295903,5.64347472 7.31952911,5.79885772 14.8109003,9.13344849 C21.7203605,12.4590845 26.940755,17.6929601 26.9533127,20.8317439" id="Oval-5" stroke-opacity="0.8" stroke="#9B9B9B" stroke-linecap="round"></path>
            <text id="O" font-family=".SFNSText-Bold, .SF NS Text" font-size="18" font-weight="bold" letter-spacing="-0.552857101" fill="#4A4A4A">
                <tspan x="7.74362473" y="22.6558357">O</tspan>
            </text>
            <path d="M26.9658821,21.1374601 C26.9211144,24.2762439 22.6469612,24.1412643 16.9218099,20.8278676 C10.5979506,17.5055162 4.1872181,12.2512372 3.09639088,9.10021407" id="Oval-5" stroke-opacity="0.8" stroke="#9B9B9B" stroke-linecap="square" stroke-linejoin="bevel"></path>
            <path d="M2.92271301,8.79449786 C1.78295903,5.64347472 7.31952911,5.79885772 14.8109003,9.13344849 C21.7203605,12.4590845 26.940755,17.6929601 26.9533127,20.8317439" id="Oval-5" stroke-opacity="0.8" stroke="#9B9B9B" stroke-linecap="round" transform="translate(14.863509, 13.680040) scale(-1, 1) translate(-14.863509, -13.680040) "></path>
        </g>
        <g id="Atom" transform="translate(17.000000, 33.000000)">
            <circle id="Oval-4" fill="#FACC39" cx="15" cy="15" r="15"></circle>
            <path d="M26.6725022,21.1374601 C26.6277345,24.2762439 22.3535813,24.1412643 16.6284301,20.8278676 C10.3045707,17.5055162 3.89383822,12.2512372 2.803011,9.10021407" id="Oval-5" stroke-opacity="0.8" stroke="#9B9B9B" stroke-linecap="square" stroke-linejoin="bevel" transform="translate(14.737757, 16.252658) scale(-1, 1) translate(-14.737757, -16.252658) "></path>
            <path d="M2.92271301,8.79449786 C1.78295903,5.64347472 7.31952911,5.79885772 14.8109003,9.13344849 C21.7203605,12.4590845 26.940755,17.6929601 26.9533127,20.8317439" id="Oval-5" stroke-opacity="0.8" stroke="#9B9B9B" stroke-linecap="round"></path>
            <text id="O" font-family=".SFNSText-Bold, .SF NS Text" font-size="18" font-weight="bold" letter-spacing="-0.552857101" fill="#4A4A4A">
                <tspan x="7.74362473" y="22.6558357">O</tspan>
            </text>
            <path d="M26.9658821,21.1374601 C26.9211144,24.2762439 22.6469612,24.1412643 16.9218099,20.8278676 C10.5979506,17.5055162 4.1872181,12.2512372 3.09639088,9.10021407" id="Oval-5" stroke-opacity="0.8" stroke="#9B9B9B" stroke-linecap="square" stroke-linejoin="bevel"></path>
            <path d="M2.92271301,8.79449786 C1.78295903,5.64347472 7.31952911,5.79885772 14.8109003,9.13344849 C21.7203605,12.4590845 26.940755,17.6929601 26.9533127,20.8317439" id="Oval-5" stroke-opacity="0.8" stroke="#9B9B9B" stroke-linecap="round" transform="translate(14.863509, 13.680040) scale(-1, 1) translate(-14.863509, -13.680040) "></path>
        </g>
        <g id="Atom" transform="translate(43.000000, 11.000000)">
            <circle id="Oval-4" fill="#FACC39" cx="15" cy="15" r="15"></circle>
            <path d="M26.6725022,21.1374601 C26.6277345,24.2762439 22.3535813,24.1412643 16.6284301,20.8278676 C10.3045707,17.5055162 3.89383822,12.2512372 2.803011,9.10021407" id="Oval-5" stroke-opacity="0.8" stroke="#9B9B9B" stroke-linecap="square" stroke-linejoin="bevel" transform="translate(14.737757, 16.252658) scale(-1, 1) translate(-14.737757, -16.252658) "></path>
            <path d="M2.92271301,8.79449786 C1.78295903,5.64347472 7.31952911,5.79885772 14.8109003,9.13344849 C21.7203605,12.4590845 26.940755,17.6929601 26.9533127,20.8317439" id="Oval-5" stroke-opacity="0.8" stroke="#9B9B9B" stroke-linecap="round"></path>
            <text id="O" font-family=".SFNSText-Bold, .SF NS Text" font-size="18" font-weight="bold" letter-spacing="-0.552857101" fill="#4A4A4A">
                <tspan x="7.74362473" y="22.6558357">O</tspan>
            </text>
            <path d="M26.9658821,21.1374601 C26.9211144,24.2762439 22.6469612,24.1412643 16.9218099,20.8278676 C10.5979506,17.5055162 4.1872181,12.2512372 3.09639088,9.10021407" id="Oval-5" stroke-opacity="0.8" stroke="#9B9B9B" stroke-linecap="square" stroke-linejoin="bevel"></path>
            <path d="M2.92271301,8.79449786 C1.78295903,5.64347472 7.31952911,5.79885772 14.8109003,9.13344849 C21.7203605,12.4590845 26.940755,17.6929601 26.9533127,20.8317439" id="Oval-5" stroke-opacity="0.8" stroke="#9B9B9B" stroke-linecap="round" transform="translate(14.863509, 13.680040) scale(-1, 1) translate(-14.863509, -13.680040) "></path>
        </g>
        <g id="Atom" transform="translate(38.500000, 82.500000) scale(-1, -1) translate(-38.500000, -82.500000) translate(21.000000, 65.000000)">
            <ellipse id="Oval-4" fill="#FAA027" cx="17.5" cy="17.5" rx="17.5" ry="17.5"></ellipse>
            <path d="M31.1179193,24.6603702 C31.0656902,28.3222846 26.0791782,28.1648083 19.3998351,24.2991789 C12.0219992,20.4231022 4.54281125,14.2931101 3.2701795,10.6169164" id="Oval-5" stroke-opacity="0.416808197" stroke="#FFFFFF" stroke-linecap="square" stroke-linejoin="bevel" transform="translate(17.194049, 18.961435) scale(-1, 1) translate(-17.194049, -18.961435) "></path>
            <path d="M3.40983185,10.2602475 C2.08011887,6.58405384 8.53945063,6.765334 17.2793837,10.6556899 C25.3404205,14.5355986 31.4308808,20.6417868 31.4455315,24.3037012" id="Oval-5" stroke-opacity="0.416808197" stroke="#FFFFFF" stroke-linecap="round"></path>
            <text id="Fe" font-family=".SFNSText-Bold, .SF NS Text" font-size="16" font-weight="bold" letter-spacing="-0.491428494" fill="#4A4A4A">
                <tspan x="9.13656803" y="23.2290793">Fe</tspan>
            </text>
            <path d="M31.4601958,24.6603702 C31.4079667,28.3222846 26.4214547,28.1648083 19.7421116,24.2991789 C12.3642757,20.4231022 4.88508778,14.2931101 3.61245602,10.6169164" id="Oval-5" stroke-opacity="0.416808197" stroke="#FFFFFF" stroke-linecap="square" stroke-linejoin="bevel"></path>
            <path d="M3.40983185,10.2602475 C2.08011887,6.58405384 8.53945063,6.765334 17.2793837,10.6556899 C25.3404205,14.5355986 31.4308808,20.6417868 31.4455315,24.3037012" id="Oval-5" stroke-opacity="0.416808197" stroke="#FFFFFF" stroke-linecap="round" transform="translate(17.340760, 15.960047) scale(-1, 1) translate(-17.340760, -15.960047) "></path>
        </g>
        <g id="Atom" transform="translate(76.500000, 82.500000) scale(-1, -1) translate(-76.500000, -82.500000) translate(59.000000, 65.000000)">
            <ellipse id="Oval-4" fill="#FAA027" cx="17.5" cy="17.5" rx="17.5" ry="17.5"></ellipse>
            <path d="M31.1179193,24.6603702 C31.0656902,28.3222846 26.0791782,28.1648083 19.3998351,24.2991789 C12.0219992,20.4231022 4.54281125,14.2931101 3.2701795,10.6169164" id="Oval-5" stroke-opacity="0.416808197" stroke="#FFFFFF" stroke-linecap="square" stroke-linejoin="bevel" transform="translate(17.194049, 18.961435) scale(-1, 1) translate(-17.194049, -18.961435) "></path>
            <path d="M3.40983185,10.2602475 C2.08011887,6.58405384 8.53945063,6.765334 17.2793837,10.6556899 C25.3404205,14.5355986 31.4308808,20.6417868 31.4455315,24.3037012" id="Oval-5" stroke-opacity="0.416808197" stroke="#FFFFFF" stroke-linecap="round"></path>
            <text id="Fe" font-family=".SFNSText-Bold, .SF NS Text" font-size="16" font-weight="bold" letter-spacing="-0.491428494" fill="#4A4A4A">
                <tspan x="9.13656803" y="23.2290793">Fe</tspan>
            </text>
            <path d="M31.4601958,24.6603702 C31.4079667,28.3222846 26.4214547,28.1648083 19.7421116,24.2991789 C12.3642757,20.4231022 4.88508778,14.2931101 3.61245602,10.6169164" id="Oval-5" stroke-opacity="0.416808197" stroke="#FFFFFF" stroke-linecap="square" stroke-linejoin="bevel"></path>
            <path d="M3.40983185,10.2602475 C2.08011887,6.58405384 8.53945063,6.765334 17.2793837,10.6556899 C25.3404205,14.5355986 31.4308808,20.6417868 31.4455315,24.3037012" id="Oval-5" stroke-opacity="0.416808197" stroke="#FFFFFF" stroke-linecap="round" transform="translate(17.340760, 15.960047) scale(-1, 1) translate(-17.340760, -15.960047) "></path>
        </g>
    </g>
</svg>