
<svg width="183px" height="182px" viewBox="42 0 183 182" version="1.1" xmlns="http://www.w3.org/2000/svg" xmlns:xlink="http://www.w3.org/1999/xlink">
    <!-- Generator: Sketch 40.3 (33839) - http://www.bohemiancoding.com/sketch -->
    <desc>Created with Sketch.</desc>
    <defs>
        <rect id="path-1" x="4.48170732" y="6.11650485" width="96.0365854" height="92.7669903" rx="15"></rect>
        <mask id="mask-2" maskContentUnits="userSpaceOnUse" maskUnits="objectBoundingBox" x="0" y="0" width="96.0365854" height="92.7669903" fill="white">
            <use xlink:href="#path-1"></use>
        </mask>
    </defs>
    <g id="Group-5" stroke="none" stroke-width="1" fill="none" fill-rule="evenodd" transform="translate(42.589996, 0.000000)">
        <g id="reactant2" transform="translate(91.119096, 91.117009) rotate(-45.000000) translate(-91.119096, -91.117009) translate(26.119096, 27.617009)">
            <g id="Group-8" transform="translate(25.000000, 0.000000)">
                <rect id="Rectangle-9" fill="#4A6278" x="0" y="0" width="105" height="105" rx="17"></rect>
                <use id="Rectangle-9" stroke="#1E3951" mask="url(#mask-2)" stroke-width="6" fill="#2C4154" xlink:href="#path-1"></use>
            </g>
            <g id="Atom" transform="translate(94.859509, 36.625490) rotate(43.000000) translate(-94.859509, -36.625490) translate(72.359509, 14.125490)">
                <circle id="Oval-4" fill="#FAA027" cx="22.5" cy="22.5" r="22.5"></circle>
                <path d="M40.0087533,31.7061902 C39.9416017,36.4143659 33.5303719,36.2118964 24.9426451,31.2418014 C15.4568561,26.2582743 5.84075733,18.3768558 4.20451649,13.6503211" id="Oval-5" stroke-opacity="0.416808197" stroke="#FFFFFF" stroke-linecap="square" stroke-linejoin="bevel" transform="translate(22.106635, 24.378988) scale(-1, 1) translate(-22.106635, -24.378988) "></path>
                <path d="M4.38406952,13.1917468 C2.67443855,8.46521208 10.9792937,8.69828657 22.2163505,13.7001727 C32.5805407,18.6886268 40.4111325,26.5394402 40.429969,31.2476159" id="Oval-5" stroke-opacity="0.416808197" stroke="#FFFFFF" stroke-linecap="round"></path>
                <text id="Fe" font-family=".SFNSText-Bold, .SF NS Text" font-size="20" font-weight="bold" letter-spacing="-0.614285648" fill="#4A4A4A">
                    <tspan x="11.747016" y="29.5802448">Fe</tspan>
                </text>
                <path d="M40.4488231,31.7061902 C40.3816715,36.4143659 33.9704417,36.2118964 25.3827149,31.2418014 C15.8969259,26.2582743 6.28082714,18.3768558 4.64458631,13.6503211" id="Oval-5" stroke-opacity="0.416808197" stroke="#FFFFFF" stroke-linecap="square" stroke-linejoin="bevel"></path>
                <path d="M4.38406952,13.1917468 C2.67443855,8.46521208 10.9792937,8.69828657 22.2163505,13.7001727 C32.5805407,18.6886268 40.4111325,26.5394402 40.429969,31.2476159" id="Oval-5" stroke-opacity="0.416808197" stroke="#FFFFFF" stroke-linecap="round" transform="translate(22.295263, 20.520060) scale(-1, 1) translate(-22.295263, -20.520060) "></path>
            </g>
            <g id="svg-Cl-atom" transform="translate(63.240271, 64.748463) rotate(44.000000) translate(-63.240271, -64.748463) translate(10.740271, 29.248463)">
                <g id="Atom" transform="translate(0.000000, 1.000000)">
                    <circle id="Oval-4" fill="#80D566" cx="17.5" cy="17.5" r="17.5"></circle>
                    <path d="M31.1179192,24.6603702 C31.0656902,28.3222846 26.0791781,28.1648083 19.3998351,24.2991789 C12.0219992,20.4231022 4.54281126,14.2931101 3.2701795,10.6169164" id="Oval-5" stroke-opacity="0.8" stroke="#FFFFFF" transform="translate(17.194049, 18.961435) scale(-1, 1) translate(-17.194049, -18.961435) "></path>
                    <path d="M3.40983185,10.2602475 C2.08011887,6.58405384 8.53945066,6.765334 17.2793837,10.6556899 C25.3404205,14.5355986 31.4308808,20.6417868 31.4455314,24.3037013" id="Oval-5" stroke-opacity="0.8" stroke="#FFFFFF"></path>
                    <g id="O" transform="translate(10.888889, 9.666667)" font-size="12" font-family=".SFNSText-Bold, .SF NS Text" fill="#4A4A4A" font-weight="bold">
                        <g id="Group" transform="translate(0.000000, -0.000000)">
                            <text id="Cl">
                                <tspan x="0.50361699" y="12.6651003">Cl</tspan>
                            </text>
                        </g>
                    </g>
                    <path d="M31.4601957,24.6603702 C31.4079667,28.3222846 26.4214547,28.1648083 19.7421116,24.2991789 C12.3642757,20.4231022 4.88508778,14.2931101 3.61245602,10.6169164" id="Oval-5" stroke-opacity="0.8" stroke="#FFFFFF"></path>
                    <path d="M3.40983184,10.2602475 C2.08011886,6.58405384 8.53945066,6.765334 17.2793837,10.6556899 C25.3404205,14.5355986 31.4308808,20.6417868 31.4455314,24.3037013" id="Oval-5" stroke-opacity="0.8" stroke="#FFFFFF" transform="translate(17.340760, 15.960047) scale(-1, 1) translate(-17.340760, -15.960047) "></path>
                </g>
                <g id="Atom" transform="translate(35.000000, 36.000000)">
                    <circle id="Oval-4" fill="#80D566" cx="17.5" cy="17.5" r="17.5"></circle>
                    <path d="M31.1179192,24.6603702 C31.0656902,28.3222846 26.0791781,28.1648083 19.3998351,24.2991789 C12.0219992,20.4231022 4.54281126,14.2931101 3.2701795,10.6169164" id="Oval-5" stroke-opacity="0.8" stroke="#FFFFFF" transform="translate(17.194049, 18.961435) scale(-1, 1) translate(-17.194049, -18.961435) "></path>
                    <path d="M3.40983185,10.2602475 C2.08011887,6.58405384 8.53945066,6.765334 17.2793837,10.6556899 C25.3404205,14.5355986 31.4308808,20.6417868 31.4455314,24.3037013" id="Oval-5" stroke-opacity="0.8" stroke="#FFFFFF"></path>
                    <g id="O" transform="translate(10.888889, 9.666667)" font-size="12" font-family=".SFNSText-Bold, .SF NS Text" fill="#4A4A4A" font-weight="bold">
                        <g id="Group" transform="translate(0.000000, -0.000000)">
                            <text id="Cl">
                                <tspan x="0.50361699" y="12.6651003">Cl</tspan>
                            </text>
                        </g>
                    </g>
                    <path d="M31.4601957,24.6603702 C31.4079667,28.3222846 26.4214547,28.1648083 19.7421116,24.2991789 C12.3642757,20.4231022 4.88508778,14.2931101 3.61245602,10.6169164" id="Oval-5" stroke-opacity="0.8" stroke="#FFFFFF"></path>
                    <path d="M3.40983184,10.2602475 C2.08011886,6.58405384 8.53945066,6.765334 17.2793837,10.6556899 C25.3404205,14.5355986 31.4308808,20.6417868 31.4455314,24.3037013" id="Oval-5" stroke-opacity="0.8" stroke="#FFFFFF" transform="translate(17.340760, 15.960047) scale(-1, 1) translate(-17.340760, -15.960047) "></path>
                </g>
                <g id="Atom" transform="translate(69.653282, 0.919446)">
                    <circle id="Oval-4" fill="#80D566" cx="17.5" cy="17.5" r="17.5"></circle>
                    <path d="M31.1179192,24.6603702 C31.0656902,28.3222846 26.0791781,28.1648083 19.3998351,24.2991789 C12.0219992,20.4231022 4.54281126,14.2931101 3.2701795,10.6169164" id="Oval-5" stroke-opacity="0.8" stroke="#FFFFFF" transform="translate(17.194049, 18.961435) scale(-1, 1) translate(-17.194049, -18.961435) "></path>
                    <path d="M3.40983185,10.2602475 C2.08011887,6.58405384 8.53945066,6.765334 17.2793837,10.6556899 C25.3404205,14.5355986 31.4308808,20.6417868 31.4455314,24.3037013" id="Oval-5" stroke-opacity="0.8" stroke="#FFFFFF"></path>
                    <g id="O" transform="translate(10.888889, 9.666667)" font-size="12" font-family=".SFNSText-Bold, .SF NS Text" fill="#4A4A4A" font-weight="bold">
                        <g id="Group" transform="translate(0.000000, -0.000000)">
                            <text id="Cl">
                                <tspan x="0.50361699" y="12.6651003">Cl</tspan>
                            </text>
                        </g>
                    </g>
                    <path d="M31.4601957,24.6603702 C31.4079667,28.3222846 26.4214547,28.1648083 19.7421116,24.2991789 C12.3642757,20.4231022 4.88508778,14.2931101 3.61245602,10.6169164" id="Oval-5" stroke-opacity="0.8" stroke="#FFFFFF"></path>
                    <path d="M3.40983184,10.2602475 C2.08011886,6.58405384 8.53945066,6.765334 17.2793837,10.6556899 C25.3404205,14.5355986 31.4308808,20.6417868 31.4455314,24.3037013" id="Oval-5" stroke-opacity="0.8" stroke="#FFFFFF" transform="translate(17.340760, 15.960047) scale(-1, 1) translate(-17.340760, -15.960047) "></path>
                </g>
            </g>
        </g>
    </g>
</svg>